%FSLAX34Y34*%
G04 Gerber Fmt 3.4, Leading zero omitted, Abs format*
G04 (created by PCBNEW (2014-03-19 BZR 4756)-product) date Čt 31. červenec 2014, 15:28:38 CEST*
%MOIN*%
G01*
G70*
G90*
G04 APERTURE LIST*
%ADD10C,0.005906*%
%ADD11R,0.090600X0.019700*%
%ADD12R,0.098400X0.078700*%
%ADD13R,0.035400X0.039400*%
%ADD14R,0.039400X0.035400*%
%ADD15R,0.078700X0.078700*%
%ADD16C,0.078700*%
%ADD17R,0.078740X0.125984*%
%ADD18R,0.078700X0.017700*%
%ADD19R,0.017700X0.078700*%
%ADD20R,0.039400X0.074800*%
%ADD21R,0.025000X0.045000*%
%ADD22R,0.045000X0.025000*%
%ADD23R,0.027600X0.039400*%
%ADD24O,0.078700X0.098400*%
%ADD25R,0.066900X0.051200*%
%ADD26R,0.070900X0.086600*%
%ADD27R,0.068000X0.080000*%
%ADD28O,0.068000X0.080000*%
%ADD29R,0.047200X0.047200*%
%ADD30C,0.035000*%
%ADD31C,0.010000*%
%ADD32C,0.015748*%
%ADD33C,0.007874*%
G04 APERTURE END LIST*
G54D10*
G54D11*
X49880Y-36258D03*
X49880Y-36573D03*
X49880Y-36888D03*
X49880Y-37203D03*
X49880Y-37518D03*
G54D12*
X49841Y-35136D03*
X47676Y-35136D03*
X49841Y-38640D03*
X47676Y-38640D03*
G54D13*
X50843Y-39281D03*
X51435Y-39281D03*
X52685Y-39281D03*
X52093Y-39281D03*
G54D14*
X63514Y-38277D03*
X63514Y-37685D03*
G54D15*
X54539Y-35731D03*
G54D16*
X55539Y-35731D03*
G54D17*
X53445Y-34781D03*
X51645Y-34781D03*
G54D18*
X58668Y-38624D03*
X58668Y-38309D03*
X58668Y-37994D03*
X58668Y-37679D03*
X58668Y-37364D03*
X58668Y-37049D03*
X58668Y-36734D03*
X58668Y-36419D03*
X62434Y-36421D03*
X62434Y-38631D03*
X62434Y-38311D03*
X62434Y-37991D03*
X62434Y-37681D03*
X62434Y-37361D03*
X62434Y-37051D03*
X62434Y-36731D03*
G54D19*
X59452Y-35631D03*
X59766Y-35631D03*
X60082Y-35631D03*
X60396Y-35631D03*
X60712Y-35631D03*
X61026Y-35631D03*
X61342Y-35631D03*
X61656Y-35631D03*
X59454Y-39411D03*
X59764Y-39411D03*
X60084Y-39411D03*
X60394Y-39411D03*
X60704Y-39411D03*
X61024Y-39411D03*
X61344Y-39411D03*
X61664Y-39411D03*
G54D20*
X64284Y-37981D03*
X65544Y-37981D03*
G54D21*
X56264Y-34681D03*
X56864Y-34681D03*
X51664Y-37131D03*
X51064Y-37131D03*
X51664Y-36431D03*
X51064Y-36431D03*
G54D22*
X53470Y-35800D03*
X53470Y-36400D03*
G54D21*
X62264Y-33581D03*
X62864Y-33581D03*
X62264Y-34281D03*
X62864Y-34281D03*
G54D23*
X55914Y-38781D03*
X56289Y-38781D03*
X56664Y-38781D03*
X56664Y-39781D03*
X56289Y-39781D03*
X55914Y-39781D03*
X54464Y-38781D03*
X54839Y-38781D03*
X55214Y-38781D03*
X55214Y-39781D03*
X54839Y-39781D03*
X54464Y-39781D03*
G54D24*
X48553Y-40631D03*
X50475Y-40631D03*
G54D25*
X52514Y-37820D03*
X52514Y-36442D03*
G54D26*
X50220Y-33167D03*
X51800Y-33167D03*
G54D25*
X53564Y-38420D03*
X53564Y-37042D03*
G54D27*
X55864Y-33681D03*
G54D28*
X56864Y-33681D03*
X57864Y-33681D03*
X58864Y-33681D03*
X59864Y-33681D03*
X60864Y-33681D03*
G54D27*
X52864Y-32631D03*
G54D28*
X53864Y-32631D03*
X54864Y-32631D03*
X55864Y-32631D03*
X56864Y-32631D03*
X57864Y-32631D03*
X58864Y-32631D03*
X59864Y-32631D03*
X60864Y-32631D03*
X61864Y-32631D03*
X62864Y-32631D03*
X63864Y-32631D03*
X64864Y-32631D03*
X65864Y-32631D03*
G54D27*
X65864Y-41181D03*
G54D28*
X64864Y-41181D03*
X63864Y-41181D03*
X62864Y-41181D03*
X61864Y-41181D03*
X60864Y-41181D03*
X59864Y-41181D03*
X58864Y-41181D03*
X57864Y-41181D03*
X56864Y-41181D03*
X55864Y-41181D03*
X54864Y-41181D03*
X53864Y-41181D03*
X52864Y-41181D03*
G54D29*
X47919Y-32852D03*
X47919Y-33678D03*
G54D21*
X49381Y-34092D03*
X48781Y-34092D03*
G54D30*
X57364Y-38331D03*
X51089Y-38381D03*
X48274Y-36907D03*
X52486Y-38797D03*
X49022Y-33167D03*
X51403Y-37812D03*
X62525Y-35647D03*
X64592Y-33974D03*
X53864Y-40273D03*
X55364Y-40381D03*
X55539Y-36756D03*
X54914Y-37381D03*
X55614Y-37831D03*
X57486Y-39584D03*
X57589Y-38806D03*
X53364Y-39131D03*
X64691Y-34781D03*
X61664Y-34381D03*
X54464Y-37781D03*
X57464Y-35981D03*
X57464Y-37031D03*
X63864Y-39331D03*
X59364Y-36731D03*
X63489Y-35956D03*
X61514Y-37831D03*
X64564Y-36156D03*
X56839Y-35931D03*
X56864Y-35431D03*
X54839Y-38056D03*
X58096Y-36001D03*
X59435Y-37222D03*
X56664Y-38181D03*
X55564Y-38406D03*
X59671Y-38698D03*
X60464Y-38231D03*
X60814Y-37831D03*
X61164Y-38231D03*
G54D31*
X50843Y-39281D02*
X50664Y-39281D01*
X49214Y-39531D02*
X48553Y-40192D01*
X50414Y-39531D02*
X49214Y-39531D01*
X50664Y-39281D02*
X50414Y-39531D01*
X48553Y-40192D02*
X48553Y-40631D01*
X50843Y-39281D02*
X50843Y-38627D01*
X57386Y-38309D02*
X58668Y-38309D01*
X57364Y-38331D02*
X57386Y-38309D01*
X50843Y-38627D02*
X51089Y-38381D01*
X48274Y-36907D02*
X48274Y-36887D01*
X53564Y-38420D02*
X52764Y-38420D01*
X52486Y-38698D02*
X52486Y-38797D01*
X52764Y-38420D02*
X52486Y-38698D01*
X50220Y-33167D02*
X49024Y-33164D01*
X49024Y-33164D02*
X49022Y-33167D01*
X52514Y-37820D02*
X51411Y-37820D01*
X51411Y-37820D02*
X51403Y-37812D01*
X54839Y-39456D02*
X54764Y-39381D01*
X54764Y-39381D02*
X54214Y-39381D01*
X54214Y-39381D02*
X53864Y-39731D01*
X54839Y-39781D02*
X54839Y-39456D01*
X53864Y-40273D02*
X53864Y-39731D01*
X53864Y-40273D02*
X53864Y-40273D01*
X58014Y-37049D02*
X57864Y-37049D01*
X55564Y-36781D02*
X55539Y-36756D01*
X55564Y-36781D02*
X56514Y-36781D01*
X56514Y-36781D02*
X56664Y-36690D01*
X56664Y-36690D02*
X57664Y-36690D01*
X57664Y-36690D02*
X57864Y-36831D01*
X57864Y-37049D02*
X57864Y-36831D01*
X57864Y-37531D02*
X57864Y-37049D01*
X58012Y-37679D02*
X57864Y-37531D01*
X58668Y-37679D02*
X58012Y-37679D01*
X57996Y-37049D02*
X58014Y-37049D01*
X58014Y-37049D02*
X58668Y-37049D01*
X55914Y-38781D02*
X55914Y-38131D01*
X55914Y-38131D02*
X55614Y-37831D01*
X54839Y-39781D02*
X54839Y-40106D01*
X56289Y-39456D02*
X56289Y-39781D01*
X56214Y-39381D02*
X56289Y-39456D01*
X55664Y-39381D02*
X56214Y-39381D01*
X55564Y-39481D02*
X55664Y-39381D01*
X55564Y-40181D02*
X55564Y-39481D01*
X55414Y-40331D02*
X55364Y-40381D01*
X55364Y-40381D02*
X55564Y-40181D01*
X55064Y-40331D02*
X55414Y-40331D01*
X54839Y-40106D02*
X55064Y-40331D01*
X62434Y-37361D02*
X63394Y-37361D01*
X63514Y-37481D02*
X63514Y-37685D01*
X63394Y-37361D02*
X63514Y-37481D01*
X51435Y-39281D02*
X52093Y-39281D01*
X56289Y-40258D02*
X56364Y-40332D01*
X56364Y-40332D02*
X56738Y-40332D01*
X56738Y-40332D02*
X57486Y-39584D01*
X56289Y-39781D02*
X56289Y-40258D01*
X52685Y-39281D02*
X52685Y-39585D01*
X51639Y-40631D02*
X50475Y-40631D01*
X52685Y-39585D02*
X51639Y-40631D01*
X52685Y-39281D02*
X53214Y-39281D01*
X57771Y-38624D02*
X58668Y-38624D01*
X57589Y-38806D02*
X57771Y-38624D01*
X53214Y-39281D02*
X53364Y-39131D01*
X62434Y-37681D02*
X62906Y-37681D01*
X63057Y-37832D02*
X63057Y-38311D01*
X62906Y-37681D02*
X63057Y-37832D01*
X62434Y-38311D02*
X63057Y-38311D01*
X63057Y-38311D02*
X63480Y-38311D01*
X63480Y-38311D02*
X63514Y-38277D01*
X63514Y-38277D02*
X63818Y-38277D01*
X64014Y-37981D02*
X64284Y-37981D01*
X63914Y-38081D02*
X64014Y-37981D01*
X63914Y-38181D02*
X63914Y-38081D01*
X63818Y-38277D02*
X63914Y-38181D01*
X65544Y-37981D02*
X65544Y-34756D01*
X54464Y-39131D02*
X54064Y-39131D01*
X52864Y-40331D02*
X52864Y-41181D01*
X54064Y-39131D02*
X52864Y-40331D01*
X56664Y-39131D02*
X56664Y-39781D01*
X55214Y-39131D02*
X56664Y-39131D01*
X56664Y-39131D02*
X56964Y-39131D01*
X57201Y-37994D02*
X58668Y-37994D01*
X57014Y-38181D02*
X57201Y-37994D01*
X57014Y-39081D02*
X57014Y-38181D01*
X56964Y-39131D02*
X57014Y-39081D01*
X62264Y-33581D02*
X61864Y-33581D01*
X61864Y-34181D02*
X61864Y-33581D01*
X61864Y-33581D02*
X61864Y-32631D01*
X61864Y-34181D02*
X61664Y-34381D01*
X64716Y-34756D02*
X65544Y-34756D01*
X64691Y-34781D02*
X64716Y-34756D01*
X65544Y-34756D02*
X65544Y-34076D01*
X65544Y-34076D02*
X65864Y-33756D01*
X65864Y-33756D02*
X65864Y-32631D01*
G54D32*
X55864Y-33681D02*
X55864Y-32631D01*
X55864Y-33681D02*
X55864Y-34681D01*
X55872Y-34681D02*
X56264Y-34681D01*
X55864Y-34681D02*
X55872Y-34681D01*
X55864Y-33681D02*
X55814Y-33681D01*
G54D31*
X54464Y-37781D02*
X54464Y-38781D01*
X55214Y-39781D02*
X55214Y-39131D01*
X54464Y-38781D02*
X54464Y-39131D01*
X54464Y-39131D02*
X55214Y-39131D01*
X61964Y-34281D02*
X62264Y-34281D01*
X61864Y-34181D02*
X61964Y-34281D01*
G54D32*
X53364Y-34631D02*
X53164Y-34431D01*
X51800Y-33622D02*
X51974Y-33797D01*
X51974Y-33797D02*
X52211Y-33797D01*
X52211Y-33797D02*
X52506Y-34092D01*
X52506Y-34092D02*
X52506Y-34564D01*
X52506Y-34564D02*
X52722Y-34781D01*
X52722Y-34781D02*
X53445Y-34781D01*
X51800Y-33167D02*
X51800Y-33622D01*
X53545Y-34681D02*
X53445Y-34781D01*
X54539Y-34681D02*
X53545Y-34681D01*
X55872Y-34681D02*
X54539Y-34681D01*
X54539Y-35731D02*
X54539Y-34681D01*
X53445Y-35775D02*
X53470Y-35800D01*
X53470Y-34806D02*
X53445Y-34781D01*
X53470Y-35800D02*
X53470Y-34806D01*
G54D31*
X58645Y-36442D02*
X58668Y-36419D01*
X51664Y-36431D02*
X52503Y-36431D01*
X52503Y-36431D02*
X52514Y-36442D01*
X53428Y-36442D02*
X53470Y-36400D01*
X52514Y-36442D02*
X53428Y-36442D01*
X53489Y-36419D02*
X53470Y-36400D01*
X58668Y-36419D02*
X53489Y-36419D01*
X57464Y-37031D02*
X56764Y-37031D01*
X55175Y-37042D02*
X53564Y-37042D01*
X55364Y-37231D02*
X55175Y-37042D01*
X56564Y-37231D02*
X55364Y-37231D01*
X56764Y-37031D02*
X56564Y-37231D01*
X57814Y-35631D02*
X59452Y-35631D01*
X57464Y-35981D02*
X57814Y-35631D01*
X51664Y-37131D02*
X53475Y-37131D01*
X53475Y-37131D02*
X53564Y-37042D01*
G54D32*
X50488Y-36248D02*
X50892Y-35844D01*
X50892Y-35844D02*
X51443Y-35844D01*
X51443Y-35844D02*
X51645Y-35642D01*
X51645Y-35642D02*
X51645Y-34781D01*
X49880Y-36258D02*
X50488Y-36258D01*
X50488Y-36258D02*
X50488Y-36248D01*
X50144Y-34092D02*
X50833Y-34781D01*
X50833Y-34781D02*
X51645Y-34781D01*
X49381Y-34092D02*
X50144Y-34092D01*
G54D31*
X63864Y-41181D02*
X63864Y-39331D01*
X59364Y-36731D02*
X59361Y-36734D01*
X59361Y-36734D02*
X58668Y-36734D01*
X63024Y-36421D02*
X62434Y-36421D01*
X63489Y-35956D02*
X63024Y-36421D01*
X61914Y-38631D02*
X62434Y-38631D01*
X61514Y-38231D02*
X61914Y-38631D01*
X61514Y-37831D02*
X61514Y-38231D01*
G54D32*
X59864Y-32631D02*
X59864Y-33681D01*
G54D31*
X64564Y-36156D02*
X63764Y-36156D01*
X63461Y-36310D02*
X63039Y-36731D01*
X63611Y-36310D02*
X63461Y-36310D01*
X63764Y-36156D02*
X63611Y-36310D01*
X63039Y-36731D02*
X62434Y-36731D01*
X59766Y-35631D02*
X59766Y-35158D01*
X57789Y-34981D02*
X56839Y-35931D01*
X59589Y-34981D02*
X57789Y-34981D01*
X59766Y-35158D02*
X59589Y-34981D01*
X60082Y-35631D02*
X60082Y-35174D01*
X57539Y-34756D02*
X56864Y-35431D01*
X59664Y-34756D02*
X57539Y-34756D01*
X60082Y-35174D02*
X59664Y-34756D01*
X60396Y-35631D02*
X60396Y-35163D01*
X57189Y-34681D02*
X56864Y-34681D01*
X57339Y-34531D02*
X57189Y-34681D01*
X59764Y-34531D02*
X57339Y-34531D01*
X60396Y-35163D02*
X59764Y-34531D01*
X56864Y-33681D02*
X56864Y-34681D01*
X60712Y-36158D02*
X60712Y-35631D01*
X60672Y-36198D02*
X60712Y-36158D01*
X59277Y-36198D02*
X60672Y-36198D01*
X59081Y-36001D02*
X59277Y-36198D01*
X58096Y-36001D02*
X59081Y-36001D01*
X56289Y-38781D02*
X56289Y-37606D01*
X55464Y-37431D02*
X54839Y-38056D01*
X56114Y-37431D02*
X55464Y-37431D01*
X56289Y-37606D02*
X56114Y-37431D01*
X54839Y-38056D02*
X54839Y-38781D01*
X62864Y-33581D02*
X62714Y-33581D01*
X62714Y-33581D02*
X62564Y-33731D01*
X62564Y-33731D02*
X62564Y-34581D01*
X62564Y-34581D02*
X62414Y-34731D01*
X62414Y-34731D02*
X60864Y-34731D01*
X60864Y-34731D02*
X60712Y-34883D01*
X60712Y-34883D02*
X60712Y-35631D01*
X62864Y-32631D02*
X62864Y-33581D01*
X61026Y-36344D02*
X61026Y-35631D01*
X60916Y-36454D02*
X61026Y-36344D01*
X60203Y-36454D02*
X60916Y-36454D01*
X59435Y-37222D02*
X60203Y-36454D01*
X56664Y-38781D02*
X56664Y-38181D01*
X55514Y-38781D02*
X55214Y-38781D01*
X55564Y-38731D02*
X55514Y-38781D01*
X55564Y-38406D02*
X55564Y-38731D01*
X61026Y-35631D02*
X61026Y-35019D01*
X61026Y-35019D02*
X61064Y-34981D01*
X61064Y-34981D02*
X62614Y-34981D01*
X62614Y-34981D02*
X62864Y-34731D01*
X62864Y-34731D02*
X62864Y-34281D01*
X63864Y-32631D02*
X63864Y-33731D01*
X63314Y-34281D02*
X62864Y-34281D01*
X63864Y-33731D02*
X63314Y-34281D01*
X60139Y-37706D02*
X59314Y-38531D01*
X61342Y-35631D02*
X61342Y-36403D01*
X56864Y-40631D02*
X56864Y-41181D01*
X57089Y-40406D02*
X56864Y-40631D01*
X57614Y-40406D02*
X57089Y-40406D01*
X59314Y-38706D02*
X57614Y-40406D01*
X59314Y-38531D02*
X59314Y-38706D01*
X60139Y-37606D02*
X60139Y-37706D01*
X61342Y-36403D02*
X60139Y-37606D01*
X61656Y-35631D02*
X61656Y-36439D01*
X59671Y-38523D02*
X59671Y-38698D01*
X60339Y-37856D02*
X59671Y-38523D01*
X60339Y-37756D02*
X60339Y-37856D01*
X61656Y-36439D02*
X60339Y-37756D01*
X60084Y-39411D02*
X60084Y-39904D01*
X60084Y-39904D02*
X60534Y-40355D01*
X60534Y-40355D02*
X62098Y-40355D01*
X62098Y-40355D02*
X62864Y-41121D01*
X62864Y-41121D02*
X62864Y-41181D01*
X59764Y-39411D02*
X59764Y-39881D01*
X61864Y-40731D02*
X61864Y-41181D01*
X61689Y-40556D02*
X61864Y-40731D01*
X60439Y-40556D02*
X61689Y-40556D01*
X59764Y-39881D02*
X60439Y-40556D01*
X59454Y-39411D02*
X59454Y-39854D01*
X59454Y-39854D02*
X60782Y-41181D01*
X60782Y-41181D02*
X60864Y-41181D01*
X60954Y-40155D02*
X61966Y-40155D01*
X60704Y-39411D02*
X60704Y-39904D01*
X60954Y-40155D02*
X60704Y-39904D01*
X64864Y-39631D02*
X64864Y-41181D01*
X64214Y-38981D02*
X64864Y-39631D01*
X63139Y-38981D02*
X64214Y-38981D01*
X61966Y-40155D02*
X63139Y-38981D01*
X64864Y-41181D02*
X64864Y-41121D01*
X61063Y-39954D02*
X61883Y-39954D01*
X65864Y-41181D02*
X65864Y-40331D01*
X61063Y-39954D02*
X61024Y-39916D01*
X61024Y-39916D02*
X61024Y-39411D01*
X64289Y-38756D02*
X65864Y-40331D01*
X63082Y-38756D02*
X64289Y-38756D01*
X61883Y-39954D02*
X63082Y-38756D01*
X61024Y-39016D02*
X61024Y-39411D01*
X60464Y-38456D02*
X61024Y-39016D01*
X60464Y-38231D02*
X60464Y-38456D01*
X61344Y-38911D02*
X60814Y-38381D01*
X61344Y-38911D02*
X61344Y-39411D01*
X60814Y-38381D02*
X60814Y-37831D01*
G54D32*
X57864Y-32631D02*
X57864Y-33681D01*
G54D31*
X61664Y-38731D02*
X61164Y-38231D01*
X61664Y-39411D02*
X61664Y-38731D01*
G54D32*
X58864Y-32631D02*
X58864Y-33681D01*
G54D31*
X49880Y-36573D02*
X50523Y-36573D01*
X50664Y-36431D02*
X51064Y-36431D01*
X50523Y-36573D02*
X50664Y-36431D01*
X49880Y-36888D02*
X50521Y-36888D01*
X50764Y-37131D02*
X51064Y-37131D01*
X50521Y-36888D02*
X50764Y-37131D01*
X55914Y-39781D02*
X55914Y-41131D01*
X55914Y-41131D02*
X55864Y-41181D01*
X54464Y-39781D02*
X54464Y-40281D01*
X54864Y-40681D02*
X54864Y-41181D01*
X54464Y-40281D02*
X54864Y-40681D01*
G54D32*
X47919Y-33954D02*
X48057Y-34092D01*
X48057Y-34092D02*
X48781Y-34092D01*
X47919Y-33678D02*
X47919Y-33954D01*
G54D10*
G36*
X55628Y-34445D02*
X54539Y-34445D01*
X53996Y-34445D01*
X53996Y-34136D01*
X53990Y-34105D01*
X53978Y-34076D01*
X53961Y-34051D01*
X53939Y-34029D01*
X53913Y-34012D01*
X53885Y-34000D01*
X53854Y-33994D01*
X53823Y-33994D01*
X53036Y-33994D01*
X53006Y-34000D01*
X52977Y-34012D01*
X52951Y-34029D01*
X52929Y-34051D01*
X52912Y-34076D01*
X52900Y-34105D01*
X52894Y-34136D01*
X52894Y-34167D01*
X52894Y-34545D01*
X52820Y-34545D01*
X52742Y-34467D01*
X52742Y-34092D01*
X52740Y-34070D01*
X52738Y-34049D01*
X52738Y-34047D01*
X52738Y-34046D01*
X52731Y-34025D01*
X52725Y-34004D01*
X52725Y-34003D01*
X52724Y-34002D01*
X52714Y-33983D01*
X52704Y-33963D01*
X52703Y-33962D01*
X52703Y-33961D01*
X52689Y-33944D01*
X52675Y-33927D01*
X52673Y-33926D01*
X52673Y-33926D01*
X52673Y-33926D01*
X52673Y-33925D01*
X52378Y-33630D01*
X52361Y-33616D01*
X52344Y-33602D01*
X52343Y-33601D01*
X52342Y-33600D01*
X52323Y-33590D01*
X52312Y-33584D01*
X52312Y-32718D01*
X52306Y-32688D01*
X52294Y-32659D01*
X52277Y-32633D01*
X52255Y-32611D01*
X52229Y-32594D01*
X52200Y-32582D01*
X52170Y-32576D01*
X52139Y-32576D01*
X51430Y-32576D01*
X51399Y-32582D01*
X51371Y-32594D01*
X51345Y-32612D01*
X51323Y-32633D01*
X51306Y-32659D01*
X51294Y-32688D01*
X51288Y-32718D01*
X51288Y-32749D01*
X51288Y-33615D01*
X51294Y-33646D01*
X51306Y-33674D01*
X51323Y-33700D01*
X51345Y-33722D01*
X51371Y-33739D01*
X51399Y-33751D01*
X51430Y-33757D01*
X51461Y-33757D01*
X51607Y-33757D01*
X51617Y-33770D01*
X51630Y-33787D01*
X51632Y-33789D01*
X51632Y-33789D01*
X51632Y-33789D01*
X51633Y-33789D01*
X51807Y-33964D01*
X51824Y-33978D01*
X51841Y-33992D01*
X51842Y-33992D01*
X51843Y-33993D01*
X51844Y-33994D01*
X51236Y-33994D01*
X51206Y-34000D01*
X51177Y-34012D01*
X51151Y-34029D01*
X51129Y-34051D01*
X51112Y-34076D01*
X51100Y-34105D01*
X51094Y-34136D01*
X51094Y-34167D01*
X51094Y-34545D01*
X50930Y-34545D01*
X50814Y-34428D01*
X50814Y-33623D01*
X50814Y-33576D01*
X50814Y-33287D01*
X50814Y-33046D01*
X50814Y-32757D01*
X50814Y-32710D01*
X50804Y-32664D01*
X50786Y-32620D01*
X50760Y-32581D01*
X50727Y-32548D01*
X50688Y-32522D01*
X50644Y-32504D01*
X50598Y-32494D01*
X50340Y-32494D01*
X50280Y-32554D01*
X50280Y-33106D01*
X50754Y-33106D01*
X50814Y-33046D01*
X50814Y-33287D01*
X50754Y-33227D01*
X50280Y-33227D01*
X50280Y-33779D01*
X50340Y-33839D01*
X50598Y-33839D01*
X50644Y-33830D01*
X50688Y-33812D01*
X50727Y-33786D01*
X50760Y-33752D01*
X50786Y-33713D01*
X50804Y-33670D01*
X50814Y-33623D01*
X50814Y-34428D01*
X50311Y-33925D01*
X50294Y-33911D01*
X50277Y-33897D01*
X50276Y-33897D01*
X50275Y-33896D01*
X50256Y-33885D01*
X50237Y-33875D01*
X50235Y-33875D01*
X50234Y-33874D01*
X50214Y-33868D01*
X50193Y-33861D01*
X50191Y-33861D01*
X50190Y-33860D01*
X50169Y-33858D01*
X50159Y-33857D01*
X50159Y-33779D01*
X50159Y-33227D01*
X50159Y-33106D01*
X50159Y-32554D01*
X50099Y-32494D01*
X49842Y-32494D01*
X49795Y-32504D01*
X49752Y-32522D01*
X49713Y-32548D01*
X49679Y-32581D01*
X49653Y-32620D01*
X49635Y-32664D01*
X49626Y-32710D01*
X49626Y-32757D01*
X49626Y-33046D01*
X49686Y-33106D01*
X50159Y-33106D01*
X50159Y-33227D01*
X49686Y-33227D01*
X49626Y-33287D01*
X49626Y-33576D01*
X49626Y-33623D01*
X49635Y-33670D01*
X49653Y-33713D01*
X49679Y-33752D01*
X49713Y-33786D01*
X49752Y-33812D01*
X49795Y-33830D01*
X49842Y-33839D01*
X50099Y-33839D01*
X50159Y-33779D01*
X50159Y-33857D01*
X50147Y-33856D01*
X50144Y-33856D01*
X50144Y-33856D01*
X50144Y-33856D01*
X50144Y-33856D01*
X49663Y-33856D01*
X49663Y-33852D01*
X49657Y-33821D01*
X49645Y-33792D01*
X49628Y-33767D01*
X49606Y-33745D01*
X49580Y-33727D01*
X49552Y-33716D01*
X49521Y-33710D01*
X49490Y-33710D01*
X49240Y-33710D01*
X49210Y-33716D01*
X49181Y-33727D01*
X49155Y-33745D01*
X49133Y-33767D01*
X49116Y-33792D01*
X49104Y-33821D01*
X49098Y-33852D01*
X49098Y-33883D01*
X49098Y-34333D01*
X49104Y-34363D01*
X49116Y-34392D01*
X49133Y-34417D01*
X49155Y-34439D01*
X49181Y-34457D01*
X49210Y-34468D01*
X49240Y-34475D01*
X49271Y-34475D01*
X49521Y-34475D01*
X49552Y-34468D01*
X49580Y-34457D01*
X49606Y-34439D01*
X49628Y-34417D01*
X49645Y-34392D01*
X49657Y-34363D01*
X49663Y-34333D01*
X49663Y-34328D01*
X50046Y-34328D01*
X50220Y-34503D01*
X49961Y-34503D01*
X49901Y-34563D01*
X49901Y-35075D01*
X50512Y-35075D01*
X50572Y-35015D01*
X50572Y-34854D01*
X50666Y-34948D01*
X50682Y-34962D01*
X50699Y-34976D01*
X50700Y-34977D01*
X50701Y-34977D01*
X50720Y-34988D01*
X50740Y-34998D01*
X50741Y-34998D01*
X50742Y-34999D01*
X50763Y-35005D01*
X50783Y-35012D01*
X50785Y-35012D01*
X50786Y-35013D01*
X50808Y-35015D01*
X50829Y-35017D01*
X50832Y-35017D01*
X50832Y-35017D01*
X50832Y-35017D01*
X50833Y-35017D01*
X51094Y-35017D01*
X51094Y-35426D01*
X51100Y-35457D01*
X51112Y-35486D01*
X51129Y-35511D01*
X51151Y-35533D01*
X51177Y-35550D01*
X51206Y-35562D01*
X51236Y-35568D01*
X51267Y-35568D01*
X51384Y-35568D01*
X51345Y-35608D01*
X50892Y-35608D01*
X50870Y-35610D01*
X50848Y-35612D01*
X50847Y-35612D01*
X50846Y-35612D01*
X50825Y-35619D01*
X50804Y-35625D01*
X50803Y-35625D01*
X50802Y-35626D01*
X50782Y-35636D01*
X50763Y-35646D01*
X50762Y-35647D01*
X50761Y-35647D01*
X50744Y-35661D01*
X50727Y-35675D01*
X50725Y-35676D01*
X50725Y-35676D01*
X50725Y-35676D01*
X50725Y-35677D01*
X50572Y-35830D01*
X50572Y-35553D01*
X50572Y-35506D01*
X50572Y-35256D01*
X50512Y-35196D01*
X49901Y-35196D01*
X49901Y-35709D01*
X49961Y-35769D01*
X50356Y-35769D01*
X50402Y-35759D01*
X50446Y-35741D01*
X50485Y-35715D01*
X50518Y-35682D01*
X50545Y-35643D01*
X50563Y-35599D01*
X50572Y-35553D01*
X50572Y-35830D01*
X50389Y-36012D01*
X50378Y-36008D01*
X50348Y-36002D01*
X50317Y-36002D01*
X49780Y-36002D01*
X49780Y-35709D01*
X49780Y-35196D01*
X49780Y-35075D01*
X49780Y-34563D01*
X49720Y-34503D01*
X49325Y-34503D01*
X49279Y-34512D01*
X49235Y-34530D01*
X49196Y-34556D01*
X49163Y-34590D01*
X49136Y-34629D01*
X49118Y-34672D01*
X49109Y-34719D01*
X49109Y-34766D01*
X49109Y-35015D01*
X49169Y-35075D01*
X49780Y-35075D01*
X49780Y-35196D01*
X49169Y-35196D01*
X49109Y-35256D01*
X49109Y-35506D01*
X49109Y-35553D01*
X49118Y-35599D01*
X49136Y-35643D01*
X49163Y-35682D01*
X49196Y-35715D01*
X49235Y-35741D01*
X49279Y-35759D01*
X49325Y-35769D01*
X49720Y-35769D01*
X49780Y-35709D01*
X49780Y-36002D01*
X49411Y-36002D01*
X49381Y-36008D01*
X49352Y-36020D01*
X49326Y-36037D01*
X49304Y-36059D01*
X49287Y-36085D01*
X49275Y-36113D01*
X49269Y-36144D01*
X49269Y-36175D01*
X49269Y-36372D01*
X49275Y-36402D01*
X49281Y-36415D01*
X49275Y-36428D01*
X49269Y-36459D01*
X49269Y-36490D01*
X49269Y-36687D01*
X49275Y-36717D01*
X49281Y-36730D01*
X49275Y-36743D01*
X49269Y-36774D01*
X49269Y-36805D01*
X49269Y-37002D01*
X49275Y-37032D01*
X49281Y-37045D01*
X49275Y-37058D01*
X49269Y-37089D01*
X49269Y-37120D01*
X49269Y-37238D01*
X49241Y-37267D01*
X49214Y-37306D01*
X49196Y-37349D01*
X49191Y-37376D01*
X49191Y-35989D01*
X49178Y-35925D01*
X49153Y-35864D01*
X49117Y-35809D01*
X49071Y-35763D01*
X49063Y-35758D01*
X49063Y-34333D01*
X49063Y-34302D01*
X49063Y-33852D01*
X49057Y-33821D01*
X49045Y-33792D01*
X49028Y-33767D01*
X49006Y-33745D01*
X48980Y-33727D01*
X48952Y-33716D01*
X48921Y-33710D01*
X48890Y-33710D01*
X48640Y-33710D01*
X48610Y-33716D01*
X48581Y-33727D01*
X48555Y-33745D01*
X48533Y-33767D01*
X48516Y-33792D01*
X48504Y-33821D01*
X48498Y-33852D01*
X48498Y-33856D01*
X48313Y-33856D01*
X48313Y-33427D01*
X48307Y-33396D01*
X48295Y-33368D01*
X48278Y-33342D01*
X48256Y-33320D01*
X48242Y-33311D01*
X48269Y-33300D01*
X48308Y-33274D01*
X48341Y-33241D01*
X48367Y-33202D01*
X48385Y-33158D01*
X48395Y-33112D01*
X48395Y-32973D01*
X48395Y-32732D01*
X48395Y-32593D01*
X48385Y-32546D01*
X48367Y-32503D01*
X48341Y-32464D01*
X48308Y-32430D01*
X48269Y-32404D01*
X48225Y-32386D01*
X48179Y-32377D01*
X48132Y-32377D01*
X48040Y-32377D01*
X47980Y-32437D01*
X47980Y-32792D01*
X48335Y-32792D01*
X48395Y-32732D01*
X48395Y-32973D01*
X48335Y-32913D01*
X47980Y-32913D01*
X47980Y-32921D01*
X47859Y-32921D01*
X47859Y-32913D01*
X47859Y-32792D01*
X47859Y-32437D01*
X47799Y-32377D01*
X47707Y-32377D01*
X47660Y-32377D01*
X47613Y-32386D01*
X47570Y-32404D01*
X47531Y-32430D01*
X47497Y-32464D01*
X47471Y-32503D01*
X47453Y-32546D01*
X47444Y-32593D01*
X47444Y-32732D01*
X47504Y-32792D01*
X47859Y-32792D01*
X47859Y-32913D01*
X47504Y-32913D01*
X47444Y-32973D01*
X47444Y-33112D01*
X47453Y-33158D01*
X47471Y-33202D01*
X47497Y-33241D01*
X47531Y-33274D01*
X47570Y-33300D01*
X47596Y-33311D01*
X47583Y-33320D01*
X47561Y-33342D01*
X47544Y-33368D01*
X47532Y-33396D01*
X47526Y-33427D01*
X47526Y-33458D01*
X47526Y-33930D01*
X47532Y-33960D01*
X47544Y-33989D01*
X47561Y-34015D01*
X47583Y-34037D01*
X47609Y-34054D01*
X47637Y-34066D01*
X47668Y-34072D01*
X47699Y-34072D01*
X47715Y-34072D01*
X47721Y-34083D01*
X47722Y-34084D01*
X47722Y-34085D01*
X47736Y-34102D01*
X47750Y-34119D01*
X47752Y-34121D01*
X47752Y-34121D01*
X47752Y-34121D01*
X47752Y-34121D01*
X47890Y-34259D01*
X47907Y-34273D01*
X47924Y-34287D01*
X47925Y-34288D01*
X47926Y-34288D01*
X47945Y-34299D01*
X47964Y-34309D01*
X47965Y-34310D01*
X47966Y-34310D01*
X47987Y-34316D01*
X48008Y-34323D01*
X48009Y-34323D01*
X48010Y-34324D01*
X48032Y-34326D01*
X48054Y-34328D01*
X48056Y-34328D01*
X48056Y-34328D01*
X48056Y-34328D01*
X48057Y-34328D01*
X48498Y-34328D01*
X48498Y-34333D01*
X48504Y-34363D01*
X48516Y-34392D01*
X48533Y-34417D01*
X48555Y-34439D01*
X48581Y-34457D01*
X48610Y-34468D01*
X48640Y-34475D01*
X48671Y-34475D01*
X48921Y-34475D01*
X48952Y-34468D01*
X48980Y-34457D01*
X49006Y-34439D01*
X49028Y-34417D01*
X49045Y-34392D01*
X49057Y-34363D01*
X49063Y-34333D01*
X49063Y-35758D01*
X49016Y-35726D01*
X48956Y-35701D01*
X48892Y-35687D01*
X48826Y-35687D01*
X48762Y-35699D01*
X48701Y-35724D01*
X48646Y-35760D01*
X48599Y-35806D01*
X48562Y-35860D01*
X48536Y-35920D01*
X48523Y-35984D01*
X48522Y-36050D01*
X48533Y-36114D01*
X48558Y-36175D01*
X48593Y-36230D01*
X48639Y-36278D01*
X48693Y-36315D01*
X48753Y-36341D01*
X48817Y-36355D01*
X48882Y-36357D01*
X48947Y-36345D01*
X49008Y-36322D01*
X49063Y-36287D01*
X49111Y-36241D01*
X49149Y-36188D01*
X49175Y-36128D01*
X49190Y-36064D01*
X49191Y-35989D01*
X49191Y-37376D01*
X49187Y-37396D01*
X49187Y-37409D01*
X49247Y-37468D01*
X49819Y-37468D01*
X49819Y-37459D01*
X49940Y-37459D01*
X49940Y-37468D01*
X50512Y-37468D01*
X50572Y-37409D01*
X50572Y-37396D01*
X50563Y-37349D01*
X50545Y-37306D01*
X50518Y-37267D01*
X50490Y-37238D01*
X50490Y-37150D01*
X50618Y-37278D01*
X50633Y-37290D01*
X50647Y-37302D01*
X50648Y-37303D01*
X50649Y-37303D01*
X50666Y-37312D01*
X50683Y-37322D01*
X50684Y-37322D01*
X50685Y-37323D01*
X50703Y-37328D01*
X50721Y-37334D01*
X50722Y-37334D01*
X50723Y-37334D01*
X50742Y-37336D01*
X50762Y-37338D01*
X50764Y-37338D01*
X50764Y-37338D01*
X50764Y-37338D01*
X50764Y-37338D01*
X50782Y-37338D01*
X50782Y-37372D01*
X50788Y-37402D01*
X50800Y-37431D01*
X50817Y-37456D01*
X50839Y-37478D01*
X50865Y-37496D01*
X50894Y-37507D01*
X50924Y-37513D01*
X50955Y-37513D01*
X51205Y-37513D01*
X51235Y-37507D01*
X51264Y-37496D01*
X51290Y-37478D01*
X51312Y-37456D01*
X51329Y-37431D01*
X51341Y-37402D01*
X51347Y-37372D01*
X51347Y-37340D01*
X51347Y-36890D01*
X51341Y-36860D01*
X51329Y-36831D01*
X51312Y-36806D01*
X51290Y-36784D01*
X51286Y-36781D01*
X51290Y-36778D01*
X51312Y-36756D01*
X51329Y-36731D01*
X51341Y-36702D01*
X51347Y-36672D01*
X51347Y-36640D01*
X51347Y-36190D01*
X51341Y-36160D01*
X51329Y-36131D01*
X51312Y-36106D01*
X51290Y-36084D01*
X51285Y-36080D01*
X51443Y-36080D01*
X51445Y-36080D01*
X51439Y-36084D01*
X51417Y-36106D01*
X51400Y-36131D01*
X51388Y-36160D01*
X51382Y-36190D01*
X51382Y-36222D01*
X51382Y-36672D01*
X51388Y-36702D01*
X51400Y-36731D01*
X51417Y-36756D01*
X51439Y-36778D01*
X51443Y-36781D01*
X51439Y-36784D01*
X51417Y-36806D01*
X51400Y-36831D01*
X51388Y-36860D01*
X51382Y-36890D01*
X51382Y-36922D01*
X51382Y-37372D01*
X51388Y-37402D01*
X51400Y-37431D01*
X51417Y-37456D01*
X51439Y-37478D01*
X51465Y-37496D01*
X51494Y-37507D01*
X51524Y-37513D01*
X51555Y-37513D01*
X51805Y-37513D01*
X51835Y-37507D01*
X51864Y-37496D01*
X51890Y-37478D01*
X51912Y-37456D01*
X51929Y-37431D01*
X51941Y-37402D01*
X51947Y-37372D01*
X51947Y-37340D01*
X51947Y-37338D01*
X52099Y-37338D01*
X52067Y-37352D01*
X52027Y-37378D01*
X51994Y-37411D01*
X51968Y-37451D01*
X51950Y-37494D01*
X51941Y-37540D01*
X51941Y-37700D01*
X52000Y-37759D01*
X52454Y-37759D01*
X52454Y-37751D01*
X52575Y-37751D01*
X52575Y-37759D01*
X53028Y-37759D01*
X53088Y-37700D01*
X53088Y-37540D01*
X53079Y-37494D01*
X53061Y-37451D01*
X53035Y-37411D01*
X53002Y-37378D01*
X52962Y-37352D01*
X52930Y-37338D01*
X53077Y-37338D01*
X53079Y-37344D01*
X53090Y-37373D01*
X53108Y-37398D01*
X53130Y-37420D01*
X53155Y-37438D01*
X53184Y-37449D01*
X53214Y-37455D01*
X53245Y-37455D01*
X53914Y-37455D01*
X53945Y-37449D01*
X53974Y-37438D01*
X53999Y-37420D01*
X54021Y-37398D01*
X54039Y-37373D01*
X54050Y-37344D01*
X54056Y-37314D01*
X54056Y-37282D01*
X54056Y-37249D01*
X55090Y-37249D01*
X55218Y-37378D01*
X55221Y-37381D01*
X54878Y-37724D01*
X54874Y-37724D01*
X54809Y-37723D01*
X54793Y-37726D01*
X54784Y-37684D01*
X54759Y-37624D01*
X54723Y-37570D01*
X54677Y-37524D01*
X54623Y-37487D01*
X54563Y-37462D01*
X54499Y-37449D01*
X54434Y-37448D01*
X54370Y-37461D01*
X54310Y-37485D01*
X54255Y-37521D01*
X54209Y-37566D01*
X54172Y-37620D01*
X54146Y-37680D01*
X54132Y-37744D01*
X54132Y-37809D01*
X54143Y-37873D01*
X54167Y-37934D01*
X54203Y-37989D01*
X54248Y-38035D01*
X54257Y-38042D01*
X54257Y-38442D01*
X54252Y-38444D01*
X54226Y-38462D01*
X54204Y-38484D01*
X54187Y-38509D01*
X54175Y-38538D01*
X54169Y-38568D01*
X54169Y-38600D01*
X54169Y-38924D01*
X54138Y-38924D01*
X54064Y-38924D01*
X54045Y-38925D01*
X54026Y-38927D01*
X54025Y-38927D01*
X54024Y-38927D01*
X54006Y-38933D01*
X53987Y-38938D01*
X53986Y-38939D01*
X53985Y-38939D01*
X53968Y-38948D01*
X53951Y-38957D01*
X53951Y-38958D01*
X53950Y-38958D01*
X53935Y-38970D01*
X53920Y-38982D01*
X53918Y-38984D01*
X53918Y-38984D01*
X53918Y-38984D01*
X53918Y-38984D01*
X53686Y-39216D01*
X53696Y-39173D01*
X53697Y-39098D01*
X53684Y-39034D01*
X53659Y-38974D01*
X53623Y-38920D01*
X53619Y-38915D01*
X53625Y-38915D01*
X53625Y-38856D01*
X53685Y-38915D01*
X53875Y-38915D01*
X53923Y-38915D01*
X53969Y-38906D01*
X54012Y-38888D01*
X54052Y-38862D01*
X54085Y-38829D01*
X54111Y-38789D01*
X54129Y-38746D01*
X54138Y-38700D01*
X54138Y-38540D01*
X54138Y-38300D01*
X54138Y-38140D01*
X54129Y-38094D01*
X54111Y-38051D01*
X54085Y-38011D01*
X54052Y-37978D01*
X54012Y-37952D01*
X53969Y-37934D01*
X53923Y-37925D01*
X53875Y-37925D01*
X53685Y-37925D01*
X53625Y-37984D01*
X53625Y-38359D01*
X54078Y-38359D01*
X54138Y-38300D01*
X54138Y-38540D01*
X54078Y-38481D01*
X53625Y-38481D01*
X53625Y-38489D01*
X53504Y-38489D01*
X53504Y-38481D01*
X53504Y-38359D01*
X53504Y-37984D01*
X53444Y-37925D01*
X53254Y-37925D01*
X53206Y-37925D01*
X53160Y-37934D01*
X53117Y-37952D01*
X53088Y-37971D01*
X53088Y-37940D01*
X53028Y-37881D01*
X52575Y-37881D01*
X52575Y-38256D01*
X52635Y-38315D01*
X52825Y-38315D01*
X52873Y-38315D01*
X52919Y-38306D01*
X52962Y-38288D01*
X52991Y-38269D01*
X52991Y-38300D01*
X53050Y-38359D01*
X53504Y-38359D01*
X53504Y-38481D01*
X53050Y-38481D01*
X52991Y-38540D01*
X52991Y-38700D01*
X53000Y-38746D01*
X53018Y-38789D01*
X53044Y-38829D01*
X53077Y-38862D01*
X53117Y-38888D01*
X53131Y-38894D01*
X53109Y-38916D01*
X53072Y-38970D01*
X53046Y-39030D01*
X53037Y-39074D01*
X53020Y-39074D01*
X53020Y-39068D01*
X53014Y-39038D01*
X53002Y-39009D01*
X52985Y-38984D01*
X52963Y-38962D01*
X52937Y-38944D01*
X52908Y-38933D01*
X52878Y-38927D01*
X52847Y-38927D01*
X52493Y-38927D01*
X52463Y-38933D01*
X52458Y-38934D01*
X52456Y-38931D01*
X52454Y-38929D01*
X52454Y-38256D01*
X52454Y-37881D01*
X52000Y-37881D01*
X51941Y-37940D01*
X51941Y-38100D01*
X51950Y-38146D01*
X51968Y-38189D01*
X51994Y-38229D01*
X52027Y-38262D01*
X52067Y-38288D01*
X52110Y-38306D01*
X52156Y-38315D01*
X52204Y-38315D01*
X52394Y-38315D01*
X52454Y-38256D01*
X52454Y-38929D01*
X52423Y-38898D01*
X52384Y-38872D01*
X52340Y-38854D01*
X52294Y-38845D01*
X52214Y-38845D01*
X52154Y-38904D01*
X52154Y-39220D01*
X52162Y-39220D01*
X52162Y-39342D01*
X52154Y-39342D01*
X52154Y-39658D01*
X52214Y-39717D01*
X52260Y-39717D01*
X52033Y-39944D01*
X52033Y-39658D01*
X52033Y-39342D01*
X52033Y-39220D01*
X52033Y-38904D01*
X51973Y-38845D01*
X51893Y-38845D01*
X51847Y-38854D01*
X51803Y-38872D01*
X51764Y-38898D01*
X51726Y-38872D01*
X51682Y-38854D01*
X51636Y-38845D01*
X51556Y-38845D01*
X51496Y-38904D01*
X51496Y-39220D01*
X51737Y-39220D01*
X51792Y-39220D01*
X52033Y-39220D01*
X52033Y-39342D01*
X51792Y-39342D01*
X51737Y-39342D01*
X51496Y-39342D01*
X51496Y-39658D01*
X51556Y-39717D01*
X51636Y-39717D01*
X51682Y-39708D01*
X51726Y-39690D01*
X51764Y-39664D01*
X51803Y-39690D01*
X51847Y-39708D01*
X51893Y-39717D01*
X51973Y-39717D01*
X52033Y-39658D01*
X52033Y-39944D01*
X51554Y-40424D01*
X51422Y-40424D01*
X51422Y-38348D01*
X51409Y-38284D01*
X51384Y-38224D01*
X51348Y-38170D01*
X51302Y-38124D01*
X51248Y-38087D01*
X51188Y-38062D01*
X51124Y-38049D01*
X51059Y-38048D01*
X50995Y-38061D01*
X50935Y-38085D01*
X50880Y-38121D01*
X50834Y-38166D01*
X50797Y-38220D01*
X50771Y-38280D01*
X50757Y-38344D01*
X50757Y-38409D01*
X50758Y-38419D01*
X50697Y-38480D01*
X50685Y-38495D01*
X50672Y-38510D01*
X50672Y-38511D01*
X50671Y-38512D01*
X50662Y-38528D01*
X50653Y-38545D01*
X50652Y-38546D01*
X50652Y-38547D01*
X50646Y-38566D01*
X50641Y-38584D01*
X50640Y-38585D01*
X50640Y-38586D01*
X50638Y-38605D01*
X50636Y-38624D01*
X50636Y-38626D01*
X50636Y-38626D01*
X50636Y-38626D01*
X50636Y-38627D01*
X50636Y-38929D01*
X50621Y-38933D01*
X50592Y-38944D01*
X50572Y-38958D01*
X50572Y-37640D01*
X50572Y-37627D01*
X50512Y-37567D01*
X49940Y-37567D01*
X49940Y-37796D01*
X50000Y-37856D01*
X50356Y-37856D01*
X50402Y-37846D01*
X50446Y-37828D01*
X50485Y-37802D01*
X50518Y-37769D01*
X50545Y-37730D01*
X50563Y-37686D01*
X50572Y-37640D01*
X50572Y-38958D01*
X50566Y-38962D01*
X50544Y-38984D01*
X50527Y-39009D01*
X50515Y-39038D01*
X50509Y-39068D01*
X50509Y-39100D01*
X50509Y-39143D01*
X50490Y-39162D01*
X50490Y-39049D01*
X50490Y-39018D01*
X50490Y-38231D01*
X50484Y-38200D01*
X50472Y-38172D01*
X50455Y-38146D01*
X50433Y-38124D01*
X50407Y-38107D01*
X50378Y-38095D01*
X50348Y-38089D01*
X50317Y-38089D01*
X49819Y-38089D01*
X49819Y-37796D01*
X49819Y-37567D01*
X49247Y-37567D01*
X49187Y-37627D01*
X49187Y-37640D01*
X49196Y-37686D01*
X49214Y-37730D01*
X49241Y-37769D01*
X49274Y-37802D01*
X49313Y-37828D01*
X49357Y-37846D01*
X49403Y-37856D01*
X49759Y-37856D01*
X49819Y-37796D01*
X49819Y-38089D01*
X49333Y-38089D01*
X49303Y-38095D01*
X49274Y-38107D01*
X49248Y-38124D01*
X49226Y-38146D01*
X49209Y-38172D01*
X49197Y-38200D01*
X49191Y-38231D01*
X49191Y-38262D01*
X49191Y-39049D01*
X49197Y-39079D01*
X49209Y-39108D01*
X49226Y-39134D01*
X49248Y-39156D01*
X49274Y-39173D01*
X49303Y-39185D01*
X49333Y-39191D01*
X49364Y-39191D01*
X50348Y-39191D01*
X50378Y-39185D01*
X50407Y-39173D01*
X50433Y-39156D01*
X50455Y-39134D01*
X50472Y-39108D01*
X50484Y-39079D01*
X50490Y-39049D01*
X50490Y-39162D01*
X50329Y-39324D01*
X49214Y-39324D01*
X49195Y-39325D01*
X49191Y-39326D01*
X49191Y-37721D01*
X49178Y-37657D01*
X49153Y-37596D01*
X49117Y-37541D01*
X49071Y-37495D01*
X49016Y-37458D01*
X48956Y-37433D01*
X48892Y-37419D01*
X48826Y-37419D01*
X48762Y-37431D01*
X48701Y-37456D01*
X48646Y-37492D01*
X48599Y-37538D01*
X48562Y-37592D01*
X48536Y-37652D01*
X48523Y-37716D01*
X48522Y-37782D01*
X48533Y-37846D01*
X48558Y-37907D01*
X48593Y-37962D01*
X48639Y-38010D01*
X48693Y-38047D01*
X48753Y-38073D01*
X48817Y-38087D01*
X48882Y-38089D01*
X48947Y-38077D01*
X49008Y-38054D01*
X49063Y-38019D01*
X49111Y-37973D01*
X49149Y-37920D01*
X49175Y-37860D01*
X49190Y-37796D01*
X49191Y-37721D01*
X49191Y-39326D01*
X49176Y-39327D01*
X49175Y-39327D01*
X49174Y-39327D01*
X49156Y-39333D01*
X49137Y-39338D01*
X49136Y-39339D01*
X49135Y-39339D01*
X49118Y-39348D01*
X49101Y-39357D01*
X49101Y-39358D01*
X49100Y-39358D01*
X49085Y-39370D01*
X49070Y-39382D01*
X49068Y-39384D01*
X49068Y-39384D01*
X49068Y-39384D01*
X49068Y-39384D01*
X48465Y-39987D01*
X48450Y-39988D01*
X48347Y-40018D01*
X48252Y-40068D01*
X48168Y-40136D01*
X48099Y-40218D01*
X48047Y-40312D01*
X48015Y-40415D01*
X48003Y-40522D01*
X48002Y-40529D01*
X48002Y-40733D01*
X48013Y-40840D01*
X48044Y-40943D01*
X48095Y-41038D01*
X48163Y-41121D01*
X48245Y-41189D01*
X48340Y-41241D01*
X48443Y-41272D01*
X48550Y-41284D01*
X48657Y-41274D01*
X48760Y-41243D01*
X48855Y-41194D01*
X48939Y-41126D01*
X49008Y-41044D01*
X49060Y-40950D01*
X49092Y-40847D01*
X49104Y-40740D01*
X49104Y-40733D01*
X49104Y-40529D01*
X49094Y-40422D01*
X49063Y-40319D01*
X49012Y-40224D01*
X48944Y-40141D01*
X48919Y-40120D01*
X49300Y-39738D01*
X50414Y-39738D01*
X50434Y-39737D01*
X50453Y-39735D01*
X50454Y-39735D01*
X50455Y-39735D01*
X50473Y-39729D01*
X50492Y-39724D01*
X50492Y-39723D01*
X50494Y-39723D01*
X50510Y-39714D01*
X50527Y-39705D01*
X50528Y-39704D01*
X50529Y-39704D01*
X50544Y-39692D01*
X50559Y-39680D01*
X50561Y-39678D01*
X50561Y-39678D01*
X50561Y-39678D01*
X50561Y-39678D01*
X50613Y-39626D01*
X50621Y-39629D01*
X50651Y-39635D01*
X50682Y-39635D01*
X51036Y-39635D01*
X51066Y-39629D01*
X51071Y-39628D01*
X51073Y-39631D01*
X51106Y-39664D01*
X51145Y-39690D01*
X51189Y-39708D01*
X51235Y-39717D01*
X51315Y-39717D01*
X51375Y-39658D01*
X51375Y-39342D01*
X51367Y-39342D01*
X51367Y-39220D01*
X51375Y-39220D01*
X51375Y-38904D01*
X51315Y-38845D01*
X51235Y-38845D01*
X51189Y-38854D01*
X51145Y-38872D01*
X51106Y-38898D01*
X51073Y-38931D01*
X51071Y-38934D01*
X51066Y-38933D01*
X51051Y-38929D01*
X51051Y-38713D01*
X51051Y-38713D01*
X51115Y-38714D01*
X51179Y-38703D01*
X51240Y-38679D01*
X51295Y-38644D01*
X51342Y-38599D01*
X51380Y-38546D01*
X51406Y-38486D01*
X51421Y-38423D01*
X51422Y-38348D01*
X51422Y-40424D01*
X51016Y-40424D01*
X51016Y-40422D01*
X50985Y-40319D01*
X50934Y-40224D01*
X50866Y-40141D01*
X50784Y-40073D01*
X50689Y-40021D01*
X50586Y-39990D01*
X50479Y-39978D01*
X50372Y-39988D01*
X50269Y-40018D01*
X50174Y-40068D01*
X50090Y-40136D01*
X50021Y-40218D01*
X49969Y-40312D01*
X49937Y-40415D01*
X49925Y-40522D01*
X49924Y-40529D01*
X49924Y-40733D01*
X49935Y-40840D01*
X49966Y-40943D01*
X50017Y-41038D01*
X50085Y-41121D01*
X50167Y-41189D01*
X50262Y-41241D01*
X50365Y-41272D01*
X50472Y-41284D01*
X50579Y-41274D01*
X50682Y-41243D01*
X50777Y-41194D01*
X50861Y-41126D01*
X50930Y-41044D01*
X50982Y-40950D01*
X51014Y-40847D01*
X51015Y-40838D01*
X51639Y-40838D01*
X51659Y-40837D01*
X51678Y-40835D01*
X51679Y-40835D01*
X51680Y-40835D01*
X51698Y-40829D01*
X51717Y-40824D01*
X51717Y-40823D01*
X51719Y-40823D01*
X51735Y-40814D01*
X51752Y-40805D01*
X51753Y-40804D01*
X51754Y-40804D01*
X51769Y-40792D01*
X51784Y-40780D01*
X51786Y-40778D01*
X51786Y-40778D01*
X51786Y-40778D01*
X51786Y-40778D01*
X52832Y-39732D01*
X52844Y-39717D01*
X52857Y-39702D01*
X52857Y-39701D01*
X52858Y-39700D01*
X52867Y-39684D01*
X52876Y-39667D01*
X52876Y-39666D01*
X52877Y-39665D01*
X52883Y-39646D01*
X52887Y-39634D01*
X52908Y-39629D01*
X52937Y-39618D01*
X52963Y-39600D01*
X52985Y-39578D01*
X53002Y-39553D01*
X53014Y-39524D01*
X53020Y-39494D01*
X53020Y-39488D01*
X53214Y-39488D01*
X53234Y-39487D01*
X53253Y-39485D01*
X53254Y-39485D01*
X53255Y-39485D01*
X53273Y-39479D01*
X53292Y-39474D01*
X53292Y-39473D01*
X53294Y-39473D01*
X53310Y-39464D01*
X53316Y-39461D01*
X53325Y-39463D01*
X53390Y-39464D01*
X53448Y-39454D01*
X52718Y-40184D01*
X52706Y-40199D01*
X52693Y-40214D01*
X52693Y-40215D01*
X52692Y-40216D01*
X52683Y-40232D01*
X52674Y-40249D01*
X52673Y-40250D01*
X52673Y-40251D01*
X52667Y-40270D01*
X52662Y-40288D01*
X52661Y-40289D01*
X52661Y-40290D01*
X52659Y-40309D01*
X52657Y-40328D01*
X52657Y-40330D01*
X52657Y-40330D01*
X52657Y-40330D01*
X52657Y-40331D01*
X52657Y-40668D01*
X52592Y-40702D01*
X52516Y-40763D01*
X52454Y-40837D01*
X52407Y-40922D01*
X52378Y-41015D01*
X52367Y-41111D01*
X52367Y-41118D01*
X52367Y-41244D01*
X52376Y-41340D01*
X52405Y-41433D01*
X52450Y-41519D01*
X52511Y-41594D01*
X52569Y-41642D01*
X47063Y-41642D01*
X47063Y-39135D01*
X47083Y-39156D01*
X47109Y-39173D01*
X47138Y-39185D01*
X47168Y-39191D01*
X47199Y-39191D01*
X48183Y-39191D01*
X48213Y-39185D01*
X48242Y-39173D01*
X48268Y-39156D01*
X48290Y-39134D01*
X48307Y-39108D01*
X48319Y-39079D01*
X48325Y-39049D01*
X48325Y-39018D01*
X48325Y-38231D01*
X48319Y-38200D01*
X48307Y-38172D01*
X48290Y-38146D01*
X48268Y-38124D01*
X48242Y-38107D01*
X48213Y-38095D01*
X48183Y-38089D01*
X48152Y-38089D01*
X47168Y-38089D01*
X47138Y-38095D01*
X47109Y-38107D01*
X47083Y-38124D01*
X47063Y-38144D01*
X47063Y-35631D01*
X47083Y-35652D01*
X47109Y-35669D01*
X47138Y-35681D01*
X47168Y-35687D01*
X47199Y-35687D01*
X48183Y-35687D01*
X48213Y-35681D01*
X48242Y-35669D01*
X48268Y-35652D01*
X48290Y-35630D01*
X48307Y-35604D01*
X48319Y-35575D01*
X48325Y-35545D01*
X48325Y-35514D01*
X48325Y-34727D01*
X48319Y-34696D01*
X48307Y-34668D01*
X48290Y-34642D01*
X48268Y-34620D01*
X48242Y-34603D01*
X48213Y-34591D01*
X48183Y-34585D01*
X48152Y-34585D01*
X47168Y-34585D01*
X47138Y-34591D01*
X47109Y-34603D01*
X47083Y-34620D01*
X47063Y-34640D01*
X47063Y-32220D01*
X52367Y-32220D01*
X52367Y-32247D01*
X52367Y-33047D01*
X52373Y-33077D01*
X52385Y-33106D01*
X52402Y-33131D01*
X52424Y-33153D01*
X52450Y-33171D01*
X52479Y-33182D01*
X52509Y-33188D01*
X52540Y-33188D01*
X53220Y-33188D01*
X53250Y-33182D01*
X53279Y-33171D01*
X53305Y-33153D01*
X53327Y-33131D01*
X53344Y-33106D01*
X53356Y-33077D01*
X53362Y-33047D01*
X53362Y-33015D01*
X53362Y-32220D01*
X53510Y-32220D01*
X53454Y-32287D01*
X53407Y-32372D01*
X53378Y-32465D01*
X53367Y-32561D01*
X53367Y-32568D01*
X53367Y-32694D01*
X53376Y-32790D01*
X53405Y-32883D01*
X53450Y-32969D01*
X53511Y-33044D01*
X53586Y-33106D01*
X53672Y-33152D01*
X53764Y-33181D01*
X53861Y-33191D01*
X53958Y-33182D01*
X54051Y-33155D01*
X54137Y-33110D01*
X54213Y-33049D01*
X54275Y-32975D01*
X54321Y-32891D01*
X54321Y-32892D01*
X54371Y-32994D01*
X54439Y-33085D01*
X54524Y-33160D01*
X54622Y-33217D01*
X54714Y-33251D01*
X54804Y-33207D01*
X54804Y-32692D01*
X54796Y-32692D01*
X54796Y-32570D01*
X54804Y-32570D01*
X54804Y-32562D01*
X54925Y-32562D01*
X54925Y-32570D01*
X54933Y-32570D01*
X54933Y-32692D01*
X54925Y-32692D01*
X54925Y-33207D01*
X55014Y-33251D01*
X55106Y-33217D01*
X55204Y-33160D01*
X55289Y-33085D01*
X55358Y-32994D01*
X55408Y-32892D01*
X55408Y-32890D01*
X55450Y-32969D01*
X55511Y-33044D01*
X55586Y-33106D01*
X55618Y-33124D01*
X55509Y-33124D01*
X55479Y-33130D01*
X55450Y-33141D01*
X55424Y-33159D01*
X55402Y-33181D01*
X55385Y-33206D01*
X55373Y-33235D01*
X55367Y-33265D01*
X55367Y-33297D01*
X55367Y-34097D01*
X55373Y-34127D01*
X55385Y-34156D01*
X55402Y-34181D01*
X55424Y-34203D01*
X55450Y-34221D01*
X55479Y-34232D01*
X55509Y-34238D01*
X55540Y-34238D01*
X55628Y-34238D01*
X55628Y-34445D01*
X55628Y-34445D01*
G37*
G54D33*
X55628Y-34445D02*
X54539Y-34445D01*
X53996Y-34445D01*
X53996Y-34136D01*
X53990Y-34105D01*
X53978Y-34076D01*
X53961Y-34051D01*
X53939Y-34029D01*
X53913Y-34012D01*
X53885Y-34000D01*
X53854Y-33994D01*
X53823Y-33994D01*
X53036Y-33994D01*
X53006Y-34000D01*
X52977Y-34012D01*
X52951Y-34029D01*
X52929Y-34051D01*
X52912Y-34076D01*
X52900Y-34105D01*
X52894Y-34136D01*
X52894Y-34167D01*
X52894Y-34545D01*
X52820Y-34545D01*
X52742Y-34467D01*
X52742Y-34092D01*
X52740Y-34070D01*
X52738Y-34049D01*
X52738Y-34047D01*
X52738Y-34046D01*
X52731Y-34025D01*
X52725Y-34004D01*
X52725Y-34003D01*
X52724Y-34002D01*
X52714Y-33983D01*
X52704Y-33963D01*
X52703Y-33962D01*
X52703Y-33961D01*
X52689Y-33944D01*
X52675Y-33927D01*
X52673Y-33926D01*
X52673Y-33926D01*
X52673Y-33926D01*
X52673Y-33925D01*
X52378Y-33630D01*
X52361Y-33616D01*
X52344Y-33602D01*
X52343Y-33601D01*
X52342Y-33600D01*
X52323Y-33590D01*
X52312Y-33584D01*
X52312Y-32718D01*
X52306Y-32688D01*
X52294Y-32659D01*
X52277Y-32633D01*
X52255Y-32611D01*
X52229Y-32594D01*
X52200Y-32582D01*
X52170Y-32576D01*
X52139Y-32576D01*
X51430Y-32576D01*
X51399Y-32582D01*
X51371Y-32594D01*
X51345Y-32612D01*
X51323Y-32633D01*
X51306Y-32659D01*
X51294Y-32688D01*
X51288Y-32718D01*
X51288Y-32749D01*
X51288Y-33615D01*
X51294Y-33646D01*
X51306Y-33674D01*
X51323Y-33700D01*
X51345Y-33722D01*
X51371Y-33739D01*
X51399Y-33751D01*
X51430Y-33757D01*
X51461Y-33757D01*
X51607Y-33757D01*
X51617Y-33770D01*
X51630Y-33787D01*
X51632Y-33789D01*
X51632Y-33789D01*
X51632Y-33789D01*
X51633Y-33789D01*
X51807Y-33964D01*
X51824Y-33978D01*
X51841Y-33992D01*
X51842Y-33992D01*
X51843Y-33993D01*
X51844Y-33994D01*
X51236Y-33994D01*
X51206Y-34000D01*
X51177Y-34012D01*
X51151Y-34029D01*
X51129Y-34051D01*
X51112Y-34076D01*
X51100Y-34105D01*
X51094Y-34136D01*
X51094Y-34167D01*
X51094Y-34545D01*
X50930Y-34545D01*
X50814Y-34428D01*
X50814Y-33623D01*
X50814Y-33576D01*
X50814Y-33287D01*
X50814Y-33046D01*
X50814Y-32757D01*
X50814Y-32710D01*
X50804Y-32664D01*
X50786Y-32620D01*
X50760Y-32581D01*
X50727Y-32548D01*
X50688Y-32522D01*
X50644Y-32504D01*
X50598Y-32494D01*
X50340Y-32494D01*
X50280Y-32554D01*
X50280Y-33106D01*
X50754Y-33106D01*
X50814Y-33046D01*
X50814Y-33287D01*
X50754Y-33227D01*
X50280Y-33227D01*
X50280Y-33779D01*
X50340Y-33839D01*
X50598Y-33839D01*
X50644Y-33830D01*
X50688Y-33812D01*
X50727Y-33786D01*
X50760Y-33752D01*
X50786Y-33713D01*
X50804Y-33670D01*
X50814Y-33623D01*
X50814Y-34428D01*
X50311Y-33925D01*
X50294Y-33911D01*
X50277Y-33897D01*
X50276Y-33897D01*
X50275Y-33896D01*
X50256Y-33885D01*
X50237Y-33875D01*
X50235Y-33875D01*
X50234Y-33874D01*
X50214Y-33868D01*
X50193Y-33861D01*
X50191Y-33861D01*
X50190Y-33860D01*
X50169Y-33858D01*
X50159Y-33857D01*
X50159Y-33779D01*
X50159Y-33227D01*
X50159Y-33106D01*
X50159Y-32554D01*
X50099Y-32494D01*
X49842Y-32494D01*
X49795Y-32504D01*
X49752Y-32522D01*
X49713Y-32548D01*
X49679Y-32581D01*
X49653Y-32620D01*
X49635Y-32664D01*
X49626Y-32710D01*
X49626Y-32757D01*
X49626Y-33046D01*
X49686Y-33106D01*
X50159Y-33106D01*
X50159Y-33227D01*
X49686Y-33227D01*
X49626Y-33287D01*
X49626Y-33576D01*
X49626Y-33623D01*
X49635Y-33670D01*
X49653Y-33713D01*
X49679Y-33752D01*
X49713Y-33786D01*
X49752Y-33812D01*
X49795Y-33830D01*
X49842Y-33839D01*
X50099Y-33839D01*
X50159Y-33779D01*
X50159Y-33857D01*
X50147Y-33856D01*
X50144Y-33856D01*
X50144Y-33856D01*
X50144Y-33856D01*
X50144Y-33856D01*
X49663Y-33856D01*
X49663Y-33852D01*
X49657Y-33821D01*
X49645Y-33792D01*
X49628Y-33767D01*
X49606Y-33745D01*
X49580Y-33727D01*
X49552Y-33716D01*
X49521Y-33710D01*
X49490Y-33710D01*
X49240Y-33710D01*
X49210Y-33716D01*
X49181Y-33727D01*
X49155Y-33745D01*
X49133Y-33767D01*
X49116Y-33792D01*
X49104Y-33821D01*
X49098Y-33852D01*
X49098Y-33883D01*
X49098Y-34333D01*
X49104Y-34363D01*
X49116Y-34392D01*
X49133Y-34417D01*
X49155Y-34439D01*
X49181Y-34457D01*
X49210Y-34468D01*
X49240Y-34475D01*
X49271Y-34475D01*
X49521Y-34475D01*
X49552Y-34468D01*
X49580Y-34457D01*
X49606Y-34439D01*
X49628Y-34417D01*
X49645Y-34392D01*
X49657Y-34363D01*
X49663Y-34333D01*
X49663Y-34328D01*
X50046Y-34328D01*
X50220Y-34503D01*
X49961Y-34503D01*
X49901Y-34563D01*
X49901Y-35075D01*
X50512Y-35075D01*
X50572Y-35015D01*
X50572Y-34854D01*
X50666Y-34948D01*
X50682Y-34962D01*
X50699Y-34976D01*
X50700Y-34977D01*
X50701Y-34977D01*
X50720Y-34988D01*
X50740Y-34998D01*
X50741Y-34998D01*
X50742Y-34999D01*
X50763Y-35005D01*
X50783Y-35012D01*
X50785Y-35012D01*
X50786Y-35013D01*
X50808Y-35015D01*
X50829Y-35017D01*
X50832Y-35017D01*
X50832Y-35017D01*
X50832Y-35017D01*
X50833Y-35017D01*
X51094Y-35017D01*
X51094Y-35426D01*
X51100Y-35457D01*
X51112Y-35486D01*
X51129Y-35511D01*
X51151Y-35533D01*
X51177Y-35550D01*
X51206Y-35562D01*
X51236Y-35568D01*
X51267Y-35568D01*
X51384Y-35568D01*
X51345Y-35608D01*
X50892Y-35608D01*
X50870Y-35610D01*
X50848Y-35612D01*
X50847Y-35612D01*
X50846Y-35612D01*
X50825Y-35619D01*
X50804Y-35625D01*
X50803Y-35625D01*
X50802Y-35626D01*
X50782Y-35636D01*
X50763Y-35646D01*
X50762Y-35647D01*
X50761Y-35647D01*
X50744Y-35661D01*
X50727Y-35675D01*
X50725Y-35676D01*
X50725Y-35676D01*
X50725Y-35676D01*
X50725Y-35677D01*
X50572Y-35830D01*
X50572Y-35553D01*
X50572Y-35506D01*
X50572Y-35256D01*
X50512Y-35196D01*
X49901Y-35196D01*
X49901Y-35709D01*
X49961Y-35769D01*
X50356Y-35769D01*
X50402Y-35759D01*
X50446Y-35741D01*
X50485Y-35715D01*
X50518Y-35682D01*
X50545Y-35643D01*
X50563Y-35599D01*
X50572Y-35553D01*
X50572Y-35830D01*
X50389Y-36012D01*
X50378Y-36008D01*
X50348Y-36002D01*
X50317Y-36002D01*
X49780Y-36002D01*
X49780Y-35709D01*
X49780Y-35196D01*
X49780Y-35075D01*
X49780Y-34563D01*
X49720Y-34503D01*
X49325Y-34503D01*
X49279Y-34512D01*
X49235Y-34530D01*
X49196Y-34556D01*
X49163Y-34590D01*
X49136Y-34629D01*
X49118Y-34672D01*
X49109Y-34719D01*
X49109Y-34766D01*
X49109Y-35015D01*
X49169Y-35075D01*
X49780Y-35075D01*
X49780Y-35196D01*
X49169Y-35196D01*
X49109Y-35256D01*
X49109Y-35506D01*
X49109Y-35553D01*
X49118Y-35599D01*
X49136Y-35643D01*
X49163Y-35682D01*
X49196Y-35715D01*
X49235Y-35741D01*
X49279Y-35759D01*
X49325Y-35769D01*
X49720Y-35769D01*
X49780Y-35709D01*
X49780Y-36002D01*
X49411Y-36002D01*
X49381Y-36008D01*
X49352Y-36020D01*
X49326Y-36037D01*
X49304Y-36059D01*
X49287Y-36085D01*
X49275Y-36113D01*
X49269Y-36144D01*
X49269Y-36175D01*
X49269Y-36372D01*
X49275Y-36402D01*
X49281Y-36415D01*
X49275Y-36428D01*
X49269Y-36459D01*
X49269Y-36490D01*
X49269Y-36687D01*
X49275Y-36717D01*
X49281Y-36730D01*
X49275Y-36743D01*
X49269Y-36774D01*
X49269Y-36805D01*
X49269Y-37002D01*
X49275Y-37032D01*
X49281Y-37045D01*
X49275Y-37058D01*
X49269Y-37089D01*
X49269Y-37120D01*
X49269Y-37238D01*
X49241Y-37267D01*
X49214Y-37306D01*
X49196Y-37349D01*
X49191Y-37376D01*
X49191Y-35989D01*
X49178Y-35925D01*
X49153Y-35864D01*
X49117Y-35809D01*
X49071Y-35763D01*
X49063Y-35758D01*
X49063Y-34333D01*
X49063Y-34302D01*
X49063Y-33852D01*
X49057Y-33821D01*
X49045Y-33792D01*
X49028Y-33767D01*
X49006Y-33745D01*
X48980Y-33727D01*
X48952Y-33716D01*
X48921Y-33710D01*
X48890Y-33710D01*
X48640Y-33710D01*
X48610Y-33716D01*
X48581Y-33727D01*
X48555Y-33745D01*
X48533Y-33767D01*
X48516Y-33792D01*
X48504Y-33821D01*
X48498Y-33852D01*
X48498Y-33856D01*
X48313Y-33856D01*
X48313Y-33427D01*
X48307Y-33396D01*
X48295Y-33368D01*
X48278Y-33342D01*
X48256Y-33320D01*
X48242Y-33311D01*
X48269Y-33300D01*
X48308Y-33274D01*
X48341Y-33241D01*
X48367Y-33202D01*
X48385Y-33158D01*
X48395Y-33112D01*
X48395Y-32973D01*
X48395Y-32732D01*
X48395Y-32593D01*
X48385Y-32546D01*
X48367Y-32503D01*
X48341Y-32464D01*
X48308Y-32430D01*
X48269Y-32404D01*
X48225Y-32386D01*
X48179Y-32377D01*
X48132Y-32377D01*
X48040Y-32377D01*
X47980Y-32437D01*
X47980Y-32792D01*
X48335Y-32792D01*
X48395Y-32732D01*
X48395Y-32973D01*
X48335Y-32913D01*
X47980Y-32913D01*
X47980Y-32921D01*
X47859Y-32921D01*
X47859Y-32913D01*
X47859Y-32792D01*
X47859Y-32437D01*
X47799Y-32377D01*
X47707Y-32377D01*
X47660Y-32377D01*
X47613Y-32386D01*
X47570Y-32404D01*
X47531Y-32430D01*
X47497Y-32464D01*
X47471Y-32503D01*
X47453Y-32546D01*
X47444Y-32593D01*
X47444Y-32732D01*
X47504Y-32792D01*
X47859Y-32792D01*
X47859Y-32913D01*
X47504Y-32913D01*
X47444Y-32973D01*
X47444Y-33112D01*
X47453Y-33158D01*
X47471Y-33202D01*
X47497Y-33241D01*
X47531Y-33274D01*
X47570Y-33300D01*
X47596Y-33311D01*
X47583Y-33320D01*
X47561Y-33342D01*
X47544Y-33368D01*
X47532Y-33396D01*
X47526Y-33427D01*
X47526Y-33458D01*
X47526Y-33930D01*
X47532Y-33960D01*
X47544Y-33989D01*
X47561Y-34015D01*
X47583Y-34037D01*
X47609Y-34054D01*
X47637Y-34066D01*
X47668Y-34072D01*
X47699Y-34072D01*
X47715Y-34072D01*
X47721Y-34083D01*
X47722Y-34084D01*
X47722Y-34085D01*
X47736Y-34102D01*
X47750Y-34119D01*
X47752Y-34121D01*
X47752Y-34121D01*
X47752Y-34121D01*
X47752Y-34121D01*
X47890Y-34259D01*
X47907Y-34273D01*
X47924Y-34287D01*
X47925Y-34288D01*
X47926Y-34288D01*
X47945Y-34299D01*
X47964Y-34309D01*
X47965Y-34310D01*
X47966Y-34310D01*
X47987Y-34316D01*
X48008Y-34323D01*
X48009Y-34323D01*
X48010Y-34324D01*
X48032Y-34326D01*
X48054Y-34328D01*
X48056Y-34328D01*
X48056Y-34328D01*
X48056Y-34328D01*
X48057Y-34328D01*
X48498Y-34328D01*
X48498Y-34333D01*
X48504Y-34363D01*
X48516Y-34392D01*
X48533Y-34417D01*
X48555Y-34439D01*
X48581Y-34457D01*
X48610Y-34468D01*
X48640Y-34475D01*
X48671Y-34475D01*
X48921Y-34475D01*
X48952Y-34468D01*
X48980Y-34457D01*
X49006Y-34439D01*
X49028Y-34417D01*
X49045Y-34392D01*
X49057Y-34363D01*
X49063Y-34333D01*
X49063Y-35758D01*
X49016Y-35726D01*
X48956Y-35701D01*
X48892Y-35687D01*
X48826Y-35687D01*
X48762Y-35699D01*
X48701Y-35724D01*
X48646Y-35760D01*
X48599Y-35806D01*
X48562Y-35860D01*
X48536Y-35920D01*
X48523Y-35984D01*
X48522Y-36050D01*
X48533Y-36114D01*
X48558Y-36175D01*
X48593Y-36230D01*
X48639Y-36278D01*
X48693Y-36315D01*
X48753Y-36341D01*
X48817Y-36355D01*
X48882Y-36357D01*
X48947Y-36345D01*
X49008Y-36322D01*
X49063Y-36287D01*
X49111Y-36241D01*
X49149Y-36188D01*
X49175Y-36128D01*
X49190Y-36064D01*
X49191Y-35989D01*
X49191Y-37376D01*
X49187Y-37396D01*
X49187Y-37409D01*
X49247Y-37468D01*
X49819Y-37468D01*
X49819Y-37459D01*
X49940Y-37459D01*
X49940Y-37468D01*
X50512Y-37468D01*
X50572Y-37409D01*
X50572Y-37396D01*
X50563Y-37349D01*
X50545Y-37306D01*
X50518Y-37267D01*
X50490Y-37238D01*
X50490Y-37150D01*
X50618Y-37278D01*
X50633Y-37290D01*
X50647Y-37302D01*
X50648Y-37303D01*
X50649Y-37303D01*
X50666Y-37312D01*
X50683Y-37322D01*
X50684Y-37322D01*
X50685Y-37323D01*
X50703Y-37328D01*
X50721Y-37334D01*
X50722Y-37334D01*
X50723Y-37334D01*
X50742Y-37336D01*
X50762Y-37338D01*
X50764Y-37338D01*
X50764Y-37338D01*
X50764Y-37338D01*
X50764Y-37338D01*
X50782Y-37338D01*
X50782Y-37372D01*
X50788Y-37402D01*
X50800Y-37431D01*
X50817Y-37456D01*
X50839Y-37478D01*
X50865Y-37496D01*
X50894Y-37507D01*
X50924Y-37513D01*
X50955Y-37513D01*
X51205Y-37513D01*
X51235Y-37507D01*
X51264Y-37496D01*
X51290Y-37478D01*
X51312Y-37456D01*
X51329Y-37431D01*
X51341Y-37402D01*
X51347Y-37372D01*
X51347Y-37340D01*
X51347Y-36890D01*
X51341Y-36860D01*
X51329Y-36831D01*
X51312Y-36806D01*
X51290Y-36784D01*
X51286Y-36781D01*
X51290Y-36778D01*
X51312Y-36756D01*
X51329Y-36731D01*
X51341Y-36702D01*
X51347Y-36672D01*
X51347Y-36640D01*
X51347Y-36190D01*
X51341Y-36160D01*
X51329Y-36131D01*
X51312Y-36106D01*
X51290Y-36084D01*
X51285Y-36080D01*
X51443Y-36080D01*
X51445Y-36080D01*
X51439Y-36084D01*
X51417Y-36106D01*
X51400Y-36131D01*
X51388Y-36160D01*
X51382Y-36190D01*
X51382Y-36222D01*
X51382Y-36672D01*
X51388Y-36702D01*
X51400Y-36731D01*
X51417Y-36756D01*
X51439Y-36778D01*
X51443Y-36781D01*
X51439Y-36784D01*
X51417Y-36806D01*
X51400Y-36831D01*
X51388Y-36860D01*
X51382Y-36890D01*
X51382Y-36922D01*
X51382Y-37372D01*
X51388Y-37402D01*
X51400Y-37431D01*
X51417Y-37456D01*
X51439Y-37478D01*
X51465Y-37496D01*
X51494Y-37507D01*
X51524Y-37513D01*
X51555Y-37513D01*
X51805Y-37513D01*
X51835Y-37507D01*
X51864Y-37496D01*
X51890Y-37478D01*
X51912Y-37456D01*
X51929Y-37431D01*
X51941Y-37402D01*
X51947Y-37372D01*
X51947Y-37340D01*
X51947Y-37338D01*
X52099Y-37338D01*
X52067Y-37352D01*
X52027Y-37378D01*
X51994Y-37411D01*
X51968Y-37451D01*
X51950Y-37494D01*
X51941Y-37540D01*
X51941Y-37700D01*
X52000Y-37759D01*
X52454Y-37759D01*
X52454Y-37751D01*
X52575Y-37751D01*
X52575Y-37759D01*
X53028Y-37759D01*
X53088Y-37700D01*
X53088Y-37540D01*
X53079Y-37494D01*
X53061Y-37451D01*
X53035Y-37411D01*
X53002Y-37378D01*
X52962Y-37352D01*
X52930Y-37338D01*
X53077Y-37338D01*
X53079Y-37344D01*
X53090Y-37373D01*
X53108Y-37398D01*
X53130Y-37420D01*
X53155Y-37438D01*
X53184Y-37449D01*
X53214Y-37455D01*
X53245Y-37455D01*
X53914Y-37455D01*
X53945Y-37449D01*
X53974Y-37438D01*
X53999Y-37420D01*
X54021Y-37398D01*
X54039Y-37373D01*
X54050Y-37344D01*
X54056Y-37314D01*
X54056Y-37282D01*
X54056Y-37249D01*
X55090Y-37249D01*
X55218Y-37378D01*
X55221Y-37381D01*
X54878Y-37724D01*
X54874Y-37724D01*
X54809Y-37723D01*
X54793Y-37726D01*
X54784Y-37684D01*
X54759Y-37624D01*
X54723Y-37570D01*
X54677Y-37524D01*
X54623Y-37487D01*
X54563Y-37462D01*
X54499Y-37449D01*
X54434Y-37448D01*
X54370Y-37461D01*
X54310Y-37485D01*
X54255Y-37521D01*
X54209Y-37566D01*
X54172Y-37620D01*
X54146Y-37680D01*
X54132Y-37744D01*
X54132Y-37809D01*
X54143Y-37873D01*
X54167Y-37934D01*
X54203Y-37989D01*
X54248Y-38035D01*
X54257Y-38042D01*
X54257Y-38442D01*
X54252Y-38444D01*
X54226Y-38462D01*
X54204Y-38484D01*
X54187Y-38509D01*
X54175Y-38538D01*
X54169Y-38568D01*
X54169Y-38600D01*
X54169Y-38924D01*
X54138Y-38924D01*
X54064Y-38924D01*
X54045Y-38925D01*
X54026Y-38927D01*
X54025Y-38927D01*
X54024Y-38927D01*
X54006Y-38933D01*
X53987Y-38938D01*
X53986Y-38939D01*
X53985Y-38939D01*
X53968Y-38948D01*
X53951Y-38957D01*
X53951Y-38958D01*
X53950Y-38958D01*
X53935Y-38970D01*
X53920Y-38982D01*
X53918Y-38984D01*
X53918Y-38984D01*
X53918Y-38984D01*
X53918Y-38984D01*
X53686Y-39216D01*
X53696Y-39173D01*
X53697Y-39098D01*
X53684Y-39034D01*
X53659Y-38974D01*
X53623Y-38920D01*
X53619Y-38915D01*
X53625Y-38915D01*
X53625Y-38856D01*
X53685Y-38915D01*
X53875Y-38915D01*
X53923Y-38915D01*
X53969Y-38906D01*
X54012Y-38888D01*
X54052Y-38862D01*
X54085Y-38829D01*
X54111Y-38789D01*
X54129Y-38746D01*
X54138Y-38700D01*
X54138Y-38540D01*
X54138Y-38300D01*
X54138Y-38140D01*
X54129Y-38094D01*
X54111Y-38051D01*
X54085Y-38011D01*
X54052Y-37978D01*
X54012Y-37952D01*
X53969Y-37934D01*
X53923Y-37925D01*
X53875Y-37925D01*
X53685Y-37925D01*
X53625Y-37984D01*
X53625Y-38359D01*
X54078Y-38359D01*
X54138Y-38300D01*
X54138Y-38540D01*
X54078Y-38481D01*
X53625Y-38481D01*
X53625Y-38489D01*
X53504Y-38489D01*
X53504Y-38481D01*
X53504Y-38359D01*
X53504Y-37984D01*
X53444Y-37925D01*
X53254Y-37925D01*
X53206Y-37925D01*
X53160Y-37934D01*
X53117Y-37952D01*
X53088Y-37971D01*
X53088Y-37940D01*
X53028Y-37881D01*
X52575Y-37881D01*
X52575Y-38256D01*
X52635Y-38315D01*
X52825Y-38315D01*
X52873Y-38315D01*
X52919Y-38306D01*
X52962Y-38288D01*
X52991Y-38269D01*
X52991Y-38300D01*
X53050Y-38359D01*
X53504Y-38359D01*
X53504Y-38481D01*
X53050Y-38481D01*
X52991Y-38540D01*
X52991Y-38700D01*
X53000Y-38746D01*
X53018Y-38789D01*
X53044Y-38829D01*
X53077Y-38862D01*
X53117Y-38888D01*
X53131Y-38894D01*
X53109Y-38916D01*
X53072Y-38970D01*
X53046Y-39030D01*
X53037Y-39074D01*
X53020Y-39074D01*
X53020Y-39068D01*
X53014Y-39038D01*
X53002Y-39009D01*
X52985Y-38984D01*
X52963Y-38962D01*
X52937Y-38944D01*
X52908Y-38933D01*
X52878Y-38927D01*
X52847Y-38927D01*
X52493Y-38927D01*
X52463Y-38933D01*
X52458Y-38934D01*
X52456Y-38931D01*
X52454Y-38929D01*
X52454Y-38256D01*
X52454Y-37881D01*
X52000Y-37881D01*
X51941Y-37940D01*
X51941Y-38100D01*
X51950Y-38146D01*
X51968Y-38189D01*
X51994Y-38229D01*
X52027Y-38262D01*
X52067Y-38288D01*
X52110Y-38306D01*
X52156Y-38315D01*
X52204Y-38315D01*
X52394Y-38315D01*
X52454Y-38256D01*
X52454Y-38929D01*
X52423Y-38898D01*
X52384Y-38872D01*
X52340Y-38854D01*
X52294Y-38845D01*
X52214Y-38845D01*
X52154Y-38904D01*
X52154Y-39220D01*
X52162Y-39220D01*
X52162Y-39342D01*
X52154Y-39342D01*
X52154Y-39658D01*
X52214Y-39717D01*
X52260Y-39717D01*
X52033Y-39944D01*
X52033Y-39658D01*
X52033Y-39342D01*
X52033Y-39220D01*
X52033Y-38904D01*
X51973Y-38845D01*
X51893Y-38845D01*
X51847Y-38854D01*
X51803Y-38872D01*
X51764Y-38898D01*
X51726Y-38872D01*
X51682Y-38854D01*
X51636Y-38845D01*
X51556Y-38845D01*
X51496Y-38904D01*
X51496Y-39220D01*
X51737Y-39220D01*
X51792Y-39220D01*
X52033Y-39220D01*
X52033Y-39342D01*
X51792Y-39342D01*
X51737Y-39342D01*
X51496Y-39342D01*
X51496Y-39658D01*
X51556Y-39717D01*
X51636Y-39717D01*
X51682Y-39708D01*
X51726Y-39690D01*
X51764Y-39664D01*
X51803Y-39690D01*
X51847Y-39708D01*
X51893Y-39717D01*
X51973Y-39717D01*
X52033Y-39658D01*
X52033Y-39944D01*
X51554Y-40424D01*
X51422Y-40424D01*
X51422Y-38348D01*
X51409Y-38284D01*
X51384Y-38224D01*
X51348Y-38170D01*
X51302Y-38124D01*
X51248Y-38087D01*
X51188Y-38062D01*
X51124Y-38049D01*
X51059Y-38048D01*
X50995Y-38061D01*
X50935Y-38085D01*
X50880Y-38121D01*
X50834Y-38166D01*
X50797Y-38220D01*
X50771Y-38280D01*
X50757Y-38344D01*
X50757Y-38409D01*
X50758Y-38419D01*
X50697Y-38480D01*
X50685Y-38495D01*
X50672Y-38510D01*
X50672Y-38511D01*
X50671Y-38512D01*
X50662Y-38528D01*
X50653Y-38545D01*
X50652Y-38546D01*
X50652Y-38547D01*
X50646Y-38566D01*
X50641Y-38584D01*
X50640Y-38585D01*
X50640Y-38586D01*
X50638Y-38605D01*
X50636Y-38624D01*
X50636Y-38626D01*
X50636Y-38626D01*
X50636Y-38626D01*
X50636Y-38627D01*
X50636Y-38929D01*
X50621Y-38933D01*
X50592Y-38944D01*
X50572Y-38958D01*
X50572Y-37640D01*
X50572Y-37627D01*
X50512Y-37567D01*
X49940Y-37567D01*
X49940Y-37796D01*
X50000Y-37856D01*
X50356Y-37856D01*
X50402Y-37846D01*
X50446Y-37828D01*
X50485Y-37802D01*
X50518Y-37769D01*
X50545Y-37730D01*
X50563Y-37686D01*
X50572Y-37640D01*
X50572Y-38958D01*
X50566Y-38962D01*
X50544Y-38984D01*
X50527Y-39009D01*
X50515Y-39038D01*
X50509Y-39068D01*
X50509Y-39100D01*
X50509Y-39143D01*
X50490Y-39162D01*
X50490Y-39049D01*
X50490Y-39018D01*
X50490Y-38231D01*
X50484Y-38200D01*
X50472Y-38172D01*
X50455Y-38146D01*
X50433Y-38124D01*
X50407Y-38107D01*
X50378Y-38095D01*
X50348Y-38089D01*
X50317Y-38089D01*
X49819Y-38089D01*
X49819Y-37796D01*
X49819Y-37567D01*
X49247Y-37567D01*
X49187Y-37627D01*
X49187Y-37640D01*
X49196Y-37686D01*
X49214Y-37730D01*
X49241Y-37769D01*
X49274Y-37802D01*
X49313Y-37828D01*
X49357Y-37846D01*
X49403Y-37856D01*
X49759Y-37856D01*
X49819Y-37796D01*
X49819Y-38089D01*
X49333Y-38089D01*
X49303Y-38095D01*
X49274Y-38107D01*
X49248Y-38124D01*
X49226Y-38146D01*
X49209Y-38172D01*
X49197Y-38200D01*
X49191Y-38231D01*
X49191Y-38262D01*
X49191Y-39049D01*
X49197Y-39079D01*
X49209Y-39108D01*
X49226Y-39134D01*
X49248Y-39156D01*
X49274Y-39173D01*
X49303Y-39185D01*
X49333Y-39191D01*
X49364Y-39191D01*
X50348Y-39191D01*
X50378Y-39185D01*
X50407Y-39173D01*
X50433Y-39156D01*
X50455Y-39134D01*
X50472Y-39108D01*
X50484Y-39079D01*
X50490Y-39049D01*
X50490Y-39162D01*
X50329Y-39324D01*
X49214Y-39324D01*
X49195Y-39325D01*
X49191Y-39326D01*
X49191Y-37721D01*
X49178Y-37657D01*
X49153Y-37596D01*
X49117Y-37541D01*
X49071Y-37495D01*
X49016Y-37458D01*
X48956Y-37433D01*
X48892Y-37419D01*
X48826Y-37419D01*
X48762Y-37431D01*
X48701Y-37456D01*
X48646Y-37492D01*
X48599Y-37538D01*
X48562Y-37592D01*
X48536Y-37652D01*
X48523Y-37716D01*
X48522Y-37782D01*
X48533Y-37846D01*
X48558Y-37907D01*
X48593Y-37962D01*
X48639Y-38010D01*
X48693Y-38047D01*
X48753Y-38073D01*
X48817Y-38087D01*
X48882Y-38089D01*
X48947Y-38077D01*
X49008Y-38054D01*
X49063Y-38019D01*
X49111Y-37973D01*
X49149Y-37920D01*
X49175Y-37860D01*
X49190Y-37796D01*
X49191Y-37721D01*
X49191Y-39326D01*
X49176Y-39327D01*
X49175Y-39327D01*
X49174Y-39327D01*
X49156Y-39333D01*
X49137Y-39338D01*
X49136Y-39339D01*
X49135Y-39339D01*
X49118Y-39348D01*
X49101Y-39357D01*
X49101Y-39358D01*
X49100Y-39358D01*
X49085Y-39370D01*
X49070Y-39382D01*
X49068Y-39384D01*
X49068Y-39384D01*
X49068Y-39384D01*
X49068Y-39384D01*
X48465Y-39987D01*
X48450Y-39988D01*
X48347Y-40018D01*
X48252Y-40068D01*
X48168Y-40136D01*
X48099Y-40218D01*
X48047Y-40312D01*
X48015Y-40415D01*
X48003Y-40522D01*
X48002Y-40529D01*
X48002Y-40733D01*
X48013Y-40840D01*
X48044Y-40943D01*
X48095Y-41038D01*
X48163Y-41121D01*
X48245Y-41189D01*
X48340Y-41241D01*
X48443Y-41272D01*
X48550Y-41284D01*
X48657Y-41274D01*
X48760Y-41243D01*
X48855Y-41194D01*
X48939Y-41126D01*
X49008Y-41044D01*
X49060Y-40950D01*
X49092Y-40847D01*
X49104Y-40740D01*
X49104Y-40733D01*
X49104Y-40529D01*
X49094Y-40422D01*
X49063Y-40319D01*
X49012Y-40224D01*
X48944Y-40141D01*
X48919Y-40120D01*
X49300Y-39738D01*
X50414Y-39738D01*
X50434Y-39737D01*
X50453Y-39735D01*
X50454Y-39735D01*
X50455Y-39735D01*
X50473Y-39729D01*
X50492Y-39724D01*
X50492Y-39723D01*
X50494Y-39723D01*
X50510Y-39714D01*
X50527Y-39705D01*
X50528Y-39704D01*
X50529Y-39704D01*
X50544Y-39692D01*
X50559Y-39680D01*
X50561Y-39678D01*
X50561Y-39678D01*
X50561Y-39678D01*
X50561Y-39678D01*
X50613Y-39626D01*
X50621Y-39629D01*
X50651Y-39635D01*
X50682Y-39635D01*
X51036Y-39635D01*
X51066Y-39629D01*
X51071Y-39628D01*
X51073Y-39631D01*
X51106Y-39664D01*
X51145Y-39690D01*
X51189Y-39708D01*
X51235Y-39717D01*
X51315Y-39717D01*
X51375Y-39658D01*
X51375Y-39342D01*
X51367Y-39342D01*
X51367Y-39220D01*
X51375Y-39220D01*
X51375Y-38904D01*
X51315Y-38845D01*
X51235Y-38845D01*
X51189Y-38854D01*
X51145Y-38872D01*
X51106Y-38898D01*
X51073Y-38931D01*
X51071Y-38934D01*
X51066Y-38933D01*
X51051Y-38929D01*
X51051Y-38713D01*
X51051Y-38713D01*
X51115Y-38714D01*
X51179Y-38703D01*
X51240Y-38679D01*
X51295Y-38644D01*
X51342Y-38599D01*
X51380Y-38546D01*
X51406Y-38486D01*
X51421Y-38423D01*
X51422Y-38348D01*
X51422Y-40424D01*
X51016Y-40424D01*
X51016Y-40422D01*
X50985Y-40319D01*
X50934Y-40224D01*
X50866Y-40141D01*
X50784Y-40073D01*
X50689Y-40021D01*
X50586Y-39990D01*
X50479Y-39978D01*
X50372Y-39988D01*
X50269Y-40018D01*
X50174Y-40068D01*
X50090Y-40136D01*
X50021Y-40218D01*
X49969Y-40312D01*
X49937Y-40415D01*
X49925Y-40522D01*
X49924Y-40529D01*
X49924Y-40733D01*
X49935Y-40840D01*
X49966Y-40943D01*
X50017Y-41038D01*
X50085Y-41121D01*
X50167Y-41189D01*
X50262Y-41241D01*
X50365Y-41272D01*
X50472Y-41284D01*
X50579Y-41274D01*
X50682Y-41243D01*
X50777Y-41194D01*
X50861Y-41126D01*
X50930Y-41044D01*
X50982Y-40950D01*
X51014Y-40847D01*
X51015Y-40838D01*
X51639Y-40838D01*
X51659Y-40837D01*
X51678Y-40835D01*
X51679Y-40835D01*
X51680Y-40835D01*
X51698Y-40829D01*
X51717Y-40824D01*
X51717Y-40823D01*
X51719Y-40823D01*
X51735Y-40814D01*
X51752Y-40805D01*
X51753Y-40804D01*
X51754Y-40804D01*
X51769Y-40792D01*
X51784Y-40780D01*
X51786Y-40778D01*
X51786Y-40778D01*
X51786Y-40778D01*
X51786Y-40778D01*
X52832Y-39732D01*
X52844Y-39717D01*
X52857Y-39702D01*
X52857Y-39701D01*
X52858Y-39700D01*
X52867Y-39684D01*
X52876Y-39667D01*
X52876Y-39666D01*
X52877Y-39665D01*
X52883Y-39646D01*
X52887Y-39634D01*
X52908Y-39629D01*
X52937Y-39618D01*
X52963Y-39600D01*
X52985Y-39578D01*
X53002Y-39553D01*
X53014Y-39524D01*
X53020Y-39494D01*
X53020Y-39488D01*
X53214Y-39488D01*
X53234Y-39487D01*
X53253Y-39485D01*
X53254Y-39485D01*
X53255Y-39485D01*
X53273Y-39479D01*
X53292Y-39474D01*
X53292Y-39473D01*
X53294Y-39473D01*
X53310Y-39464D01*
X53316Y-39461D01*
X53325Y-39463D01*
X53390Y-39464D01*
X53448Y-39454D01*
X52718Y-40184D01*
X52706Y-40199D01*
X52693Y-40214D01*
X52693Y-40215D01*
X52692Y-40216D01*
X52683Y-40232D01*
X52674Y-40249D01*
X52673Y-40250D01*
X52673Y-40251D01*
X52667Y-40270D01*
X52662Y-40288D01*
X52661Y-40289D01*
X52661Y-40290D01*
X52659Y-40309D01*
X52657Y-40328D01*
X52657Y-40330D01*
X52657Y-40330D01*
X52657Y-40330D01*
X52657Y-40331D01*
X52657Y-40668D01*
X52592Y-40702D01*
X52516Y-40763D01*
X52454Y-40837D01*
X52407Y-40922D01*
X52378Y-41015D01*
X52367Y-41111D01*
X52367Y-41118D01*
X52367Y-41244D01*
X52376Y-41340D01*
X52405Y-41433D01*
X52450Y-41519D01*
X52511Y-41594D01*
X52569Y-41642D01*
X47063Y-41642D01*
X47063Y-39135D01*
X47083Y-39156D01*
X47109Y-39173D01*
X47138Y-39185D01*
X47168Y-39191D01*
X47199Y-39191D01*
X48183Y-39191D01*
X48213Y-39185D01*
X48242Y-39173D01*
X48268Y-39156D01*
X48290Y-39134D01*
X48307Y-39108D01*
X48319Y-39079D01*
X48325Y-39049D01*
X48325Y-39018D01*
X48325Y-38231D01*
X48319Y-38200D01*
X48307Y-38172D01*
X48290Y-38146D01*
X48268Y-38124D01*
X48242Y-38107D01*
X48213Y-38095D01*
X48183Y-38089D01*
X48152Y-38089D01*
X47168Y-38089D01*
X47138Y-38095D01*
X47109Y-38107D01*
X47083Y-38124D01*
X47063Y-38144D01*
X47063Y-35631D01*
X47083Y-35652D01*
X47109Y-35669D01*
X47138Y-35681D01*
X47168Y-35687D01*
X47199Y-35687D01*
X48183Y-35687D01*
X48213Y-35681D01*
X48242Y-35669D01*
X48268Y-35652D01*
X48290Y-35630D01*
X48307Y-35604D01*
X48319Y-35575D01*
X48325Y-35545D01*
X48325Y-35514D01*
X48325Y-34727D01*
X48319Y-34696D01*
X48307Y-34668D01*
X48290Y-34642D01*
X48268Y-34620D01*
X48242Y-34603D01*
X48213Y-34591D01*
X48183Y-34585D01*
X48152Y-34585D01*
X47168Y-34585D01*
X47138Y-34591D01*
X47109Y-34603D01*
X47083Y-34620D01*
X47063Y-34640D01*
X47063Y-32220D01*
X52367Y-32220D01*
X52367Y-32247D01*
X52367Y-33047D01*
X52373Y-33077D01*
X52385Y-33106D01*
X52402Y-33131D01*
X52424Y-33153D01*
X52450Y-33171D01*
X52479Y-33182D01*
X52509Y-33188D01*
X52540Y-33188D01*
X53220Y-33188D01*
X53250Y-33182D01*
X53279Y-33171D01*
X53305Y-33153D01*
X53327Y-33131D01*
X53344Y-33106D01*
X53356Y-33077D01*
X53362Y-33047D01*
X53362Y-33015D01*
X53362Y-32220D01*
X53510Y-32220D01*
X53454Y-32287D01*
X53407Y-32372D01*
X53378Y-32465D01*
X53367Y-32561D01*
X53367Y-32568D01*
X53367Y-32694D01*
X53376Y-32790D01*
X53405Y-32883D01*
X53450Y-32969D01*
X53511Y-33044D01*
X53586Y-33106D01*
X53672Y-33152D01*
X53764Y-33181D01*
X53861Y-33191D01*
X53958Y-33182D01*
X54051Y-33155D01*
X54137Y-33110D01*
X54213Y-33049D01*
X54275Y-32975D01*
X54321Y-32891D01*
X54321Y-32892D01*
X54371Y-32994D01*
X54439Y-33085D01*
X54524Y-33160D01*
X54622Y-33217D01*
X54714Y-33251D01*
X54804Y-33207D01*
X54804Y-32692D01*
X54796Y-32692D01*
X54796Y-32570D01*
X54804Y-32570D01*
X54804Y-32562D01*
X54925Y-32562D01*
X54925Y-32570D01*
X54933Y-32570D01*
X54933Y-32692D01*
X54925Y-32692D01*
X54925Y-33207D01*
X55014Y-33251D01*
X55106Y-33217D01*
X55204Y-33160D01*
X55289Y-33085D01*
X55358Y-32994D01*
X55408Y-32892D01*
X55408Y-32890D01*
X55450Y-32969D01*
X55511Y-33044D01*
X55586Y-33106D01*
X55618Y-33124D01*
X55509Y-33124D01*
X55479Y-33130D01*
X55450Y-33141D01*
X55424Y-33159D01*
X55402Y-33181D01*
X55385Y-33206D01*
X55373Y-33235D01*
X55367Y-33265D01*
X55367Y-33297D01*
X55367Y-34097D01*
X55373Y-34127D01*
X55385Y-34156D01*
X55402Y-34181D01*
X55424Y-34203D01*
X55450Y-34221D01*
X55479Y-34232D01*
X55509Y-34238D01*
X55540Y-34238D01*
X55628Y-34238D01*
X55628Y-34445D01*
G54D10*
G36*
X56082Y-38346D02*
X56076Y-38345D01*
X56035Y-38345D01*
X55975Y-38404D01*
X55975Y-38720D01*
X55983Y-38720D01*
X55983Y-38842D01*
X55975Y-38842D01*
X55975Y-38850D01*
X55854Y-38850D01*
X55854Y-38842D01*
X55846Y-38842D01*
X55846Y-38720D01*
X55854Y-38720D01*
X55854Y-38573D01*
X55855Y-38571D01*
X55881Y-38511D01*
X55896Y-38448D01*
X55897Y-38373D01*
X55884Y-38309D01*
X55859Y-38249D01*
X55823Y-38195D01*
X55777Y-38149D01*
X55723Y-38112D01*
X55663Y-38087D01*
X55599Y-38074D01*
X55534Y-38073D01*
X55470Y-38086D01*
X55410Y-38110D01*
X55355Y-38146D01*
X55309Y-38191D01*
X55272Y-38245D01*
X55246Y-38305D01*
X55232Y-38369D01*
X55232Y-38427D01*
X55061Y-38427D01*
X55047Y-38429D01*
X55047Y-38318D01*
X55092Y-38274D01*
X55130Y-38221D01*
X55156Y-38161D01*
X55171Y-38098D01*
X55172Y-38023D01*
X55171Y-38018D01*
X55550Y-37638D01*
X56029Y-37638D01*
X56082Y-37692D01*
X56082Y-38346D01*
X56082Y-38346D01*
G37*
G54D33*
X56082Y-38346D02*
X56076Y-38345D01*
X56035Y-38345D01*
X55975Y-38404D01*
X55975Y-38720D01*
X55983Y-38720D01*
X55983Y-38842D01*
X55975Y-38842D01*
X55975Y-38850D01*
X55854Y-38850D01*
X55854Y-38842D01*
X55846Y-38842D01*
X55846Y-38720D01*
X55854Y-38720D01*
X55854Y-38573D01*
X55855Y-38571D01*
X55881Y-38511D01*
X55896Y-38448D01*
X55897Y-38373D01*
X55884Y-38309D01*
X55859Y-38249D01*
X55823Y-38195D01*
X55777Y-38149D01*
X55723Y-38112D01*
X55663Y-38087D01*
X55599Y-38074D01*
X55534Y-38073D01*
X55470Y-38086D01*
X55410Y-38110D01*
X55355Y-38146D01*
X55309Y-38191D01*
X55272Y-38245D01*
X55246Y-38305D01*
X55232Y-38369D01*
X55232Y-38427D01*
X55061Y-38427D01*
X55047Y-38429D01*
X55047Y-38318D01*
X55092Y-38274D01*
X55130Y-38221D01*
X55156Y-38161D01*
X55171Y-38098D01*
X55172Y-38023D01*
X55171Y-38018D01*
X55550Y-37638D01*
X56029Y-37638D01*
X56082Y-37692D01*
X56082Y-38346D01*
G54D10*
G36*
X56939Y-35063D02*
X56903Y-35099D01*
X56899Y-35099D01*
X56834Y-35098D01*
X56770Y-35111D01*
X56710Y-35135D01*
X56655Y-35171D01*
X56609Y-35216D01*
X56572Y-35270D01*
X56546Y-35330D01*
X56532Y-35394D01*
X56532Y-35459D01*
X56543Y-35523D01*
X56567Y-35584D01*
X56603Y-35639D01*
X56632Y-35669D01*
X56630Y-35671D01*
X56584Y-35716D01*
X56547Y-35770D01*
X56521Y-35830D01*
X56507Y-35894D01*
X56507Y-35959D01*
X56518Y-36023D01*
X56542Y-36084D01*
X56578Y-36139D01*
X56623Y-36185D01*
X56660Y-36212D01*
X56174Y-36212D01*
X56174Y-35695D01*
X56155Y-35572D01*
X56112Y-35455D01*
X56087Y-35408D01*
X55987Y-35369D01*
X55902Y-35455D01*
X55902Y-35283D01*
X55862Y-35183D01*
X55749Y-35131D01*
X55628Y-35101D01*
X55504Y-35096D01*
X55381Y-35115D01*
X55263Y-35158D01*
X55216Y-35183D01*
X55177Y-35283D01*
X55539Y-35645D01*
X55902Y-35283D01*
X55902Y-35455D01*
X55625Y-35731D01*
X55987Y-36093D01*
X56087Y-36054D01*
X56140Y-35941D01*
X56169Y-35820D01*
X56174Y-35695D01*
X56174Y-36212D01*
X55889Y-36212D01*
X55902Y-36179D01*
X55539Y-35817D01*
X55177Y-36179D01*
X55190Y-36212D01*
X55064Y-36212D01*
X55073Y-36199D01*
X55084Y-36170D01*
X55090Y-36140D01*
X55090Y-36109D01*
X55090Y-36093D01*
X55091Y-36093D01*
X55454Y-35731D01*
X55091Y-35369D01*
X55090Y-35369D01*
X55090Y-35322D01*
X55084Y-35292D01*
X55073Y-35263D01*
X55055Y-35237D01*
X55033Y-35215D01*
X55008Y-35198D01*
X54979Y-35186D01*
X54948Y-35180D01*
X54917Y-35180D01*
X54776Y-35180D01*
X54776Y-34917D01*
X55864Y-34917D01*
X55872Y-34917D01*
X55982Y-34917D01*
X55982Y-34922D01*
X55988Y-34952D01*
X56000Y-34981D01*
X56017Y-35006D01*
X56039Y-35028D01*
X56065Y-35046D01*
X56094Y-35057D01*
X56124Y-35063D01*
X56155Y-35063D01*
X56405Y-35063D01*
X56435Y-35057D01*
X56464Y-35046D01*
X56490Y-35028D01*
X56512Y-35006D01*
X56529Y-34981D01*
X56541Y-34952D01*
X56547Y-34922D01*
X56547Y-34890D01*
X56547Y-34440D01*
X56541Y-34410D01*
X56529Y-34381D01*
X56512Y-34356D01*
X56490Y-34334D01*
X56464Y-34316D01*
X56435Y-34305D01*
X56405Y-34299D01*
X56374Y-34299D01*
X56124Y-34299D01*
X56101Y-34303D01*
X56101Y-34238D01*
X56220Y-34238D01*
X56250Y-34232D01*
X56279Y-34221D01*
X56305Y-34203D01*
X56327Y-34181D01*
X56344Y-34156D01*
X56356Y-34127D01*
X56362Y-34097D01*
X56362Y-34065D01*
X56362Y-33265D01*
X56356Y-33235D01*
X56344Y-33206D01*
X56327Y-33181D01*
X56305Y-33159D01*
X56279Y-33141D01*
X56250Y-33130D01*
X56220Y-33124D01*
X56189Y-33124D01*
X56111Y-33124D01*
X56137Y-33110D01*
X56213Y-33049D01*
X56275Y-32975D01*
X56322Y-32890D01*
X56351Y-32797D01*
X56362Y-32701D01*
X56362Y-32694D01*
X56362Y-32568D01*
X56352Y-32472D01*
X56324Y-32379D01*
X56279Y-32293D01*
X56220Y-32220D01*
X56510Y-32220D01*
X56454Y-32287D01*
X56407Y-32372D01*
X56378Y-32465D01*
X56367Y-32561D01*
X56367Y-32568D01*
X56367Y-32694D01*
X56376Y-32790D01*
X56405Y-32883D01*
X56450Y-32969D01*
X56511Y-33044D01*
X56586Y-33106D01*
X56672Y-33152D01*
X56683Y-33156D01*
X56678Y-33157D01*
X56592Y-33202D01*
X56516Y-33263D01*
X56454Y-33337D01*
X56407Y-33422D01*
X56378Y-33515D01*
X56367Y-33611D01*
X56367Y-33618D01*
X56367Y-33744D01*
X56376Y-33840D01*
X56405Y-33933D01*
X56450Y-34019D01*
X56511Y-34094D01*
X56586Y-34156D01*
X56657Y-34194D01*
X56657Y-34322D01*
X56639Y-34334D01*
X56617Y-34356D01*
X56600Y-34381D01*
X56588Y-34410D01*
X56582Y-34440D01*
X56582Y-34472D01*
X56582Y-34922D01*
X56588Y-34952D01*
X56600Y-34981D01*
X56617Y-35006D01*
X56639Y-35028D01*
X56665Y-35046D01*
X56694Y-35057D01*
X56724Y-35063D01*
X56755Y-35063D01*
X56939Y-35063D01*
X56939Y-35063D01*
G37*
G54D33*
X56939Y-35063D02*
X56903Y-35099D01*
X56899Y-35099D01*
X56834Y-35098D01*
X56770Y-35111D01*
X56710Y-35135D01*
X56655Y-35171D01*
X56609Y-35216D01*
X56572Y-35270D01*
X56546Y-35330D01*
X56532Y-35394D01*
X56532Y-35459D01*
X56543Y-35523D01*
X56567Y-35584D01*
X56603Y-35639D01*
X56632Y-35669D01*
X56630Y-35671D01*
X56584Y-35716D01*
X56547Y-35770D01*
X56521Y-35830D01*
X56507Y-35894D01*
X56507Y-35959D01*
X56518Y-36023D01*
X56542Y-36084D01*
X56578Y-36139D01*
X56623Y-36185D01*
X56660Y-36212D01*
X56174Y-36212D01*
X56174Y-35695D01*
X56155Y-35572D01*
X56112Y-35455D01*
X56087Y-35408D01*
X55987Y-35369D01*
X55902Y-35455D01*
X55902Y-35283D01*
X55862Y-35183D01*
X55749Y-35131D01*
X55628Y-35101D01*
X55504Y-35096D01*
X55381Y-35115D01*
X55263Y-35158D01*
X55216Y-35183D01*
X55177Y-35283D01*
X55539Y-35645D01*
X55902Y-35283D01*
X55902Y-35455D01*
X55625Y-35731D01*
X55987Y-36093D01*
X56087Y-36054D01*
X56140Y-35941D01*
X56169Y-35820D01*
X56174Y-35695D01*
X56174Y-36212D01*
X55889Y-36212D01*
X55902Y-36179D01*
X55539Y-35817D01*
X55177Y-36179D01*
X55190Y-36212D01*
X55064Y-36212D01*
X55073Y-36199D01*
X55084Y-36170D01*
X55090Y-36140D01*
X55090Y-36109D01*
X55090Y-36093D01*
X55091Y-36093D01*
X55454Y-35731D01*
X55091Y-35369D01*
X55090Y-35369D01*
X55090Y-35322D01*
X55084Y-35292D01*
X55073Y-35263D01*
X55055Y-35237D01*
X55033Y-35215D01*
X55008Y-35198D01*
X54979Y-35186D01*
X54948Y-35180D01*
X54917Y-35180D01*
X54776Y-35180D01*
X54776Y-34917D01*
X55864Y-34917D01*
X55872Y-34917D01*
X55982Y-34917D01*
X55982Y-34922D01*
X55988Y-34952D01*
X56000Y-34981D01*
X56017Y-35006D01*
X56039Y-35028D01*
X56065Y-35046D01*
X56094Y-35057D01*
X56124Y-35063D01*
X56155Y-35063D01*
X56405Y-35063D01*
X56435Y-35057D01*
X56464Y-35046D01*
X56490Y-35028D01*
X56512Y-35006D01*
X56529Y-34981D01*
X56541Y-34952D01*
X56547Y-34922D01*
X56547Y-34890D01*
X56547Y-34440D01*
X56541Y-34410D01*
X56529Y-34381D01*
X56512Y-34356D01*
X56490Y-34334D01*
X56464Y-34316D01*
X56435Y-34305D01*
X56405Y-34299D01*
X56374Y-34299D01*
X56124Y-34299D01*
X56101Y-34303D01*
X56101Y-34238D01*
X56220Y-34238D01*
X56250Y-34232D01*
X56279Y-34221D01*
X56305Y-34203D01*
X56327Y-34181D01*
X56344Y-34156D01*
X56356Y-34127D01*
X56362Y-34097D01*
X56362Y-34065D01*
X56362Y-33265D01*
X56356Y-33235D01*
X56344Y-33206D01*
X56327Y-33181D01*
X56305Y-33159D01*
X56279Y-33141D01*
X56250Y-33130D01*
X56220Y-33124D01*
X56189Y-33124D01*
X56111Y-33124D01*
X56137Y-33110D01*
X56213Y-33049D01*
X56275Y-32975D01*
X56322Y-32890D01*
X56351Y-32797D01*
X56362Y-32701D01*
X56362Y-32694D01*
X56362Y-32568D01*
X56352Y-32472D01*
X56324Y-32379D01*
X56279Y-32293D01*
X56220Y-32220D01*
X56510Y-32220D01*
X56454Y-32287D01*
X56407Y-32372D01*
X56378Y-32465D01*
X56367Y-32561D01*
X56367Y-32568D01*
X56367Y-32694D01*
X56376Y-32790D01*
X56405Y-32883D01*
X56450Y-32969D01*
X56511Y-33044D01*
X56586Y-33106D01*
X56672Y-33152D01*
X56683Y-33156D01*
X56678Y-33157D01*
X56592Y-33202D01*
X56516Y-33263D01*
X56454Y-33337D01*
X56407Y-33422D01*
X56378Y-33515D01*
X56367Y-33611D01*
X56367Y-33618D01*
X56367Y-33744D01*
X56376Y-33840D01*
X56405Y-33933D01*
X56450Y-34019D01*
X56511Y-34094D01*
X56586Y-34156D01*
X56657Y-34194D01*
X56657Y-34322D01*
X56639Y-34334D01*
X56617Y-34356D01*
X56600Y-34381D01*
X56588Y-34410D01*
X56582Y-34440D01*
X56582Y-34472D01*
X56582Y-34922D01*
X56588Y-34952D01*
X56600Y-34981D01*
X56617Y-35006D01*
X56639Y-35028D01*
X56665Y-35046D01*
X56694Y-35057D01*
X56724Y-35063D01*
X56755Y-35063D01*
X56939Y-35063D01*
G54D10*
G36*
X58857Y-38870D02*
X57529Y-40199D01*
X57089Y-40199D01*
X57070Y-40200D01*
X57051Y-40202D01*
X57050Y-40202D01*
X57049Y-40202D01*
X57031Y-40208D01*
X57012Y-40213D01*
X57011Y-40214D01*
X57010Y-40214D01*
X56993Y-40223D01*
X56976Y-40232D01*
X56976Y-40233D01*
X56975Y-40233D01*
X56960Y-40245D01*
X56945Y-40257D01*
X56943Y-40259D01*
X56943Y-40259D01*
X56943Y-40259D01*
X56943Y-40259D01*
X56718Y-40484D01*
X56706Y-40499D01*
X56693Y-40514D01*
X56693Y-40515D01*
X56692Y-40516D01*
X56683Y-40532D01*
X56674Y-40549D01*
X56673Y-40550D01*
X56673Y-40551D01*
X56667Y-40570D01*
X56662Y-40588D01*
X56661Y-40589D01*
X56661Y-40590D01*
X56659Y-40609D01*
X56657Y-40628D01*
X56657Y-40630D01*
X56657Y-40630D01*
X56657Y-40630D01*
X56657Y-40631D01*
X56657Y-40668D01*
X56592Y-40702D01*
X56516Y-40763D01*
X56454Y-40837D01*
X56407Y-40922D01*
X56378Y-41015D01*
X56367Y-41111D01*
X56367Y-41118D01*
X56367Y-41244D01*
X56376Y-41340D01*
X56405Y-41433D01*
X56450Y-41519D01*
X56511Y-41594D01*
X56569Y-41642D01*
X56160Y-41642D01*
X56213Y-41599D01*
X56275Y-41525D01*
X56322Y-41440D01*
X56351Y-41347D01*
X56362Y-41251D01*
X56362Y-41244D01*
X56362Y-41118D01*
X56352Y-41022D01*
X56324Y-40929D01*
X56279Y-40843D01*
X56217Y-40768D01*
X56143Y-40706D01*
X56122Y-40695D01*
X56122Y-40216D01*
X56128Y-40217D01*
X56169Y-40217D01*
X56229Y-40158D01*
X56229Y-39842D01*
X56221Y-39842D01*
X56221Y-39720D01*
X56229Y-39720D01*
X56229Y-39404D01*
X56169Y-39345D01*
X56128Y-39345D01*
X56082Y-39354D01*
X56038Y-39372D01*
X55999Y-39398D01*
X55970Y-39427D01*
X55761Y-39427D01*
X55731Y-39433D01*
X55702Y-39444D01*
X55676Y-39462D01*
X55654Y-39484D01*
X55637Y-39509D01*
X55625Y-39538D01*
X55619Y-39568D01*
X55619Y-39600D01*
X55619Y-39994D01*
X55625Y-40024D01*
X55637Y-40053D01*
X55654Y-40078D01*
X55676Y-40100D01*
X55702Y-40118D01*
X55707Y-40120D01*
X55707Y-40649D01*
X55678Y-40657D01*
X55592Y-40702D01*
X55516Y-40763D01*
X55454Y-40837D01*
X55407Y-40922D01*
X55378Y-41015D01*
X55367Y-41111D01*
X55367Y-41118D01*
X55367Y-41244D01*
X55376Y-41340D01*
X55405Y-41433D01*
X55450Y-41519D01*
X55511Y-41594D01*
X55569Y-41642D01*
X55160Y-41642D01*
X55213Y-41599D01*
X55275Y-41525D01*
X55322Y-41440D01*
X55351Y-41347D01*
X55362Y-41251D01*
X55362Y-41244D01*
X55362Y-41118D01*
X55352Y-41022D01*
X55324Y-40929D01*
X55279Y-40843D01*
X55217Y-40768D01*
X55143Y-40706D01*
X55071Y-40667D01*
X55070Y-40662D01*
X55068Y-40643D01*
X55068Y-40642D01*
X55068Y-40641D01*
X55062Y-40622D01*
X55057Y-40604D01*
X55057Y-40603D01*
X55056Y-40602D01*
X55047Y-40585D01*
X55038Y-40568D01*
X55038Y-40567D01*
X55037Y-40566D01*
X55025Y-40551D01*
X55013Y-40536D01*
X55012Y-40535D01*
X55012Y-40535D01*
X55012Y-40535D01*
X55011Y-40534D01*
X54694Y-40217D01*
X54719Y-40217D01*
X54779Y-40158D01*
X54779Y-39842D01*
X54771Y-39842D01*
X54771Y-39720D01*
X54779Y-39720D01*
X54779Y-39404D01*
X54719Y-39345D01*
X54678Y-39345D01*
X54632Y-39354D01*
X54588Y-39372D01*
X54549Y-39398D01*
X54520Y-39427D01*
X54311Y-39427D01*
X54281Y-39433D01*
X54252Y-39444D01*
X54226Y-39462D01*
X54204Y-39484D01*
X54187Y-39509D01*
X54175Y-39538D01*
X54169Y-39568D01*
X54169Y-39600D01*
X54169Y-39994D01*
X54175Y-40024D01*
X54187Y-40053D01*
X54204Y-40078D01*
X54226Y-40100D01*
X54252Y-40118D01*
X54257Y-40120D01*
X54257Y-40281D01*
X54259Y-40300D01*
X54261Y-40319D01*
X54261Y-40320D01*
X54261Y-40321D01*
X54266Y-40340D01*
X54272Y-40358D01*
X54272Y-40359D01*
X54273Y-40360D01*
X54282Y-40377D01*
X54290Y-40394D01*
X54291Y-40395D01*
X54292Y-40396D01*
X54304Y-40411D01*
X54316Y-40426D01*
X54317Y-40427D01*
X54317Y-40427D01*
X54317Y-40427D01*
X54318Y-40428D01*
X54592Y-40702D01*
X54592Y-40702D01*
X54516Y-40763D01*
X54454Y-40837D01*
X54408Y-40921D01*
X54408Y-40920D01*
X54358Y-40818D01*
X54289Y-40727D01*
X54204Y-40652D01*
X54106Y-40595D01*
X54014Y-40561D01*
X53925Y-40605D01*
X53925Y-41120D01*
X53933Y-41120D01*
X53933Y-41242D01*
X53925Y-41242D01*
X53925Y-41250D01*
X53804Y-41250D01*
X53804Y-41242D01*
X53796Y-41242D01*
X53796Y-41120D01*
X53804Y-41120D01*
X53804Y-40605D01*
X53714Y-40561D01*
X53622Y-40595D01*
X53524Y-40652D01*
X53439Y-40727D01*
X53371Y-40818D01*
X53321Y-40920D01*
X53321Y-40922D01*
X53279Y-40843D01*
X53217Y-40768D01*
X53143Y-40706D01*
X53072Y-40668D01*
X53072Y-40417D01*
X54150Y-39338D01*
X54464Y-39338D01*
X55007Y-39338D01*
X55007Y-39346D01*
X55001Y-39345D01*
X54960Y-39345D01*
X54900Y-39404D01*
X54900Y-39720D01*
X54908Y-39720D01*
X54908Y-39842D01*
X54900Y-39842D01*
X54900Y-40158D01*
X54960Y-40217D01*
X55001Y-40217D01*
X55047Y-40208D01*
X55091Y-40190D01*
X55130Y-40164D01*
X55159Y-40135D01*
X55368Y-40135D01*
X55398Y-40129D01*
X55427Y-40118D01*
X55453Y-40100D01*
X55475Y-40078D01*
X55492Y-40053D01*
X55504Y-40024D01*
X55510Y-39994D01*
X55510Y-39962D01*
X55510Y-39568D01*
X55504Y-39538D01*
X55492Y-39509D01*
X55475Y-39484D01*
X55453Y-39462D01*
X55427Y-39444D01*
X55422Y-39442D01*
X55422Y-39338D01*
X56457Y-39338D01*
X56457Y-39346D01*
X56451Y-39345D01*
X56410Y-39345D01*
X56350Y-39404D01*
X56350Y-39720D01*
X56358Y-39720D01*
X56358Y-39842D01*
X56350Y-39842D01*
X56350Y-40158D01*
X56410Y-40217D01*
X56451Y-40217D01*
X56497Y-40208D01*
X56541Y-40190D01*
X56580Y-40164D01*
X56609Y-40135D01*
X56818Y-40135D01*
X56848Y-40129D01*
X56877Y-40118D01*
X56903Y-40100D01*
X56925Y-40078D01*
X56942Y-40053D01*
X56954Y-40024D01*
X56960Y-39994D01*
X56960Y-39962D01*
X56960Y-39568D01*
X56954Y-39538D01*
X56942Y-39509D01*
X56925Y-39484D01*
X56903Y-39462D01*
X56877Y-39444D01*
X56872Y-39442D01*
X56872Y-39338D01*
X56964Y-39338D01*
X56984Y-39337D01*
X57003Y-39335D01*
X57004Y-39335D01*
X57005Y-39335D01*
X57023Y-39329D01*
X57042Y-39324D01*
X57042Y-39323D01*
X57044Y-39323D01*
X57060Y-39314D01*
X57077Y-39305D01*
X57078Y-39304D01*
X57079Y-39304D01*
X57094Y-39292D01*
X57109Y-39280D01*
X57111Y-39278D01*
X57111Y-39278D01*
X57111Y-39278D01*
X57111Y-39278D01*
X57161Y-39228D01*
X57173Y-39213D01*
X57186Y-39198D01*
X57186Y-39197D01*
X57187Y-39196D01*
X57196Y-39180D01*
X57205Y-39163D01*
X57205Y-39162D01*
X57206Y-39161D01*
X57212Y-39142D01*
X57217Y-39124D01*
X57218Y-39123D01*
X57218Y-39122D01*
X57220Y-39103D01*
X57222Y-39084D01*
X57222Y-39082D01*
X57222Y-39082D01*
X57222Y-39082D01*
X57222Y-39081D01*
X57222Y-38632D01*
X57261Y-38649D01*
X57292Y-38656D01*
X57271Y-38705D01*
X57257Y-38769D01*
X57257Y-38834D01*
X57268Y-38898D01*
X57292Y-38959D01*
X57328Y-39014D01*
X57373Y-39060D01*
X57426Y-39098D01*
X57486Y-39124D01*
X57550Y-39138D01*
X57615Y-39139D01*
X57679Y-39128D01*
X57740Y-39104D01*
X57795Y-39069D01*
X57842Y-39024D01*
X57880Y-38971D01*
X57906Y-38911D01*
X57921Y-38848D01*
X57921Y-38831D01*
X58171Y-38831D01*
X58175Y-38835D01*
X58200Y-38852D01*
X58229Y-38864D01*
X58259Y-38870D01*
X58290Y-38870D01*
X58857Y-38870D01*
X58857Y-38870D01*
G37*
G54D33*
X58857Y-38870D02*
X57529Y-40199D01*
X57089Y-40199D01*
X57070Y-40200D01*
X57051Y-40202D01*
X57050Y-40202D01*
X57049Y-40202D01*
X57031Y-40208D01*
X57012Y-40213D01*
X57011Y-40214D01*
X57010Y-40214D01*
X56993Y-40223D01*
X56976Y-40232D01*
X56976Y-40233D01*
X56975Y-40233D01*
X56960Y-40245D01*
X56945Y-40257D01*
X56943Y-40259D01*
X56943Y-40259D01*
X56943Y-40259D01*
X56943Y-40259D01*
X56718Y-40484D01*
X56706Y-40499D01*
X56693Y-40514D01*
X56693Y-40515D01*
X56692Y-40516D01*
X56683Y-40532D01*
X56674Y-40549D01*
X56673Y-40550D01*
X56673Y-40551D01*
X56667Y-40570D01*
X56662Y-40588D01*
X56661Y-40589D01*
X56661Y-40590D01*
X56659Y-40609D01*
X56657Y-40628D01*
X56657Y-40630D01*
X56657Y-40630D01*
X56657Y-40630D01*
X56657Y-40631D01*
X56657Y-40668D01*
X56592Y-40702D01*
X56516Y-40763D01*
X56454Y-40837D01*
X56407Y-40922D01*
X56378Y-41015D01*
X56367Y-41111D01*
X56367Y-41118D01*
X56367Y-41244D01*
X56376Y-41340D01*
X56405Y-41433D01*
X56450Y-41519D01*
X56511Y-41594D01*
X56569Y-41642D01*
X56160Y-41642D01*
X56213Y-41599D01*
X56275Y-41525D01*
X56322Y-41440D01*
X56351Y-41347D01*
X56362Y-41251D01*
X56362Y-41244D01*
X56362Y-41118D01*
X56352Y-41022D01*
X56324Y-40929D01*
X56279Y-40843D01*
X56217Y-40768D01*
X56143Y-40706D01*
X56122Y-40695D01*
X56122Y-40216D01*
X56128Y-40217D01*
X56169Y-40217D01*
X56229Y-40158D01*
X56229Y-39842D01*
X56221Y-39842D01*
X56221Y-39720D01*
X56229Y-39720D01*
X56229Y-39404D01*
X56169Y-39345D01*
X56128Y-39345D01*
X56082Y-39354D01*
X56038Y-39372D01*
X55999Y-39398D01*
X55970Y-39427D01*
X55761Y-39427D01*
X55731Y-39433D01*
X55702Y-39444D01*
X55676Y-39462D01*
X55654Y-39484D01*
X55637Y-39509D01*
X55625Y-39538D01*
X55619Y-39568D01*
X55619Y-39600D01*
X55619Y-39994D01*
X55625Y-40024D01*
X55637Y-40053D01*
X55654Y-40078D01*
X55676Y-40100D01*
X55702Y-40118D01*
X55707Y-40120D01*
X55707Y-40649D01*
X55678Y-40657D01*
X55592Y-40702D01*
X55516Y-40763D01*
X55454Y-40837D01*
X55407Y-40922D01*
X55378Y-41015D01*
X55367Y-41111D01*
X55367Y-41118D01*
X55367Y-41244D01*
X55376Y-41340D01*
X55405Y-41433D01*
X55450Y-41519D01*
X55511Y-41594D01*
X55569Y-41642D01*
X55160Y-41642D01*
X55213Y-41599D01*
X55275Y-41525D01*
X55322Y-41440D01*
X55351Y-41347D01*
X55362Y-41251D01*
X55362Y-41244D01*
X55362Y-41118D01*
X55352Y-41022D01*
X55324Y-40929D01*
X55279Y-40843D01*
X55217Y-40768D01*
X55143Y-40706D01*
X55071Y-40667D01*
X55070Y-40662D01*
X55068Y-40643D01*
X55068Y-40642D01*
X55068Y-40641D01*
X55062Y-40622D01*
X55057Y-40604D01*
X55057Y-40603D01*
X55056Y-40602D01*
X55047Y-40585D01*
X55038Y-40568D01*
X55038Y-40567D01*
X55037Y-40566D01*
X55025Y-40551D01*
X55013Y-40536D01*
X55012Y-40535D01*
X55012Y-40535D01*
X55012Y-40535D01*
X55011Y-40534D01*
X54694Y-40217D01*
X54719Y-40217D01*
X54779Y-40158D01*
X54779Y-39842D01*
X54771Y-39842D01*
X54771Y-39720D01*
X54779Y-39720D01*
X54779Y-39404D01*
X54719Y-39345D01*
X54678Y-39345D01*
X54632Y-39354D01*
X54588Y-39372D01*
X54549Y-39398D01*
X54520Y-39427D01*
X54311Y-39427D01*
X54281Y-39433D01*
X54252Y-39444D01*
X54226Y-39462D01*
X54204Y-39484D01*
X54187Y-39509D01*
X54175Y-39538D01*
X54169Y-39568D01*
X54169Y-39600D01*
X54169Y-39994D01*
X54175Y-40024D01*
X54187Y-40053D01*
X54204Y-40078D01*
X54226Y-40100D01*
X54252Y-40118D01*
X54257Y-40120D01*
X54257Y-40281D01*
X54259Y-40300D01*
X54261Y-40319D01*
X54261Y-40320D01*
X54261Y-40321D01*
X54266Y-40340D01*
X54272Y-40358D01*
X54272Y-40359D01*
X54273Y-40360D01*
X54282Y-40377D01*
X54290Y-40394D01*
X54291Y-40395D01*
X54292Y-40396D01*
X54304Y-40411D01*
X54316Y-40426D01*
X54317Y-40427D01*
X54317Y-40427D01*
X54317Y-40427D01*
X54318Y-40428D01*
X54592Y-40702D01*
X54592Y-40702D01*
X54516Y-40763D01*
X54454Y-40837D01*
X54408Y-40921D01*
X54408Y-40920D01*
X54358Y-40818D01*
X54289Y-40727D01*
X54204Y-40652D01*
X54106Y-40595D01*
X54014Y-40561D01*
X53925Y-40605D01*
X53925Y-41120D01*
X53933Y-41120D01*
X53933Y-41242D01*
X53925Y-41242D01*
X53925Y-41250D01*
X53804Y-41250D01*
X53804Y-41242D01*
X53796Y-41242D01*
X53796Y-41120D01*
X53804Y-41120D01*
X53804Y-40605D01*
X53714Y-40561D01*
X53622Y-40595D01*
X53524Y-40652D01*
X53439Y-40727D01*
X53371Y-40818D01*
X53321Y-40920D01*
X53321Y-40922D01*
X53279Y-40843D01*
X53217Y-40768D01*
X53143Y-40706D01*
X53072Y-40668D01*
X53072Y-40417D01*
X54150Y-39338D01*
X54464Y-39338D01*
X55007Y-39338D01*
X55007Y-39346D01*
X55001Y-39345D01*
X54960Y-39345D01*
X54900Y-39404D01*
X54900Y-39720D01*
X54908Y-39720D01*
X54908Y-39842D01*
X54900Y-39842D01*
X54900Y-40158D01*
X54960Y-40217D01*
X55001Y-40217D01*
X55047Y-40208D01*
X55091Y-40190D01*
X55130Y-40164D01*
X55159Y-40135D01*
X55368Y-40135D01*
X55398Y-40129D01*
X55427Y-40118D01*
X55453Y-40100D01*
X55475Y-40078D01*
X55492Y-40053D01*
X55504Y-40024D01*
X55510Y-39994D01*
X55510Y-39962D01*
X55510Y-39568D01*
X55504Y-39538D01*
X55492Y-39509D01*
X55475Y-39484D01*
X55453Y-39462D01*
X55427Y-39444D01*
X55422Y-39442D01*
X55422Y-39338D01*
X56457Y-39338D01*
X56457Y-39346D01*
X56451Y-39345D01*
X56410Y-39345D01*
X56350Y-39404D01*
X56350Y-39720D01*
X56358Y-39720D01*
X56358Y-39842D01*
X56350Y-39842D01*
X56350Y-40158D01*
X56410Y-40217D01*
X56451Y-40217D01*
X56497Y-40208D01*
X56541Y-40190D01*
X56580Y-40164D01*
X56609Y-40135D01*
X56818Y-40135D01*
X56848Y-40129D01*
X56877Y-40118D01*
X56903Y-40100D01*
X56925Y-40078D01*
X56942Y-40053D01*
X56954Y-40024D01*
X56960Y-39994D01*
X56960Y-39962D01*
X56960Y-39568D01*
X56954Y-39538D01*
X56942Y-39509D01*
X56925Y-39484D01*
X56903Y-39462D01*
X56877Y-39444D01*
X56872Y-39442D01*
X56872Y-39338D01*
X56964Y-39338D01*
X56984Y-39337D01*
X57003Y-39335D01*
X57004Y-39335D01*
X57005Y-39335D01*
X57023Y-39329D01*
X57042Y-39324D01*
X57042Y-39323D01*
X57044Y-39323D01*
X57060Y-39314D01*
X57077Y-39305D01*
X57078Y-39304D01*
X57079Y-39304D01*
X57094Y-39292D01*
X57109Y-39280D01*
X57111Y-39278D01*
X57111Y-39278D01*
X57111Y-39278D01*
X57111Y-39278D01*
X57161Y-39228D01*
X57173Y-39213D01*
X57186Y-39198D01*
X57186Y-39197D01*
X57187Y-39196D01*
X57196Y-39180D01*
X57205Y-39163D01*
X57205Y-39162D01*
X57206Y-39161D01*
X57212Y-39142D01*
X57217Y-39124D01*
X57218Y-39123D01*
X57218Y-39122D01*
X57220Y-39103D01*
X57222Y-39084D01*
X57222Y-39082D01*
X57222Y-39082D01*
X57222Y-39082D01*
X57222Y-39081D01*
X57222Y-38632D01*
X57261Y-38649D01*
X57292Y-38656D01*
X57271Y-38705D01*
X57257Y-38769D01*
X57257Y-38834D01*
X57268Y-38898D01*
X57292Y-38959D01*
X57328Y-39014D01*
X57373Y-39060D01*
X57426Y-39098D01*
X57486Y-39124D01*
X57550Y-39138D01*
X57615Y-39139D01*
X57679Y-39128D01*
X57740Y-39104D01*
X57795Y-39069D01*
X57842Y-39024D01*
X57880Y-38971D01*
X57906Y-38911D01*
X57921Y-38848D01*
X57921Y-38831D01*
X58171Y-38831D01*
X58175Y-38835D01*
X58200Y-38852D01*
X58229Y-38864D01*
X58259Y-38870D01*
X58290Y-38870D01*
X58857Y-38870D01*
G54D10*
G36*
X60790Y-36662D02*
X59993Y-37459D01*
X59981Y-37474D01*
X59968Y-37489D01*
X59968Y-37490D01*
X59967Y-37491D01*
X59958Y-37507D01*
X59949Y-37524D01*
X59948Y-37525D01*
X59948Y-37526D01*
X59942Y-37545D01*
X59937Y-37563D01*
X59936Y-37564D01*
X59936Y-37565D01*
X59934Y-37584D01*
X59932Y-37603D01*
X59932Y-37605D01*
X59932Y-37605D01*
X59932Y-37605D01*
X59932Y-37606D01*
X59932Y-37620D01*
X59219Y-38333D01*
X59219Y-38205D01*
X59213Y-38175D01*
X59204Y-38151D01*
X59213Y-38128D01*
X59219Y-38098D01*
X59219Y-38067D01*
X59219Y-37949D01*
X59248Y-37920D01*
X59274Y-37881D01*
X59292Y-37837D01*
X59301Y-37791D01*
X59301Y-37783D01*
X59241Y-37723D01*
X58729Y-37723D01*
X58729Y-37748D01*
X58608Y-37748D01*
X58608Y-37723D01*
X58095Y-37723D01*
X58036Y-37783D01*
X58036Y-37787D01*
X57201Y-37787D01*
X57182Y-37788D01*
X57163Y-37790D01*
X57162Y-37790D01*
X57161Y-37790D01*
X57143Y-37796D01*
X57124Y-37801D01*
X57123Y-37802D01*
X57122Y-37802D01*
X57105Y-37811D01*
X57088Y-37820D01*
X57088Y-37821D01*
X57087Y-37821D01*
X57072Y-37833D01*
X57057Y-37845D01*
X57055Y-37847D01*
X57055Y-37847D01*
X57055Y-37847D01*
X57055Y-37847D01*
X56927Y-37975D01*
X56923Y-37970D01*
X56877Y-37924D01*
X56823Y-37887D01*
X56763Y-37862D01*
X56699Y-37849D01*
X56634Y-37848D01*
X56570Y-37861D01*
X56510Y-37885D01*
X56497Y-37893D01*
X56497Y-37606D01*
X56495Y-37587D01*
X56493Y-37568D01*
X56493Y-37567D01*
X56493Y-37566D01*
X56487Y-37547D01*
X56482Y-37529D01*
X56482Y-37528D01*
X56481Y-37527D01*
X56472Y-37510D01*
X56463Y-37493D01*
X56463Y-37492D01*
X56462Y-37491D01*
X56450Y-37476D01*
X56438Y-37461D01*
X56437Y-37460D01*
X56437Y-37460D01*
X56437Y-37460D01*
X56436Y-37459D01*
X56415Y-37438D01*
X56564Y-37438D01*
X56584Y-37437D01*
X56603Y-37435D01*
X56604Y-37435D01*
X56605Y-37435D01*
X56623Y-37429D01*
X56642Y-37424D01*
X56642Y-37423D01*
X56644Y-37423D01*
X56660Y-37414D01*
X56677Y-37405D01*
X56678Y-37404D01*
X56679Y-37404D01*
X56694Y-37392D01*
X56709Y-37380D01*
X56711Y-37378D01*
X56711Y-37378D01*
X56711Y-37378D01*
X56711Y-37378D01*
X56850Y-37238D01*
X57203Y-37238D01*
X57203Y-37239D01*
X57248Y-37285D01*
X57301Y-37323D01*
X57361Y-37349D01*
X57425Y-37363D01*
X57490Y-37364D01*
X57554Y-37353D01*
X57615Y-37329D01*
X57670Y-37294D01*
X57717Y-37249D01*
X57755Y-37196D01*
X57781Y-37136D01*
X57796Y-37073D01*
X57797Y-36998D01*
X57784Y-36934D01*
X57759Y-36874D01*
X57723Y-36820D01*
X57677Y-36774D01*
X57623Y-36737D01*
X57563Y-36712D01*
X57499Y-36699D01*
X57434Y-36698D01*
X57370Y-36711D01*
X57310Y-36735D01*
X57255Y-36771D01*
X57209Y-36816D01*
X57204Y-36824D01*
X56764Y-36824D01*
X56745Y-36825D01*
X56726Y-36827D01*
X56725Y-36827D01*
X56724Y-36827D01*
X56706Y-36833D01*
X56687Y-36838D01*
X56686Y-36839D01*
X56685Y-36839D01*
X56668Y-36848D01*
X56651Y-36857D01*
X56651Y-36858D01*
X56650Y-36858D01*
X56635Y-36870D01*
X56620Y-36882D01*
X56618Y-36884D01*
X56618Y-36884D01*
X56618Y-36884D01*
X56618Y-36884D01*
X56479Y-37024D01*
X55450Y-37024D01*
X55322Y-36895D01*
X55307Y-36883D01*
X55293Y-36871D01*
X55292Y-36870D01*
X55291Y-36870D01*
X55274Y-36861D01*
X55257Y-36851D01*
X55256Y-36851D01*
X55255Y-36850D01*
X55237Y-36845D01*
X55219Y-36839D01*
X55218Y-36839D01*
X55216Y-36839D01*
X55197Y-36837D01*
X55178Y-36835D01*
X55176Y-36835D01*
X55176Y-36835D01*
X55176Y-36835D01*
X55175Y-36835D01*
X54056Y-36835D01*
X54056Y-36770D01*
X54050Y-36740D01*
X54039Y-36711D01*
X54021Y-36686D01*
X53999Y-36664D01*
X53974Y-36646D01*
X53945Y-36635D01*
X53914Y-36629D01*
X53883Y-36629D01*
X53814Y-36629D01*
X53816Y-36626D01*
X58118Y-36626D01*
X58117Y-36630D01*
X58117Y-36661D01*
X58117Y-36779D01*
X58089Y-36808D01*
X58063Y-36847D01*
X58045Y-36891D01*
X58036Y-36937D01*
X58036Y-36945D01*
X58095Y-37005D01*
X58608Y-37005D01*
X58608Y-36980D01*
X58729Y-36980D01*
X58729Y-37005D01*
X58737Y-37005D01*
X58737Y-37093D01*
X58729Y-37093D01*
X58729Y-37118D01*
X58608Y-37118D01*
X58608Y-37093D01*
X58095Y-37093D01*
X58036Y-37153D01*
X58036Y-37161D01*
X58045Y-37207D01*
X58063Y-37251D01*
X58089Y-37290D01*
X58117Y-37319D01*
X58117Y-37409D01*
X58089Y-37438D01*
X58063Y-37477D01*
X58045Y-37521D01*
X58036Y-37567D01*
X58036Y-37575D01*
X58095Y-37635D01*
X58608Y-37635D01*
X58608Y-37610D01*
X58729Y-37610D01*
X58729Y-37635D01*
X59241Y-37635D01*
X59301Y-37575D01*
X59301Y-37567D01*
X59293Y-37523D01*
X59332Y-37540D01*
X59395Y-37554D01*
X59461Y-37555D01*
X59525Y-37544D01*
X59586Y-37520D01*
X59641Y-37485D01*
X59688Y-37440D01*
X59725Y-37387D01*
X59752Y-37327D01*
X59766Y-37264D01*
X59767Y-37189D01*
X59766Y-37184D01*
X60289Y-36662D01*
X60790Y-36662D01*
X60790Y-36662D01*
G37*
G54D33*
X60790Y-36662D02*
X59993Y-37459D01*
X59981Y-37474D01*
X59968Y-37489D01*
X59968Y-37490D01*
X59967Y-37491D01*
X59958Y-37507D01*
X59949Y-37524D01*
X59948Y-37525D01*
X59948Y-37526D01*
X59942Y-37545D01*
X59937Y-37563D01*
X59936Y-37564D01*
X59936Y-37565D01*
X59934Y-37584D01*
X59932Y-37603D01*
X59932Y-37605D01*
X59932Y-37605D01*
X59932Y-37605D01*
X59932Y-37606D01*
X59932Y-37620D01*
X59219Y-38333D01*
X59219Y-38205D01*
X59213Y-38175D01*
X59204Y-38151D01*
X59213Y-38128D01*
X59219Y-38098D01*
X59219Y-38067D01*
X59219Y-37949D01*
X59248Y-37920D01*
X59274Y-37881D01*
X59292Y-37837D01*
X59301Y-37791D01*
X59301Y-37783D01*
X59241Y-37723D01*
X58729Y-37723D01*
X58729Y-37748D01*
X58608Y-37748D01*
X58608Y-37723D01*
X58095Y-37723D01*
X58036Y-37783D01*
X58036Y-37787D01*
X57201Y-37787D01*
X57182Y-37788D01*
X57163Y-37790D01*
X57162Y-37790D01*
X57161Y-37790D01*
X57143Y-37796D01*
X57124Y-37801D01*
X57123Y-37802D01*
X57122Y-37802D01*
X57105Y-37811D01*
X57088Y-37820D01*
X57088Y-37821D01*
X57087Y-37821D01*
X57072Y-37833D01*
X57057Y-37845D01*
X57055Y-37847D01*
X57055Y-37847D01*
X57055Y-37847D01*
X57055Y-37847D01*
X56927Y-37975D01*
X56923Y-37970D01*
X56877Y-37924D01*
X56823Y-37887D01*
X56763Y-37862D01*
X56699Y-37849D01*
X56634Y-37848D01*
X56570Y-37861D01*
X56510Y-37885D01*
X56497Y-37893D01*
X56497Y-37606D01*
X56495Y-37587D01*
X56493Y-37568D01*
X56493Y-37567D01*
X56493Y-37566D01*
X56487Y-37547D01*
X56482Y-37529D01*
X56482Y-37528D01*
X56481Y-37527D01*
X56472Y-37510D01*
X56463Y-37493D01*
X56463Y-37492D01*
X56462Y-37491D01*
X56450Y-37476D01*
X56438Y-37461D01*
X56437Y-37460D01*
X56437Y-37460D01*
X56437Y-37460D01*
X56436Y-37459D01*
X56415Y-37438D01*
X56564Y-37438D01*
X56584Y-37437D01*
X56603Y-37435D01*
X56604Y-37435D01*
X56605Y-37435D01*
X56623Y-37429D01*
X56642Y-37424D01*
X56642Y-37423D01*
X56644Y-37423D01*
X56660Y-37414D01*
X56677Y-37405D01*
X56678Y-37404D01*
X56679Y-37404D01*
X56694Y-37392D01*
X56709Y-37380D01*
X56711Y-37378D01*
X56711Y-37378D01*
X56711Y-37378D01*
X56711Y-37378D01*
X56850Y-37238D01*
X57203Y-37238D01*
X57203Y-37239D01*
X57248Y-37285D01*
X57301Y-37323D01*
X57361Y-37349D01*
X57425Y-37363D01*
X57490Y-37364D01*
X57554Y-37353D01*
X57615Y-37329D01*
X57670Y-37294D01*
X57717Y-37249D01*
X57755Y-37196D01*
X57781Y-37136D01*
X57796Y-37073D01*
X57797Y-36998D01*
X57784Y-36934D01*
X57759Y-36874D01*
X57723Y-36820D01*
X57677Y-36774D01*
X57623Y-36737D01*
X57563Y-36712D01*
X57499Y-36699D01*
X57434Y-36698D01*
X57370Y-36711D01*
X57310Y-36735D01*
X57255Y-36771D01*
X57209Y-36816D01*
X57204Y-36824D01*
X56764Y-36824D01*
X56745Y-36825D01*
X56726Y-36827D01*
X56725Y-36827D01*
X56724Y-36827D01*
X56706Y-36833D01*
X56687Y-36838D01*
X56686Y-36839D01*
X56685Y-36839D01*
X56668Y-36848D01*
X56651Y-36857D01*
X56651Y-36858D01*
X56650Y-36858D01*
X56635Y-36870D01*
X56620Y-36882D01*
X56618Y-36884D01*
X56618Y-36884D01*
X56618Y-36884D01*
X56618Y-36884D01*
X56479Y-37024D01*
X55450Y-37024D01*
X55322Y-36895D01*
X55307Y-36883D01*
X55293Y-36871D01*
X55292Y-36870D01*
X55291Y-36870D01*
X55274Y-36861D01*
X55257Y-36851D01*
X55256Y-36851D01*
X55255Y-36850D01*
X55237Y-36845D01*
X55219Y-36839D01*
X55218Y-36839D01*
X55216Y-36839D01*
X55197Y-36837D01*
X55178Y-36835D01*
X55176Y-36835D01*
X55176Y-36835D01*
X55176Y-36835D01*
X55175Y-36835D01*
X54056Y-36835D01*
X54056Y-36770D01*
X54050Y-36740D01*
X54039Y-36711D01*
X54021Y-36686D01*
X53999Y-36664D01*
X53974Y-36646D01*
X53945Y-36635D01*
X53914Y-36629D01*
X53883Y-36629D01*
X53814Y-36629D01*
X53816Y-36626D01*
X58118Y-36626D01*
X58117Y-36630D01*
X58117Y-36661D01*
X58117Y-36779D01*
X58089Y-36808D01*
X58063Y-36847D01*
X58045Y-36891D01*
X58036Y-36937D01*
X58036Y-36945D01*
X58095Y-37005D01*
X58608Y-37005D01*
X58608Y-36980D01*
X58729Y-36980D01*
X58729Y-37005D01*
X58737Y-37005D01*
X58737Y-37093D01*
X58729Y-37093D01*
X58729Y-37118D01*
X58608Y-37118D01*
X58608Y-37093D01*
X58095Y-37093D01*
X58036Y-37153D01*
X58036Y-37161D01*
X58045Y-37207D01*
X58063Y-37251D01*
X58089Y-37290D01*
X58117Y-37319D01*
X58117Y-37409D01*
X58089Y-37438D01*
X58063Y-37477D01*
X58045Y-37521D01*
X58036Y-37567D01*
X58036Y-37575D01*
X58095Y-37635D01*
X58608Y-37635D01*
X58608Y-37610D01*
X58729Y-37610D01*
X58729Y-37635D01*
X59241Y-37635D01*
X59301Y-37575D01*
X59301Y-37567D01*
X59293Y-37523D01*
X59332Y-37540D01*
X59395Y-37554D01*
X59461Y-37555D01*
X59525Y-37544D01*
X59586Y-37520D01*
X59641Y-37485D01*
X59688Y-37440D01*
X59725Y-37387D01*
X59752Y-37327D01*
X59766Y-37264D01*
X59767Y-37189D01*
X59766Y-37184D01*
X60289Y-36662D01*
X60790Y-36662D01*
G54D10*
G36*
X61657Y-34048D02*
X61634Y-34048D01*
X61570Y-34061D01*
X61510Y-34085D01*
X61455Y-34121D01*
X61437Y-34139D01*
X61437Y-33832D01*
X61384Y-33742D01*
X60925Y-33742D01*
X60925Y-34257D01*
X61014Y-34301D01*
X61106Y-34267D01*
X61204Y-34210D01*
X61289Y-34135D01*
X61358Y-34044D01*
X61408Y-33942D01*
X61437Y-33832D01*
X61437Y-34139D01*
X61409Y-34166D01*
X61372Y-34220D01*
X61346Y-34280D01*
X61332Y-34344D01*
X61332Y-34409D01*
X61343Y-34473D01*
X61363Y-34524D01*
X60864Y-34524D01*
X60845Y-34525D01*
X60826Y-34527D01*
X60825Y-34527D01*
X60824Y-34527D01*
X60806Y-34533D01*
X60787Y-34538D01*
X60786Y-34539D01*
X60785Y-34539D01*
X60768Y-34548D01*
X60751Y-34557D01*
X60751Y-34558D01*
X60750Y-34558D01*
X60735Y-34570D01*
X60720Y-34582D01*
X60718Y-34584D01*
X60718Y-34584D01*
X60718Y-34584D01*
X60718Y-34584D01*
X60566Y-34736D01*
X60554Y-34751D01*
X60541Y-34766D01*
X60541Y-34767D01*
X60540Y-34768D01*
X60531Y-34784D01*
X60522Y-34801D01*
X60521Y-34802D01*
X60521Y-34803D01*
X60515Y-34822D01*
X60510Y-34840D01*
X60509Y-34841D01*
X60509Y-34842D01*
X60507Y-34861D01*
X60505Y-34880D01*
X60505Y-34882D01*
X60505Y-34882D01*
X60505Y-34882D01*
X60505Y-34883D01*
X60505Y-34978D01*
X59911Y-34384D01*
X59896Y-34372D01*
X59882Y-34360D01*
X59881Y-34359D01*
X59880Y-34359D01*
X59863Y-34350D01*
X59846Y-34340D01*
X59845Y-34340D01*
X59844Y-34339D01*
X59826Y-34334D01*
X59808Y-34328D01*
X59807Y-34328D01*
X59805Y-34328D01*
X59786Y-34326D01*
X59767Y-34324D01*
X59765Y-34324D01*
X59765Y-34324D01*
X59765Y-34324D01*
X59764Y-34324D01*
X57339Y-34324D01*
X57320Y-34325D01*
X57301Y-34327D01*
X57300Y-34327D01*
X57299Y-34327D01*
X57281Y-34333D01*
X57262Y-34338D01*
X57261Y-34339D01*
X57260Y-34339D01*
X57243Y-34348D01*
X57226Y-34357D01*
X57226Y-34358D01*
X57225Y-34358D01*
X57210Y-34370D01*
X57195Y-34382D01*
X57193Y-34384D01*
X57193Y-34384D01*
X57193Y-34384D01*
X57193Y-34384D01*
X57145Y-34432D01*
X57141Y-34410D01*
X57129Y-34381D01*
X57112Y-34356D01*
X57090Y-34334D01*
X57072Y-34322D01*
X57072Y-34194D01*
X57137Y-34160D01*
X57213Y-34099D01*
X57275Y-34025D01*
X57322Y-33940D01*
X57351Y-33847D01*
X57362Y-33751D01*
X57362Y-33744D01*
X57362Y-33618D01*
X57352Y-33522D01*
X57324Y-33429D01*
X57279Y-33343D01*
X57217Y-33268D01*
X57143Y-33206D01*
X57057Y-33160D01*
X57046Y-33156D01*
X57051Y-33155D01*
X57137Y-33110D01*
X57213Y-33049D01*
X57275Y-32975D01*
X57322Y-32890D01*
X57351Y-32797D01*
X57362Y-32701D01*
X57362Y-32694D01*
X57362Y-32568D01*
X57352Y-32472D01*
X57324Y-32379D01*
X57279Y-32293D01*
X57220Y-32220D01*
X57510Y-32220D01*
X57454Y-32287D01*
X57407Y-32372D01*
X57378Y-32465D01*
X57367Y-32561D01*
X57367Y-32568D01*
X57367Y-32694D01*
X57376Y-32790D01*
X57405Y-32883D01*
X57450Y-32969D01*
X57511Y-33044D01*
X57586Y-33106D01*
X57628Y-33129D01*
X57628Y-33183D01*
X57592Y-33202D01*
X57516Y-33263D01*
X57454Y-33337D01*
X57407Y-33422D01*
X57378Y-33515D01*
X57367Y-33611D01*
X57367Y-33618D01*
X57367Y-33744D01*
X57376Y-33840D01*
X57405Y-33933D01*
X57450Y-34019D01*
X57511Y-34094D01*
X57586Y-34156D01*
X57672Y-34202D01*
X57764Y-34231D01*
X57861Y-34241D01*
X57958Y-34232D01*
X58051Y-34205D01*
X58137Y-34160D01*
X58213Y-34099D01*
X58275Y-34025D01*
X58322Y-33940D01*
X58351Y-33847D01*
X58362Y-33751D01*
X58362Y-33744D01*
X58362Y-33618D01*
X58352Y-33522D01*
X58324Y-33429D01*
X58279Y-33343D01*
X58217Y-33268D01*
X58143Y-33206D01*
X58101Y-33183D01*
X58101Y-33129D01*
X58137Y-33110D01*
X58213Y-33049D01*
X58275Y-32975D01*
X58322Y-32890D01*
X58351Y-32797D01*
X58362Y-32701D01*
X58362Y-32694D01*
X58362Y-32568D01*
X58352Y-32472D01*
X58324Y-32379D01*
X58279Y-32293D01*
X58220Y-32220D01*
X58510Y-32220D01*
X58454Y-32287D01*
X58407Y-32372D01*
X58378Y-32465D01*
X58367Y-32561D01*
X58367Y-32568D01*
X58367Y-32694D01*
X58376Y-32790D01*
X58405Y-32883D01*
X58450Y-32969D01*
X58511Y-33044D01*
X58586Y-33106D01*
X58628Y-33129D01*
X58628Y-33183D01*
X58592Y-33202D01*
X58516Y-33263D01*
X58454Y-33337D01*
X58407Y-33422D01*
X58378Y-33515D01*
X58367Y-33611D01*
X58367Y-33618D01*
X58367Y-33744D01*
X58376Y-33840D01*
X58405Y-33933D01*
X58450Y-34019D01*
X58511Y-34094D01*
X58586Y-34156D01*
X58672Y-34202D01*
X58764Y-34231D01*
X58861Y-34241D01*
X58958Y-34232D01*
X59051Y-34205D01*
X59137Y-34160D01*
X59213Y-34099D01*
X59275Y-34025D01*
X59322Y-33940D01*
X59351Y-33847D01*
X59362Y-33751D01*
X59362Y-33744D01*
X59362Y-33618D01*
X59352Y-33522D01*
X59324Y-33429D01*
X59279Y-33343D01*
X59217Y-33268D01*
X59143Y-33206D01*
X59101Y-33183D01*
X59101Y-33129D01*
X59137Y-33110D01*
X59213Y-33049D01*
X59275Y-32975D01*
X59322Y-32890D01*
X59351Y-32797D01*
X59362Y-32701D01*
X59362Y-32694D01*
X59362Y-32568D01*
X59352Y-32472D01*
X59324Y-32379D01*
X59279Y-32293D01*
X59220Y-32220D01*
X59510Y-32220D01*
X59454Y-32287D01*
X59407Y-32372D01*
X59378Y-32465D01*
X59367Y-32561D01*
X59367Y-32568D01*
X59367Y-32694D01*
X59376Y-32790D01*
X59405Y-32883D01*
X59450Y-32969D01*
X59511Y-33044D01*
X59586Y-33106D01*
X59628Y-33129D01*
X59628Y-33183D01*
X59592Y-33202D01*
X59516Y-33263D01*
X59454Y-33337D01*
X59407Y-33422D01*
X59378Y-33515D01*
X59367Y-33611D01*
X59367Y-33618D01*
X59367Y-33744D01*
X59376Y-33840D01*
X59405Y-33933D01*
X59450Y-34019D01*
X59511Y-34094D01*
X59586Y-34156D01*
X59672Y-34202D01*
X59764Y-34231D01*
X59861Y-34241D01*
X59958Y-34232D01*
X60051Y-34205D01*
X60137Y-34160D01*
X60213Y-34099D01*
X60275Y-34025D01*
X60321Y-33941D01*
X60321Y-33942D01*
X60371Y-34044D01*
X60439Y-34135D01*
X60524Y-34210D01*
X60622Y-34267D01*
X60714Y-34301D01*
X60804Y-34257D01*
X60804Y-33742D01*
X60796Y-33742D01*
X60796Y-33620D01*
X60804Y-33620D01*
X60804Y-33207D01*
X60804Y-33105D01*
X60804Y-32692D01*
X60796Y-32692D01*
X60796Y-32570D01*
X60804Y-32570D01*
X60804Y-32562D01*
X60925Y-32562D01*
X60925Y-32570D01*
X60933Y-32570D01*
X60933Y-32692D01*
X60925Y-32692D01*
X60925Y-33105D01*
X60925Y-33207D01*
X60925Y-33620D01*
X61384Y-33620D01*
X61437Y-33530D01*
X61408Y-33420D01*
X61358Y-33318D01*
X61289Y-33227D01*
X61209Y-33156D01*
X61289Y-33085D01*
X61358Y-32994D01*
X61408Y-32892D01*
X61408Y-32890D01*
X61450Y-32969D01*
X61511Y-33044D01*
X61586Y-33106D01*
X61657Y-33144D01*
X61657Y-33581D01*
X61657Y-34048D01*
X61657Y-34048D01*
G37*
G54D33*
X61657Y-34048D02*
X61634Y-34048D01*
X61570Y-34061D01*
X61510Y-34085D01*
X61455Y-34121D01*
X61437Y-34139D01*
X61437Y-33832D01*
X61384Y-33742D01*
X60925Y-33742D01*
X60925Y-34257D01*
X61014Y-34301D01*
X61106Y-34267D01*
X61204Y-34210D01*
X61289Y-34135D01*
X61358Y-34044D01*
X61408Y-33942D01*
X61437Y-33832D01*
X61437Y-34139D01*
X61409Y-34166D01*
X61372Y-34220D01*
X61346Y-34280D01*
X61332Y-34344D01*
X61332Y-34409D01*
X61343Y-34473D01*
X61363Y-34524D01*
X60864Y-34524D01*
X60845Y-34525D01*
X60826Y-34527D01*
X60825Y-34527D01*
X60824Y-34527D01*
X60806Y-34533D01*
X60787Y-34538D01*
X60786Y-34539D01*
X60785Y-34539D01*
X60768Y-34548D01*
X60751Y-34557D01*
X60751Y-34558D01*
X60750Y-34558D01*
X60735Y-34570D01*
X60720Y-34582D01*
X60718Y-34584D01*
X60718Y-34584D01*
X60718Y-34584D01*
X60718Y-34584D01*
X60566Y-34736D01*
X60554Y-34751D01*
X60541Y-34766D01*
X60541Y-34767D01*
X60540Y-34768D01*
X60531Y-34784D01*
X60522Y-34801D01*
X60521Y-34802D01*
X60521Y-34803D01*
X60515Y-34822D01*
X60510Y-34840D01*
X60509Y-34841D01*
X60509Y-34842D01*
X60507Y-34861D01*
X60505Y-34880D01*
X60505Y-34882D01*
X60505Y-34882D01*
X60505Y-34882D01*
X60505Y-34883D01*
X60505Y-34978D01*
X59911Y-34384D01*
X59896Y-34372D01*
X59882Y-34360D01*
X59881Y-34359D01*
X59880Y-34359D01*
X59863Y-34350D01*
X59846Y-34340D01*
X59845Y-34340D01*
X59844Y-34339D01*
X59826Y-34334D01*
X59808Y-34328D01*
X59807Y-34328D01*
X59805Y-34328D01*
X59786Y-34326D01*
X59767Y-34324D01*
X59765Y-34324D01*
X59765Y-34324D01*
X59765Y-34324D01*
X59764Y-34324D01*
X57339Y-34324D01*
X57320Y-34325D01*
X57301Y-34327D01*
X57300Y-34327D01*
X57299Y-34327D01*
X57281Y-34333D01*
X57262Y-34338D01*
X57261Y-34339D01*
X57260Y-34339D01*
X57243Y-34348D01*
X57226Y-34357D01*
X57226Y-34358D01*
X57225Y-34358D01*
X57210Y-34370D01*
X57195Y-34382D01*
X57193Y-34384D01*
X57193Y-34384D01*
X57193Y-34384D01*
X57193Y-34384D01*
X57145Y-34432D01*
X57141Y-34410D01*
X57129Y-34381D01*
X57112Y-34356D01*
X57090Y-34334D01*
X57072Y-34322D01*
X57072Y-34194D01*
X57137Y-34160D01*
X57213Y-34099D01*
X57275Y-34025D01*
X57322Y-33940D01*
X57351Y-33847D01*
X57362Y-33751D01*
X57362Y-33744D01*
X57362Y-33618D01*
X57352Y-33522D01*
X57324Y-33429D01*
X57279Y-33343D01*
X57217Y-33268D01*
X57143Y-33206D01*
X57057Y-33160D01*
X57046Y-33156D01*
X57051Y-33155D01*
X57137Y-33110D01*
X57213Y-33049D01*
X57275Y-32975D01*
X57322Y-32890D01*
X57351Y-32797D01*
X57362Y-32701D01*
X57362Y-32694D01*
X57362Y-32568D01*
X57352Y-32472D01*
X57324Y-32379D01*
X57279Y-32293D01*
X57220Y-32220D01*
X57510Y-32220D01*
X57454Y-32287D01*
X57407Y-32372D01*
X57378Y-32465D01*
X57367Y-32561D01*
X57367Y-32568D01*
X57367Y-32694D01*
X57376Y-32790D01*
X57405Y-32883D01*
X57450Y-32969D01*
X57511Y-33044D01*
X57586Y-33106D01*
X57628Y-33129D01*
X57628Y-33183D01*
X57592Y-33202D01*
X57516Y-33263D01*
X57454Y-33337D01*
X57407Y-33422D01*
X57378Y-33515D01*
X57367Y-33611D01*
X57367Y-33618D01*
X57367Y-33744D01*
X57376Y-33840D01*
X57405Y-33933D01*
X57450Y-34019D01*
X57511Y-34094D01*
X57586Y-34156D01*
X57672Y-34202D01*
X57764Y-34231D01*
X57861Y-34241D01*
X57958Y-34232D01*
X58051Y-34205D01*
X58137Y-34160D01*
X58213Y-34099D01*
X58275Y-34025D01*
X58322Y-33940D01*
X58351Y-33847D01*
X58362Y-33751D01*
X58362Y-33744D01*
X58362Y-33618D01*
X58352Y-33522D01*
X58324Y-33429D01*
X58279Y-33343D01*
X58217Y-33268D01*
X58143Y-33206D01*
X58101Y-33183D01*
X58101Y-33129D01*
X58137Y-33110D01*
X58213Y-33049D01*
X58275Y-32975D01*
X58322Y-32890D01*
X58351Y-32797D01*
X58362Y-32701D01*
X58362Y-32694D01*
X58362Y-32568D01*
X58352Y-32472D01*
X58324Y-32379D01*
X58279Y-32293D01*
X58220Y-32220D01*
X58510Y-32220D01*
X58454Y-32287D01*
X58407Y-32372D01*
X58378Y-32465D01*
X58367Y-32561D01*
X58367Y-32568D01*
X58367Y-32694D01*
X58376Y-32790D01*
X58405Y-32883D01*
X58450Y-32969D01*
X58511Y-33044D01*
X58586Y-33106D01*
X58628Y-33129D01*
X58628Y-33183D01*
X58592Y-33202D01*
X58516Y-33263D01*
X58454Y-33337D01*
X58407Y-33422D01*
X58378Y-33515D01*
X58367Y-33611D01*
X58367Y-33618D01*
X58367Y-33744D01*
X58376Y-33840D01*
X58405Y-33933D01*
X58450Y-34019D01*
X58511Y-34094D01*
X58586Y-34156D01*
X58672Y-34202D01*
X58764Y-34231D01*
X58861Y-34241D01*
X58958Y-34232D01*
X59051Y-34205D01*
X59137Y-34160D01*
X59213Y-34099D01*
X59275Y-34025D01*
X59322Y-33940D01*
X59351Y-33847D01*
X59362Y-33751D01*
X59362Y-33744D01*
X59362Y-33618D01*
X59352Y-33522D01*
X59324Y-33429D01*
X59279Y-33343D01*
X59217Y-33268D01*
X59143Y-33206D01*
X59101Y-33183D01*
X59101Y-33129D01*
X59137Y-33110D01*
X59213Y-33049D01*
X59275Y-32975D01*
X59322Y-32890D01*
X59351Y-32797D01*
X59362Y-32701D01*
X59362Y-32694D01*
X59362Y-32568D01*
X59352Y-32472D01*
X59324Y-32379D01*
X59279Y-32293D01*
X59220Y-32220D01*
X59510Y-32220D01*
X59454Y-32287D01*
X59407Y-32372D01*
X59378Y-32465D01*
X59367Y-32561D01*
X59367Y-32568D01*
X59367Y-32694D01*
X59376Y-32790D01*
X59405Y-32883D01*
X59450Y-32969D01*
X59511Y-33044D01*
X59586Y-33106D01*
X59628Y-33129D01*
X59628Y-33183D01*
X59592Y-33202D01*
X59516Y-33263D01*
X59454Y-33337D01*
X59407Y-33422D01*
X59378Y-33515D01*
X59367Y-33611D01*
X59367Y-33618D01*
X59367Y-33744D01*
X59376Y-33840D01*
X59405Y-33933D01*
X59450Y-34019D01*
X59511Y-34094D01*
X59586Y-34156D01*
X59672Y-34202D01*
X59764Y-34231D01*
X59861Y-34241D01*
X59958Y-34232D01*
X60051Y-34205D01*
X60137Y-34160D01*
X60213Y-34099D01*
X60275Y-34025D01*
X60321Y-33941D01*
X60321Y-33942D01*
X60371Y-34044D01*
X60439Y-34135D01*
X60524Y-34210D01*
X60622Y-34267D01*
X60714Y-34301D01*
X60804Y-34257D01*
X60804Y-33742D01*
X60796Y-33742D01*
X60796Y-33620D01*
X60804Y-33620D01*
X60804Y-33207D01*
X60804Y-33105D01*
X60804Y-32692D01*
X60796Y-32692D01*
X60796Y-32570D01*
X60804Y-32570D01*
X60804Y-32562D01*
X60925Y-32562D01*
X60925Y-32570D01*
X60933Y-32570D01*
X60933Y-32692D01*
X60925Y-32692D01*
X60925Y-33105D01*
X60925Y-33207D01*
X60925Y-33620D01*
X61384Y-33620D01*
X61437Y-33530D01*
X61408Y-33420D01*
X61358Y-33318D01*
X61289Y-33227D01*
X61209Y-33156D01*
X61289Y-33085D01*
X61358Y-32994D01*
X61408Y-32892D01*
X61408Y-32890D01*
X61450Y-32969D01*
X61511Y-33044D01*
X61586Y-33106D01*
X61657Y-33144D01*
X61657Y-33581D01*
X61657Y-34048D01*
G54D10*
G36*
X66275Y-40640D02*
X66250Y-40630D01*
X66220Y-40624D01*
X66189Y-40624D01*
X66072Y-40624D01*
X66072Y-40331D01*
X66070Y-40312D01*
X66068Y-40293D01*
X66068Y-40292D01*
X66068Y-40291D01*
X66062Y-40272D01*
X66057Y-40254D01*
X66057Y-40253D01*
X66056Y-40252D01*
X66047Y-40235D01*
X66038Y-40218D01*
X66038Y-40217D01*
X66037Y-40216D01*
X66025Y-40201D01*
X66013Y-40186D01*
X66012Y-40185D01*
X66012Y-40185D01*
X66012Y-40185D01*
X66011Y-40184D01*
X64897Y-39070D01*
X64897Y-36123D01*
X64884Y-36059D01*
X64859Y-35999D01*
X64823Y-35945D01*
X64777Y-35899D01*
X64723Y-35862D01*
X64663Y-35837D01*
X64599Y-35824D01*
X64534Y-35823D01*
X64470Y-35836D01*
X64410Y-35860D01*
X64355Y-35896D01*
X64309Y-35941D01*
X64304Y-35949D01*
X63822Y-35949D01*
X63822Y-35923D01*
X63809Y-35859D01*
X63784Y-35799D01*
X63748Y-35745D01*
X63702Y-35699D01*
X63648Y-35662D01*
X63588Y-35637D01*
X63524Y-35624D01*
X63459Y-35623D01*
X63395Y-35636D01*
X63335Y-35660D01*
X63280Y-35696D01*
X63234Y-35741D01*
X63197Y-35795D01*
X63171Y-35855D01*
X63157Y-35919D01*
X63157Y-35984D01*
X63158Y-35994D01*
X62939Y-36214D01*
X62932Y-36214D01*
X62928Y-36210D01*
X62903Y-36193D01*
X62874Y-36181D01*
X62843Y-36175D01*
X62812Y-36175D01*
X62025Y-36175D01*
X61995Y-36181D01*
X61966Y-36193D01*
X61941Y-36210D01*
X61919Y-36232D01*
X61901Y-36258D01*
X61890Y-36287D01*
X61883Y-36317D01*
X61883Y-36348D01*
X61883Y-36525D01*
X61890Y-36555D01*
X61898Y-36576D01*
X61890Y-36597D01*
X61883Y-36627D01*
X61883Y-36658D01*
X61883Y-36835D01*
X61890Y-36865D01*
X61900Y-36891D01*
X61890Y-36917D01*
X61883Y-36947D01*
X61883Y-36978D01*
X61883Y-37091D01*
X61855Y-37120D01*
X61829Y-37159D01*
X61811Y-37203D01*
X61802Y-37249D01*
X61802Y-37257D01*
X61861Y-37317D01*
X62374Y-37317D01*
X62374Y-37297D01*
X62495Y-37297D01*
X62495Y-37317D01*
X63007Y-37317D01*
X63067Y-37257D01*
X63067Y-37249D01*
X63058Y-37203D01*
X63040Y-37159D01*
X63014Y-37120D01*
X62985Y-37091D01*
X62985Y-36947D01*
X62984Y-36938D01*
X63039Y-36938D01*
X63059Y-36937D01*
X63078Y-36935D01*
X63079Y-36935D01*
X63080Y-36935D01*
X63098Y-36929D01*
X63117Y-36924D01*
X63117Y-36923D01*
X63119Y-36923D01*
X63135Y-36914D01*
X63152Y-36905D01*
X63153Y-36904D01*
X63154Y-36904D01*
X63169Y-36892D01*
X63184Y-36880D01*
X63186Y-36878D01*
X63186Y-36878D01*
X63186Y-36878D01*
X63186Y-36878D01*
X63546Y-36517D01*
X63611Y-36517D01*
X63630Y-36516D01*
X63649Y-36514D01*
X63650Y-36514D01*
X63651Y-36513D01*
X63669Y-36508D01*
X63688Y-36503D01*
X63689Y-36502D01*
X63690Y-36502D01*
X63707Y-36493D01*
X63724Y-36484D01*
X63724Y-36483D01*
X63725Y-36483D01*
X63740Y-36471D01*
X63755Y-36459D01*
X63757Y-36457D01*
X63757Y-36457D01*
X63757Y-36457D01*
X63757Y-36457D01*
X63850Y-36363D01*
X64303Y-36363D01*
X64303Y-36364D01*
X64348Y-36410D01*
X64401Y-36448D01*
X64461Y-36474D01*
X64525Y-36488D01*
X64590Y-36489D01*
X64654Y-36478D01*
X64715Y-36454D01*
X64770Y-36419D01*
X64817Y-36374D01*
X64855Y-36321D01*
X64881Y-36261D01*
X64896Y-36198D01*
X64897Y-36123D01*
X64897Y-39070D01*
X64436Y-38609D01*
X64421Y-38597D01*
X64407Y-38585D01*
X64406Y-38584D01*
X64405Y-38584D01*
X64388Y-38575D01*
X64371Y-38565D01*
X64370Y-38565D01*
X64369Y-38564D01*
X64351Y-38559D01*
X64333Y-38553D01*
X64332Y-38553D01*
X64330Y-38553D01*
X64311Y-38551D01*
X64292Y-38549D01*
X64290Y-38549D01*
X64290Y-38549D01*
X64290Y-38549D01*
X64289Y-38549D01*
X63838Y-38549D01*
X63851Y-38529D01*
X63863Y-38500D01*
X63867Y-38478D01*
X63877Y-38475D01*
X63896Y-38470D01*
X63896Y-38469D01*
X63898Y-38469D01*
X63914Y-38460D01*
X63931Y-38451D01*
X63932Y-38450D01*
X63933Y-38450D01*
X63948Y-38438D01*
X63952Y-38435D01*
X63965Y-38455D01*
X63987Y-38477D01*
X64013Y-38495D01*
X64042Y-38506D01*
X64072Y-38512D01*
X64103Y-38512D01*
X64497Y-38512D01*
X64527Y-38506D01*
X64556Y-38495D01*
X64582Y-38477D01*
X64604Y-38455D01*
X64621Y-38430D01*
X64633Y-38401D01*
X64639Y-38371D01*
X64639Y-38339D01*
X64639Y-37591D01*
X64633Y-37561D01*
X64621Y-37532D01*
X64604Y-37507D01*
X64582Y-37485D01*
X64556Y-37467D01*
X64527Y-37456D01*
X64497Y-37450D01*
X64466Y-37450D01*
X64072Y-37450D01*
X64042Y-37456D01*
X64013Y-37467D01*
X63987Y-37485D01*
X63965Y-37507D01*
X63951Y-37528D01*
X63951Y-37484D01*
X63942Y-37438D01*
X63924Y-37395D01*
X63897Y-37355D01*
X63864Y-37322D01*
X63825Y-37296D01*
X63781Y-37278D01*
X63735Y-37269D01*
X63688Y-37269D01*
X63635Y-37269D01*
X63575Y-37328D01*
X63575Y-37624D01*
X63583Y-37624D01*
X63583Y-37746D01*
X63575Y-37746D01*
X63575Y-37754D01*
X63454Y-37754D01*
X63454Y-37746D01*
X63446Y-37746D01*
X63446Y-37624D01*
X63454Y-37624D01*
X63454Y-37328D01*
X63394Y-37269D01*
X63341Y-37269D01*
X63294Y-37269D01*
X63248Y-37278D01*
X63204Y-37296D01*
X63165Y-37322D01*
X63132Y-37355D01*
X63105Y-37395D01*
X63087Y-37438D01*
X63078Y-37484D01*
X63078Y-37560D01*
X63053Y-37534D01*
X63052Y-37534D01*
X63058Y-37519D01*
X63067Y-37473D01*
X63067Y-37465D01*
X63007Y-37405D01*
X62495Y-37405D01*
X62495Y-37430D01*
X62374Y-37430D01*
X62374Y-37405D01*
X61861Y-37405D01*
X61802Y-37465D01*
X61802Y-37473D01*
X61811Y-37519D01*
X61829Y-37563D01*
X61855Y-37602D01*
X61883Y-37631D01*
X61883Y-37785D01*
X61890Y-37815D01*
X61898Y-37836D01*
X61890Y-37857D01*
X61883Y-37887D01*
X61883Y-37918D01*
X61883Y-38095D01*
X61890Y-38125D01*
X61900Y-38151D01*
X61890Y-38177D01*
X61883Y-38207D01*
X61883Y-38238D01*
X61883Y-38307D01*
X61722Y-38145D01*
X61722Y-38093D01*
X61767Y-38049D01*
X61805Y-37996D01*
X61831Y-37936D01*
X61846Y-37873D01*
X61847Y-37798D01*
X61834Y-37734D01*
X61809Y-37674D01*
X61773Y-37620D01*
X61727Y-37574D01*
X61673Y-37537D01*
X61613Y-37512D01*
X61549Y-37499D01*
X61484Y-37498D01*
X61420Y-37511D01*
X61360Y-37535D01*
X61305Y-37571D01*
X61259Y-37616D01*
X61222Y-37670D01*
X61196Y-37730D01*
X61182Y-37794D01*
X61182Y-37859D01*
X61189Y-37899D01*
X61140Y-37898D01*
X61146Y-37873D01*
X61147Y-37798D01*
X61134Y-37734D01*
X61109Y-37674D01*
X61073Y-37620D01*
X61027Y-37574D01*
X60973Y-37537D01*
X60913Y-37512D01*
X60883Y-37506D01*
X61803Y-36586D01*
X61815Y-36571D01*
X61828Y-36556D01*
X61828Y-36555D01*
X61829Y-36554D01*
X61838Y-36538D01*
X61847Y-36521D01*
X61847Y-36520D01*
X61848Y-36519D01*
X61854Y-36500D01*
X61859Y-36482D01*
X61860Y-36481D01*
X61860Y-36480D01*
X61862Y-36461D01*
X61864Y-36442D01*
X61864Y-36440D01*
X61864Y-36440D01*
X61864Y-36440D01*
X61864Y-36439D01*
X61864Y-36128D01*
X61867Y-36125D01*
X61885Y-36099D01*
X61896Y-36070D01*
X61902Y-36040D01*
X61902Y-36009D01*
X61902Y-35222D01*
X61896Y-35192D01*
X61895Y-35188D01*
X62614Y-35188D01*
X62634Y-35187D01*
X62653Y-35185D01*
X62654Y-35185D01*
X62655Y-35185D01*
X62673Y-35179D01*
X62692Y-35174D01*
X62692Y-35173D01*
X62694Y-35173D01*
X62710Y-35164D01*
X62727Y-35155D01*
X62728Y-35154D01*
X62729Y-35154D01*
X62744Y-35142D01*
X62759Y-35130D01*
X62761Y-35128D01*
X62761Y-35128D01*
X62761Y-35128D01*
X62761Y-35128D01*
X63011Y-34878D01*
X63023Y-34863D01*
X63036Y-34848D01*
X63036Y-34847D01*
X63037Y-34846D01*
X63046Y-34830D01*
X63055Y-34813D01*
X63055Y-34812D01*
X63056Y-34811D01*
X63062Y-34792D01*
X63067Y-34774D01*
X63068Y-34773D01*
X63068Y-34772D01*
X63070Y-34753D01*
X63072Y-34734D01*
X63072Y-34732D01*
X63072Y-34732D01*
X63072Y-34732D01*
X63072Y-34731D01*
X63072Y-34640D01*
X63090Y-34628D01*
X63112Y-34606D01*
X63129Y-34581D01*
X63141Y-34552D01*
X63147Y-34522D01*
X63147Y-34490D01*
X63147Y-34488D01*
X63314Y-34488D01*
X63334Y-34487D01*
X63353Y-34485D01*
X63354Y-34485D01*
X63355Y-34485D01*
X63373Y-34479D01*
X63392Y-34474D01*
X63392Y-34473D01*
X63394Y-34473D01*
X63410Y-34464D01*
X63427Y-34455D01*
X63428Y-34454D01*
X63429Y-34454D01*
X63444Y-34442D01*
X63459Y-34430D01*
X63461Y-34428D01*
X63461Y-34428D01*
X63461Y-34428D01*
X63461Y-34428D01*
X64011Y-33878D01*
X64023Y-33863D01*
X64036Y-33848D01*
X64036Y-33847D01*
X64037Y-33846D01*
X64046Y-33830D01*
X64055Y-33813D01*
X64055Y-33812D01*
X64056Y-33811D01*
X64062Y-33792D01*
X64067Y-33774D01*
X64068Y-33773D01*
X64068Y-33772D01*
X64070Y-33753D01*
X64072Y-33734D01*
X64072Y-33732D01*
X64072Y-33732D01*
X64072Y-33732D01*
X64072Y-33731D01*
X64072Y-33144D01*
X64137Y-33110D01*
X64213Y-33049D01*
X64275Y-32975D01*
X64321Y-32891D01*
X64321Y-32892D01*
X64371Y-32994D01*
X64439Y-33085D01*
X64524Y-33160D01*
X64622Y-33217D01*
X64714Y-33251D01*
X64804Y-33207D01*
X64804Y-32692D01*
X64796Y-32692D01*
X64796Y-32570D01*
X64804Y-32570D01*
X64804Y-32562D01*
X64925Y-32562D01*
X64925Y-32570D01*
X64933Y-32570D01*
X64933Y-32692D01*
X64925Y-32692D01*
X64925Y-33207D01*
X65014Y-33251D01*
X65106Y-33217D01*
X65204Y-33160D01*
X65289Y-33085D01*
X65358Y-32994D01*
X65408Y-32892D01*
X65408Y-32890D01*
X65450Y-32969D01*
X65511Y-33044D01*
X65586Y-33106D01*
X65657Y-33144D01*
X65657Y-33670D01*
X65398Y-33929D01*
X65386Y-33944D01*
X65373Y-33959D01*
X65373Y-33960D01*
X65372Y-33961D01*
X65363Y-33977D01*
X65354Y-33994D01*
X65353Y-33995D01*
X65353Y-33996D01*
X65347Y-34015D01*
X65342Y-34033D01*
X65341Y-34034D01*
X65341Y-34035D01*
X65339Y-34054D01*
X65337Y-34073D01*
X65337Y-34075D01*
X65337Y-34075D01*
X65337Y-34075D01*
X65337Y-34076D01*
X65337Y-34549D01*
X64929Y-34549D01*
X64904Y-34524D01*
X64850Y-34487D01*
X64790Y-34462D01*
X64726Y-34449D01*
X64661Y-34448D01*
X64597Y-34461D01*
X64536Y-34485D01*
X64481Y-34521D01*
X64435Y-34566D01*
X64398Y-34620D01*
X64372Y-34680D01*
X64359Y-34744D01*
X64358Y-34809D01*
X64370Y-34873D01*
X64394Y-34934D01*
X64429Y-34989D01*
X64474Y-35035D01*
X64528Y-35073D01*
X64588Y-35099D01*
X64651Y-35113D01*
X64716Y-35114D01*
X64781Y-35103D01*
X64841Y-35079D01*
X64897Y-35044D01*
X64944Y-34999D01*
X64969Y-34963D01*
X65337Y-34963D01*
X65337Y-37450D01*
X65332Y-37450D01*
X65302Y-37456D01*
X65273Y-37467D01*
X65247Y-37485D01*
X65225Y-37507D01*
X65208Y-37532D01*
X65196Y-37561D01*
X65190Y-37591D01*
X65190Y-37623D01*
X65190Y-38371D01*
X65196Y-38401D01*
X65208Y-38430D01*
X65225Y-38455D01*
X65247Y-38477D01*
X65273Y-38495D01*
X65302Y-38506D01*
X65332Y-38512D01*
X65363Y-38512D01*
X65757Y-38512D01*
X65787Y-38506D01*
X65816Y-38495D01*
X65842Y-38477D01*
X65864Y-38455D01*
X65881Y-38430D01*
X65893Y-38401D01*
X65899Y-38371D01*
X65899Y-38339D01*
X65899Y-37591D01*
X65893Y-37561D01*
X65881Y-37532D01*
X65864Y-37507D01*
X65842Y-37485D01*
X65816Y-37467D01*
X65787Y-37456D01*
X65757Y-37450D01*
X65752Y-37450D01*
X65752Y-34756D01*
X65752Y-34162D01*
X66011Y-33903D01*
X66023Y-33888D01*
X66036Y-33873D01*
X66036Y-33872D01*
X66037Y-33871D01*
X66046Y-33855D01*
X66055Y-33838D01*
X66055Y-33837D01*
X66056Y-33836D01*
X66062Y-33817D01*
X66067Y-33799D01*
X66068Y-33798D01*
X66068Y-33797D01*
X66070Y-33778D01*
X66072Y-33759D01*
X66072Y-33757D01*
X66072Y-33757D01*
X66072Y-33757D01*
X66072Y-33756D01*
X66072Y-33144D01*
X66137Y-33110D01*
X66213Y-33049D01*
X66275Y-32975D01*
X66275Y-32974D01*
X66275Y-40640D01*
X66275Y-40640D01*
G37*
G54D33*
X66275Y-40640D02*
X66250Y-40630D01*
X66220Y-40624D01*
X66189Y-40624D01*
X66072Y-40624D01*
X66072Y-40331D01*
X66070Y-40312D01*
X66068Y-40293D01*
X66068Y-40292D01*
X66068Y-40291D01*
X66062Y-40272D01*
X66057Y-40254D01*
X66057Y-40253D01*
X66056Y-40252D01*
X66047Y-40235D01*
X66038Y-40218D01*
X66038Y-40217D01*
X66037Y-40216D01*
X66025Y-40201D01*
X66013Y-40186D01*
X66012Y-40185D01*
X66012Y-40185D01*
X66012Y-40185D01*
X66011Y-40184D01*
X64897Y-39070D01*
X64897Y-36123D01*
X64884Y-36059D01*
X64859Y-35999D01*
X64823Y-35945D01*
X64777Y-35899D01*
X64723Y-35862D01*
X64663Y-35837D01*
X64599Y-35824D01*
X64534Y-35823D01*
X64470Y-35836D01*
X64410Y-35860D01*
X64355Y-35896D01*
X64309Y-35941D01*
X64304Y-35949D01*
X63822Y-35949D01*
X63822Y-35923D01*
X63809Y-35859D01*
X63784Y-35799D01*
X63748Y-35745D01*
X63702Y-35699D01*
X63648Y-35662D01*
X63588Y-35637D01*
X63524Y-35624D01*
X63459Y-35623D01*
X63395Y-35636D01*
X63335Y-35660D01*
X63280Y-35696D01*
X63234Y-35741D01*
X63197Y-35795D01*
X63171Y-35855D01*
X63157Y-35919D01*
X63157Y-35984D01*
X63158Y-35994D01*
X62939Y-36214D01*
X62932Y-36214D01*
X62928Y-36210D01*
X62903Y-36193D01*
X62874Y-36181D01*
X62843Y-36175D01*
X62812Y-36175D01*
X62025Y-36175D01*
X61995Y-36181D01*
X61966Y-36193D01*
X61941Y-36210D01*
X61919Y-36232D01*
X61901Y-36258D01*
X61890Y-36287D01*
X61883Y-36317D01*
X61883Y-36348D01*
X61883Y-36525D01*
X61890Y-36555D01*
X61898Y-36576D01*
X61890Y-36597D01*
X61883Y-36627D01*
X61883Y-36658D01*
X61883Y-36835D01*
X61890Y-36865D01*
X61900Y-36891D01*
X61890Y-36917D01*
X61883Y-36947D01*
X61883Y-36978D01*
X61883Y-37091D01*
X61855Y-37120D01*
X61829Y-37159D01*
X61811Y-37203D01*
X61802Y-37249D01*
X61802Y-37257D01*
X61861Y-37317D01*
X62374Y-37317D01*
X62374Y-37297D01*
X62495Y-37297D01*
X62495Y-37317D01*
X63007Y-37317D01*
X63067Y-37257D01*
X63067Y-37249D01*
X63058Y-37203D01*
X63040Y-37159D01*
X63014Y-37120D01*
X62985Y-37091D01*
X62985Y-36947D01*
X62984Y-36938D01*
X63039Y-36938D01*
X63059Y-36937D01*
X63078Y-36935D01*
X63079Y-36935D01*
X63080Y-36935D01*
X63098Y-36929D01*
X63117Y-36924D01*
X63117Y-36923D01*
X63119Y-36923D01*
X63135Y-36914D01*
X63152Y-36905D01*
X63153Y-36904D01*
X63154Y-36904D01*
X63169Y-36892D01*
X63184Y-36880D01*
X63186Y-36878D01*
X63186Y-36878D01*
X63186Y-36878D01*
X63186Y-36878D01*
X63546Y-36517D01*
X63611Y-36517D01*
X63630Y-36516D01*
X63649Y-36514D01*
X63650Y-36514D01*
X63651Y-36513D01*
X63669Y-36508D01*
X63688Y-36503D01*
X63689Y-36502D01*
X63690Y-36502D01*
X63707Y-36493D01*
X63724Y-36484D01*
X63724Y-36483D01*
X63725Y-36483D01*
X63740Y-36471D01*
X63755Y-36459D01*
X63757Y-36457D01*
X63757Y-36457D01*
X63757Y-36457D01*
X63757Y-36457D01*
X63850Y-36363D01*
X64303Y-36363D01*
X64303Y-36364D01*
X64348Y-36410D01*
X64401Y-36448D01*
X64461Y-36474D01*
X64525Y-36488D01*
X64590Y-36489D01*
X64654Y-36478D01*
X64715Y-36454D01*
X64770Y-36419D01*
X64817Y-36374D01*
X64855Y-36321D01*
X64881Y-36261D01*
X64896Y-36198D01*
X64897Y-36123D01*
X64897Y-39070D01*
X64436Y-38609D01*
X64421Y-38597D01*
X64407Y-38585D01*
X64406Y-38584D01*
X64405Y-38584D01*
X64388Y-38575D01*
X64371Y-38565D01*
X64370Y-38565D01*
X64369Y-38564D01*
X64351Y-38559D01*
X64333Y-38553D01*
X64332Y-38553D01*
X64330Y-38553D01*
X64311Y-38551D01*
X64292Y-38549D01*
X64290Y-38549D01*
X64290Y-38549D01*
X64290Y-38549D01*
X64289Y-38549D01*
X63838Y-38549D01*
X63851Y-38529D01*
X63863Y-38500D01*
X63867Y-38478D01*
X63877Y-38475D01*
X63896Y-38470D01*
X63896Y-38469D01*
X63898Y-38469D01*
X63914Y-38460D01*
X63931Y-38451D01*
X63932Y-38450D01*
X63933Y-38450D01*
X63948Y-38438D01*
X63952Y-38435D01*
X63965Y-38455D01*
X63987Y-38477D01*
X64013Y-38495D01*
X64042Y-38506D01*
X64072Y-38512D01*
X64103Y-38512D01*
X64497Y-38512D01*
X64527Y-38506D01*
X64556Y-38495D01*
X64582Y-38477D01*
X64604Y-38455D01*
X64621Y-38430D01*
X64633Y-38401D01*
X64639Y-38371D01*
X64639Y-38339D01*
X64639Y-37591D01*
X64633Y-37561D01*
X64621Y-37532D01*
X64604Y-37507D01*
X64582Y-37485D01*
X64556Y-37467D01*
X64527Y-37456D01*
X64497Y-37450D01*
X64466Y-37450D01*
X64072Y-37450D01*
X64042Y-37456D01*
X64013Y-37467D01*
X63987Y-37485D01*
X63965Y-37507D01*
X63951Y-37528D01*
X63951Y-37484D01*
X63942Y-37438D01*
X63924Y-37395D01*
X63897Y-37355D01*
X63864Y-37322D01*
X63825Y-37296D01*
X63781Y-37278D01*
X63735Y-37269D01*
X63688Y-37269D01*
X63635Y-37269D01*
X63575Y-37328D01*
X63575Y-37624D01*
X63583Y-37624D01*
X63583Y-37746D01*
X63575Y-37746D01*
X63575Y-37754D01*
X63454Y-37754D01*
X63454Y-37746D01*
X63446Y-37746D01*
X63446Y-37624D01*
X63454Y-37624D01*
X63454Y-37328D01*
X63394Y-37269D01*
X63341Y-37269D01*
X63294Y-37269D01*
X63248Y-37278D01*
X63204Y-37296D01*
X63165Y-37322D01*
X63132Y-37355D01*
X63105Y-37395D01*
X63087Y-37438D01*
X63078Y-37484D01*
X63078Y-37560D01*
X63053Y-37534D01*
X63052Y-37534D01*
X63058Y-37519D01*
X63067Y-37473D01*
X63067Y-37465D01*
X63007Y-37405D01*
X62495Y-37405D01*
X62495Y-37430D01*
X62374Y-37430D01*
X62374Y-37405D01*
X61861Y-37405D01*
X61802Y-37465D01*
X61802Y-37473D01*
X61811Y-37519D01*
X61829Y-37563D01*
X61855Y-37602D01*
X61883Y-37631D01*
X61883Y-37785D01*
X61890Y-37815D01*
X61898Y-37836D01*
X61890Y-37857D01*
X61883Y-37887D01*
X61883Y-37918D01*
X61883Y-38095D01*
X61890Y-38125D01*
X61900Y-38151D01*
X61890Y-38177D01*
X61883Y-38207D01*
X61883Y-38238D01*
X61883Y-38307D01*
X61722Y-38145D01*
X61722Y-38093D01*
X61767Y-38049D01*
X61805Y-37996D01*
X61831Y-37936D01*
X61846Y-37873D01*
X61847Y-37798D01*
X61834Y-37734D01*
X61809Y-37674D01*
X61773Y-37620D01*
X61727Y-37574D01*
X61673Y-37537D01*
X61613Y-37512D01*
X61549Y-37499D01*
X61484Y-37498D01*
X61420Y-37511D01*
X61360Y-37535D01*
X61305Y-37571D01*
X61259Y-37616D01*
X61222Y-37670D01*
X61196Y-37730D01*
X61182Y-37794D01*
X61182Y-37859D01*
X61189Y-37899D01*
X61140Y-37898D01*
X61146Y-37873D01*
X61147Y-37798D01*
X61134Y-37734D01*
X61109Y-37674D01*
X61073Y-37620D01*
X61027Y-37574D01*
X60973Y-37537D01*
X60913Y-37512D01*
X60883Y-37506D01*
X61803Y-36586D01*
X61815Y-36571D01*
X61828Y-36556D01*
X61828Y-36555D01*
X61829Y-36554D01*
X61838Y-36538D01*
X61847Y-36521D01*
X61847Y-36520D01*
X61848Y-36519D01*
X61854Y-36500D01*
X61859Y-36482D01*
X61860Y-36481D01*
X61860Y-36480D01*
X61862Y-36461D01*
X61864Y-36442D01*
X61864Y-36440D01*
X61864Y-36440D01*
X61864Y-36440D01*
X61864Y-36439D01*
X61864Y-36128D01*
X61867Y-36125D01*
X61885Y-36099D01*
X61896Y-36070D01*
X61902Y-36040D01*
X61902Y-36009D01*
X61902Y-35222D01*
X61896Y-35192D01*
X61895Y-35188D01*
X62614Y-35188D01*
X62634Y-35187D01*
X62653Y-35185D01*
X62654Y-35185D01*
X62655Y-35185D01*
X62673Y-35179D01*
X62692Y-35174D01*
X62692Y-35173D01*
X62694Y-35173D01*
X62710Y-35164D01*
X62727Y-35155D01*
X62728Y-35154D01*
X62729Y-35154D01*
X62744Y-35142D01*
X62759Y-35130D01*
X62761Y-35128D01*
X62761Y-35128D01*
X62761Y-35128D01*
X62761Y-35128D01*
X63011Y-34878D01*
X63023Y-34863D01*
X63036Y-34848D01*
X63036Y-34847D01*
X63037Y-34846D01*
X63046Y-34830D01*
X63055Y-34813D01*
X63055Y-34812D01*
X63056Y-34811D01*
X63062Y-34792D01*
X63067Y-34774D01*
X63068Y-34773D01*
X63068Y-34772D01*
X63070Y-34753D01*
X63072Y-34734D01*
X63072Y-34732D01*
X63072Y-34732D01*
X63072Y-34732D01*
X63072Y-34731D01*
X63072Y-34640D01*
X63090Y-34628D01*
X63112Y-34606D01*
X63129Y-34581D01*
X63141Y-34552D01*
X63147Y-34522D01*
X63147Y-34490D01*
X63147Y-34488D01*
X63314Y-34488D01*
X63334Y-34487D01*
X63353Y-34485D01*
X63354Y-34485D01*
X63355Y-34485D01*
X63373Y-34479D01*
X63392Y-34474D01*
X63392Y-34473D01*
X63394Y-34473D01*
X63410Y-34464D01*
X63427Y-34455D01*
X63428Y-34454D01*
X63429Y-34454D01*
X63444Y-34442D01*
X63459Y-34430D01*
X63461Y-34428D01*
X63461Y-34428D01*
X63461Y-34428D01*
X63461Y-34428D01*
X64011Y-33878D01*
X64023Y-33863D01*
X64036Y-33848D01*
X64036Y-33847D01*
X64037Y-33846D01*
X64046Y-33830D01*
X64055Y-33813D01*
X64055Y-33812D01*
X64056Y-33811D01*
X64062Y-33792D01*
X64067Y-33774D01*
X64068Y-33773D01*
X64068Y-33772D01*
X64070Y-33753D01*
X64072Y-33734D01*
X64072Y-33732D01*
X64072Y-33732D01*
X64072Y-33732D01*
X64072Y-33731D01*
X64072Y-33144D01*
X64137Y-33110D01*
X64213Y-33049D01*
X64275Y-32975D01*
X64321Y-32891D01*
X64321Y-32892D01*
X64371Y-32994D01*
X64439Y-33085D01*
X64524Y-33160D01*
X64622Y-33217D01*
X64714Y-33251D01*
X64804Y-33207D01*
X64804Y-32692D01*
X64796Y-32692D01*
X64796Y-32570D01*
X64804Y-32570D01*
X64804Y-32562D01*
X64925Y-32562D01*
X64925Y-32570D01*
X64933Y-32570D01*
X64933Y-32692D01*
X64925Y-32692D01*
X64925Y-33207D01*
X65014Y-33251D01*
X65106Y-33217D01*
X65204Y-33160D01*
X65289Y-33085D01*
X65358Y-32994D01*
X65408Y-32892D01*
X65408Y-32890D01*
X65450Y-32969D01*
X65511Y-33044D01*
X65586Y-33106D01*
X65657Y-33144D01*
X65657Y-33670D01*
X65398Y-33929D01*
X65386Y-33944D01*
X65373Y-33959D01*
X65373Y-33960D01*
X65372Y-33961D01*
X65363Y-33977D01*
X65354Y-33994D01*
X65353Y-33995D01*
X65353Y-33996D01*
X65347Y-34015D01*
X65342Y-34033D01*
X65341Y-34034D01*
X65341Y-34035D01*
X65339Y-34054D01*
X65337Y-34073D01*
X65337Y-34075D01*
X65337Y-34075D01*
X65337Y-34075D01*
X65337Y-34076D01*
X65337Y-34549D01*
X64929Y-34549D01*
X64904Y-34524D01*
X64850Y-34487D01*
X64790Y-34462D01*
X64726Y-34449D01*
X64661Y-34448D01*
X64597Y-34461D01*
X64536Y-34485D01*
X64481Y-34521D01*
X64435Y-34566D01*
X64398Y-34620D01*
X64372Y-34680D01*
X64359Y-34744D01*
X64358Y-34809D01*
X64370Y-34873D01*
X64394Y-34934D01*
X64429Y-34989D01*
X64474Y-35035D01*
X64528Y-35073D01*
X64588Y-35099D01*
X64651Y-35113D01*
X64716Y-35114D01*
X64781Y-35103D01*
X64841Y-35079D01*
X64897Y-35044D01*
X64944Y-34999D01*
X64969Y-34963D01*
X65337Y-34963D01*
X65337Y-37450D01*
X65332Y-37450D01*
X65302Y-37456D01*
X65273Y-37467D01*
X65247Y-37485D01*
X65225Y-37507D01*
X65208Y-37532D01*
X65196Y-37561D01*
X65190Y-37591D01*
X65190Y-37623D01*
X65190Y-38371D01*
X65196Y-38401D01*
X65208Y-38430D01*
X65225Y-38455D01*
X65247Y-38477D01*
X65273Y-38495D01*
X65302Y-38506D01*
X65332Y-38512D01*
X65363Y-38512D01*
X65757Y-38512D01*
X65787Y-38506D01*
X65816Y-38495D01*
X65842Y-38477D01*
X65864Y-38455D01*
X65881Y-38430D01*
X65893Y-38401D01*
X65899Y-38371D01*
X65899Y-38339D01*
X65899Y-37591D01*
X65893Y-37561D01*
X65881Y-37532D01*
X65864Y-37507D01*
X65842Y-37485D01*
X65816Y-37467D01*
X65787Y-37456D01*
X65757Y-37450D01*
X65752Y-37450D01*
X65752Y-34756D01*
X65752Y-34162D01*
X66011Y-33903D01*
X66023Y-33888D01*
X66036Y-33873D01*
X66036Y-33872D01*
X66037Y-33871D01*
X66046Y-33855D01*
X66055Y-33838D01*
X66055Y-33837D01*
X66056Y-33836D01*
X66062Y-33817D01*
X66067Y-33799D01*
X66068Y-33798D01*
X66068Y-33797D01*
X66070Y-33778D01*
X66072Y-33759D01*
X66072Y-33757D01*
X66072Y-33757D01*
X66072Y-33757D01*
X66072Y-33756D01*
X66072Y-33144D01*
X66137Y-33110D01*
X66213Y-33049D01*
X66275Y-32975D01*
X66275Y-32974D01*
X66275Y-40640D01*
M02*
