M48
INCH,TZ
T1C0.025
T2C0.032
T3C0.040
T4C0.047
%
G90
G05
T1
X48274Y-36907
X49022Y-33167
X51090Y-38381
X51404Y-37813
X52487Y-38797
X53365Y-39131
X53865Y-40274
X54465Y-37781
X54840Y-38056
X54915Y-37381
X55365Y-40381
X55540Y-36756
X55565Y-38406
X55615Y-37831
X56665Y-38181
X56840Y-35931
X56865Y-35431
X57365Y-38331
X57465Y-35981
X57465Y-37031
X57487Y-39585
X57590Y-38806
X58097Y-36002
X59365Y-36731
X59435Y-37222
X59672Y-38699
X60465Y-38231
X60815Y-37831
X61165Y-38231
X61515Y-37831
X61665Y-34381
X62526Y-35648
X63490Y-35956
X63865Y-39331
X64565Y-36156
X64593Y-33974
X64691Y-34781
T2
X54540Y-35731
X55540Y-35731
T3
X52865Y-32631
X52865Y-41181
X53865Y-32631
X53865Y-41181
X54865Y-32631
X54865Y-41181
X55865Y-32631
X55865Y-33681
X55865Y-41181
X56865Y-32631
X56865Y-33681
X56865Y-41181
X57865Y-32631
X57865Y-33681
X57865Y-41181
X58865Y-32631
X58865Y-33681
X58865Y-41181
X59865Y-32631
X59865Y-33681
X59865Y-41181
X60865Y-32631
X60865Y-33681
X60865Y-41181
X61865Y-32631
X61865Y-41181
X62865Y-32631
X62865Y-41181
X63865Y-32631
X63865Y-41181
X64865Y-32631
X64865Y-41181
X65865Y-32631
X65865Y-41181
T4
X48554Y-40631
X50476Y-40631
T0
M30
