%FSLAX34Y34*%
G04 Gerber Fmt 3.4, Leading zero omitted, Abs format*
G04 (created by PCBNEW (2014-03-19 BZR 4756)-product) date Čt 31. červenec 2014, 15:28:38 CEST*
%MOIN*%
G01*
G70*
G90*
G04 APERTURE LIST*
%ADD10C,0.005906*%
%ADD11R,0.078700X0.078700*%
%ADD12C,0.078700*%
%ADD13O,0.078700X0.098400*%
%ADD14R,0.068000X0.080000*%
%ADD15O,0.068000X0.080000*%
%ADD16C,0.035000*%
%ADD17C,0.010000*%
%ADD18C,0.007874*%
G04 APERTURE END LIST*
G54D10*
G54D11*
X54539Y-35731D03*
G54D12*
X55539Y-35731D03*
G54D13*
X48553Y-40631D03*
X50475Y-40631D03*
G54D14*
X55864Y-33681D03*
G54D15*
X56864Y-33681D03*
X57864Y-33681D03*
X58864Y-33681D03*
X59864Y-33681D03*
X60864Y-33681D03*
G54D14*
X52864Y-32631D03*
G54D15*
X53864Y-32631D03*
X54864Y-32631D03*
X55864Y-32631D03*
X56864Y-32631D03*
X57864Y-32631D03*
X58864Y-32631D03*
X59864Y-32631D03*
X60864Y-32631D03*
X61864Y-32631D03*
X62864Y-32631D03*
X63864Y-32631D03*
X64864Y-32631D03*
X65864Y-32631D03*
G54D14*
X65864Y-41181D03*
G54D15*
X64864Y-41181D03*
X63864Y-41181D03*
X62864Y-41181D03*
X61864Y-41181D03*
X60864Y-41181D03*
X59864Y-41181D03*
X58864Y-41181D03*
X57864Y-41181D03*
X56864Y-41181D03*
X55864Y-41181D03*
X54864Y-41181D03*
X53864Y-41181D03*
X52864Y-41181D03*
G54D16*
X57364Y-38331D03*
X51089Y-38381D03*
X48274Y-36907D03*
X52486Y-38797D03*
X49022Y-33167D03*
X51403Y-37812D03*
X62525Y-35647D03*
X64592Y-33974D03*
X53864Y-40273D03*
X55364Y-40381D03*
X55539Y-36756D03*
X54914Y-37381D03*
X55614Y-37831D03*
X57486Y-39584D03*
X57589Y-38806D03*
X53364Y-39131D03*
X64691Y-34781D03*
X61664Y-34381D03*
X54464Y-37781D03*
X57464Y-35981D03*
X57464Y-37031D03*
X63864Y-39331D03*
X59364Y-36731D03*
X63489Y-35956D03*
X61514Y-37831D03*
X64564Y-36156D03*
X56839Y-35931D03*
X56864Y-35431D03*
X54839Y-38056D03*
X58096Y-36001D03*
X59435Y-37222D03*
X56664Y-38181D03*
X55564Y-38406D03*
X59671Y-38698D03*
X60464Y-38231D03*
X60814Y-37831D03*
X61164Y-38231D03*
G54D17*
X56939Y-38756D02*
X57364Y-38331D01*
X54364Y-38756D02*
X56939Y-38756D01*
X53989Y-38381D02*
X54364Y-38756D01*
X51089Y-38381D02*
X53989Y-38381D01*
X60864Y-33681D02*
X60864Y-34281D01*
X61837Y-34958D02*
X62525Y-35647D01*
X61541Y-34958D02*
X61837Y-34958D01*
X60864Y-34281D02*
X61541Y-34958D01*
X64864Y-32631D02*
X64864Y-33702D01*
X64864Y-33702D02*
X64592Y-33974D01*
X55539Y-35731D02*
X55539Y-36756D01*
X55539Y-36756D02*
X54914Y-37381D01*
X57389Y-39006D02*
X57589Y-38806D01*
X53489Y-39006D02*
X57389Y-39006D01*
X53364Y-39131D02*
X53489Y-39006D01*
X63339Y-34781D02*
X64691Y-34781D01*
X62064Y-34781D02*
X63339Y-34781D01*
X61664Y-34381D02*
X62064Y-34781D01*
X54464Y-35806D02*
X54464Y-37781D01*
X54464Y-35806D02*
X54539Y-35731D01*
X63339Y-35325D02*
X62978Y-35687D01*
X62978Y-35687D02*
X62978Y-37242D01*
X62978Y-37242D02*
X61502Y-38718D01*
X61502Y-38718D02*
X60459Y-38718D01*
X60459Y-38718D02*
X59986Y-38246D01*
X59986Y-38246D02*
X59986Y-36572D01*
X59986Y-36572D02*
X58707Y-35293D01*
X58707Y-35293D02*
X57722Y-35293D01*
X57722Y-35293D02*
X56896Y-34466D01*
X56896Y-34466D02*
X56069Y-34466D01*
X56069Y-34466D02*
X55864Y-34262D01*
X55864Y-34262D02*
X55864Y-33681D01*
X63339Y-34781D02*
X63339Y-35325D01*
X57464Y-37031D02*
X57464Y-35981D01*
X63864Y-39331D02*
X60383Y-39331D01*
X59633Y-36731D02*
X59364Y-36731D01*
X59770Y-36868D02*
X59633Y-36731D01*
X59770Y-38324D02*
X59770Y-36868D01*
X60006Y-38561D02*
X59770Y-38324D01*
X60006Y-38954D02*
X60006Y-38561D01*
X60383Y-39331D02*
X60006Y-38954D01*
X63864Y-41181D02*
X63864Y-40981D01*
X64214Y-39506D02*
X64214Y-36156D01*
X58864Y-40781D02*
X59889Y-39756D01*
X59889Y-39756D02*
X63964Y-39756D01*
X63964Y-39756D02*
X64214Y-39506D01*
X58864Y-41181D02*
X58864Y-40781D01*
X64014Y-35956D02*
X63489Y-35956D01*
X64214Y-36156D02*
X64014Y-35956D01*
X59864Y-33681D02*
X59864Y-34131D01*
X61514Y-35781D02*
X61514Y-37831D01*
X59864Y-34131D02*
X61514Y-35781D01*
X59864Y-41181D02*
X59864Y-40481D01*
X64564Y-39456D02*
X64564Y-36156D01*
X64039Y-39981D02*
X64564Y-39456D01*
X60364Y-39981D02*
X64039Y-39981D01*
X59864Y-40481D02*
X60364Y-39981D01*
X52864Y-33581D02*
X52864Y-32631D01*
X54289Y-35006D02*
X52864Y-33581D01*
X55914Y-35006D02*
X54289Y-35006D01*
X56839Y-35931D02*
X55914Y-35006D01*
X53864Y-33956D02*
X53864Y-32631D01*
X54689Y-34781D02*
X53864Y-33956D01*
X56214Y-34781D02*
X54689Y-34781D01*
X56864Y-35431D02*
X56214Y-34781D01*
X55489Y-37406D02*
X57578Y-37406D01*
X54839Y-38056D02*
X55489Y-37406D01*
X58096Y-36887D02*
X58096Y-36001D01*
X57578Y-37406D02*
X58096Y-36887D01*
X56664Y-37635D02*
X59022Y-37635D01*
X59022Y-37635D02*
X59435Y-37222D01*
X56664Y-38181D02*
X56664Y-37635D01*
X56664Y-37635D02*
X56664Y-37631D01*
X56664Y-37631D02*
X56339Y-37631D01*
X56339Y-37631D02*
X55564Y-38406D01*
X57864Y-40506D02*
X57864Y-41181D01*
X59671Y-38698D02*
X57864Y-40506D01*
X57364Y-33131D02*
X57364Y-34081D01*
X56864Y-32631D02*
X57364Y-33131D01*
X60464Y-37706D02*
X60464Y-38231D01*
X60614Y-37556D02*
X60464Y-37706D01*
X60614Y-35831D02*
X60614Y-37556D01*
X59868Y-35085D02*
X60614Y-35831D01*
X58368Y-35085D02*
X59868Y-35085D01*
X57364Y-34081D02*
X58368Y-35085D01*
X60889Y-35756D02*
X60014Y-34881D01*
X60014Y-34881D02*
X58914Y-34881D01*
X57864Y-33831D02*
X58914Y-34881D01*
X60889Y-37756D02*
X60889Y-35756D01*
X60814Y-37831D02*
X60889Y-37756D01*
X57864Y-33831D02*
X57864Y-33681D01*
X61164Y-38231D02*
X61164Y-35731D01*
X58864Y-34481D02*
X58864Y-33681D01*
X59064Y-34681D02*
X58864Y-34481D01*
X60114Y-34681D02*
X59064Y-34681D01*
X61164Y-35731D02*
X60114Y-34681D01*
G54D10*
G36*
X55883Y-34574D02*
X54775Y-34574D01*
X54072Y-33870D01*
X54072Y-33144D01*
X54137Y-33110D01*
X54213Y-33049D01*
X54275Y-32975D01*
X54321Y-32891D01*
X54321Y-32892D01*
X54371Y-32994D01*
X54439Y-33085D01*
X54524Y-33160D01*
X54622Y-33217D01*
X54714Y-33251D01*
X54804Y-33207D01*
X54804Y-32692D01*
X54796Y-32692D01*
X54796Y-32570D01*
X54804Y-32570D01*
X54804Y-32562D01*
X54925Y-32562D01*
X54925Y-32570D01*
X54933Y-32570D01*
X54933Y-32692D01*
X54925Y-32692D01*
X54925Y-33207D01*
X55014Y-33251D01*
X55106Y-33217D01*
X55204Y-33160D01*
X55289Y-33085D01*
X55358Y-32994D01*
X55408Y-32892D01*
X55408Y-32890D01*
X55450Y-32969D01*
X55511Y-33044D01*
X55586Y-33106D01*
X55618Y-33124D01*
X55509Y-33124D01*
X55479Y-33130D01*
X55450Y-33141D01*
X55424Y-33159D01*
X55402Y-33181D01*
X55385Y-33206D01*
X55373Y-33235D01*
X55367Y-33265D01*
X55367Y-33297D01*
X55367Y-34097D01*
X55373Y-34127D01*
X55385Y-34156D01*
X55402Y-34181D01*
X55424Y-34203D01*
X55450Y-34221D01*
X55479Y-34232D01*
X55509Y-34238D01*
X55540Y-34238D01*
X55657Y-34238D01*
X55657Y-34262D01*
X55659Y-34281D01*
X55661Y-34300D01*
X55661Y-34301D01*
X55661Y-34302D01*
X55666Y-34320D01*
X55672Y-34339D01*
X55672Y-34340D01*
X55673Y-34341D01*
X55682Y-34358D01*
X55690Y-34375D01*
X55691Y-34376D01*
X55692Y-34377D01*
X55704Y-34391D01*
X55716Y-34406D01*
X55717Y-34408D01*
X55717Y-34408D01*
X55717Y-34408D01*
X55718Y-34408D01*
X55883Y-34574D01*
X55883Y-34574D01*
G37*
G54D18*
X55883Y-34574D02*
X54775Y-34574D01*
X54072Y-33870D01*
X54072Y-33144D01*
X54137Y-33110D01*
X54213Y-33049D01*
X54275Y-32975D01*
X54321Y-32891D01*
X54321Y-32892D01*
X54371Y-32994D01*
X54439Y-33085D01*
X54524Y-33160D01*
X54622Y-33217D01*
X54714Y-33251D01*
X54804Y-33207D01*
X54804Y-32692D01*
X54796Y-32692D01*
X54796Y-32570D01*
X54804Y-32570D01*
X54804Y-32562D01*
X54925Y-32562D01*
X54925Y-32570D01*
X54933Y-32570D01*
X54933Y-32692D01*
X54925Y-32692D01*
X54925Y-33207D01*
X55014Y-33251D01*
X55106Y-33217D01*
X55204Y-33160D01*
X55289Y-33085D01*
X55358Y-32994D01*
X55408Y-32892D01*
X55408Y-32890D01*
X55450Y-32969D01*
X55511Y-33044D01*
X55586Y-33106D01*
X55618Y-33124D01*
X55509Y-33124D01*
X55479Y-33130D01*
X55450Y-33141D01*
X55424Y-33159D01*
X55402Y-33181D01*
X55385Y-33206D01*
X55373Y-33235D01*
X55367Y-33265D01*
X55367Y-33297D01*
X55367Y-34097D01*
X55373Y-34127D01*
X55385Y-34156D01*
X55402Y-34181D01*
X55424Y-34203D01*
X55450Y-34221D01*
X55479Y-34232D01*
X55509Y-34238D01*
X55540Y-34238D01*
X55657Y-34238D01*
X55657Y-34262D01*
X55659Y-34281D01*
X55661Y-34300D01*
X55661Y-34301D01*
X55661Y-34302D01*
X55666Y-34320D01*
X55672Y-34339D01*
X55672Y-34340D01*
X55673Y-34341D01*
X55682Y-34358D01*
X55690Y-34375D01*
X55691Y-34376D01*
X55692Y-34377D01*
X55704Y-34391D01*
X55716Y-34406D01*
X55717Y-34408D01*
X55717Y-34408D01*
X55717Y-34408D01*
X55718Y-34408D01*
X55883Y-34574D01*
G54D10*
G36*
X57257Y-36769D02*
X57255Y-36771D01*
X57209Y-36816D01*
X57172Y-36870D01*
X57146Y-36930D01*
X57132Y-36994D01*
X57132Y-37059D01*
X57143Y-37123D01*
X57167Y-37184D01*
X57177Y-37199D01*
X55902Y-37199D01*
X55902Y-36179D01*
X55539Y-35817D01*
X55177Y-36179D01*
X55216Y-36279D01*
X55329Y-36331D01*
X55451Y-36361D01*
X55575Y-36366D01*
X55698Y-36347D01*
X55815Y-36304D01*
X55862Y-36279D01*
X55902Y-36179D01*
X55902Y-37199D01*
X55489Y-37199D01*
X55470Y-37200D01*
X55451Y-37202D01*
X55450Y-37202D01*
X55449Y-37202D01*
X55431Y-37208D01*
X55412Y-37213D01*
X55411Y-37214D01*
X55410Y-37214D01*
X55393Y-37223D01*
X55376Y-37232D01*
X55376Y-37233D01*
X55375Y-37233D01*
X55360Y-37245D01*
X55345Y-37257D01*
X55343Y-37259D01*
X55343Y-37259D01*
X55343Y-37259D01*
X55343Y-37259D01*
X54878Y-37724D01*
X54874Y-37724D01*
X54809Y-37723D01*
X54793Y-37726D01*
X54784Y-37684D01*
X54759Y-37624D01*
X54723Y-37570D01*
X54677Y-37524D01*
X54672Y-37520D01*
X54672Y-36282D01*
X54948Y-36282D01*
X54979Y-36276D01*
X55008Y-36264D01*
X55033Y-36247D01*
X55055Y-36225D01*
X55073Y-36199D01*
X55084Y-36170D01*
X55090Y-36140D01*
X55090Y-36109D01*
X55090Y-36093D01*
X55091Y-36093D01*
X55454Y-35731D01*
X55091Y-35369D01*
X55090Y-35369D01*
X55090Y-35322D01*
X55084Y-35292D01*
X55073Y-35263D01*
X55055Y-35237D01*
X55033Y-35215D01*
X55031Y-35213D01*
X55205Y-35213D01*
X55177Y-35283D01*
X55539Y-35645D01*
X55545Y-35640D01*
X55631Y-35725D01*
X55625Y-35731D01*
X55987Y-36093D01*
X56087Y-36054D01*
X56140Y-35941D01*
X56169Y-35820D01*
X56174Y-35695D01*
X56155Y-35572D01*
X56137Y-35522D01*
X56508Y-35893D01*
X56507Y-35894D01*
X56507Y-35959D01*
X56518Y-36023D01*
X56542Y-36084D01*
X56578Y-36139D01*
X56623Y-36185D01*
X56676Y-36223D01*
X56736Y-36249D01*
X56800Y-36263D01*
X56865Y-36264D01*
X56929Y-36253D01*
X56990Y-36229D01*
X57045Y-36194D01*
X57092Y-36149D01*
X57130Y-36096D01*
X57142Y-36068D01*
X57143Y-36073D01*
X57167Y-36134D01*
X57203Y-36189D01*
X57248Y-36235D01*
X57257Y-36242D01*
X57257Y-36769D01*
X57257Y-36769D01*
G37*
G54D18*
X57257Y-36769D02*
X57255Y-36771D01*
X57209Y-36816D01*
X57172Y-36870D01*
X57146Y-36930D01*
X57132Y-36994D01*
X57132Y-37059D01*
X57143Y-37123D01*
X57167Y-37184D01*
X57177Y-37199D01*
X55902Y-37199D01*
X55902Y-36179D01*
X55539Y-35817D01*
X55177Y-36179D01*
X55216Y-36279D01*
X55329Y-36331D01*
X55451Y-36361D01*
X55575Y-36366D01*
X55698Y-36347D01*
X55815Y-36304D01*
X55862Y-36279D01*
X55902Y-36179D01*
X55902Y-37199D01*
X55489Y-37199D01*
X55470Y-37200D01*
X55451Y-37202D01*
X55450Y-37202D01*
X55449Y-37202D01*
X55431Y-37208D01*
X55412Y-37213D01*
X55411Y-37214D01*
X55410Y-37214D01*
X55393Y-37223D01*
X55376Y-37232D01*
X55376Y-37233D01*
X55375Y-37233D01*
X55360Y-37245D01*
X55345Y-37257D01*
X55343Y-37259D01*
X55343Y-37259D01*
X55343Y-37259D01*
X55343Y-37259D01*
X54878Y-37724D01*
X54874Y-37724D01*
X54809Y-37723D01*
X54793Y-37726D01*
X54784Y-37684D01*
X54759Y-37624D01*
X54723Y-37570D01*
X54677Y-37524D01*
X54672Y-37520D01*
X54672Y-36282D01*
X54948Y-36282D01*
X54979Y-36276D01*
X55008Y-36264D01*
X55033Y-36247D01*
X55055Y-36225D01*
X55073Y-36199D01*
X55084Y-36170D01*
X55090Y-36140D01*
X55090Y-36109D01*
X55090Y-36093D01*
X55091Y-36093D01*
X55454Y-35731D01*
X55091Y-35369D01*
X55090Y-35369D01*
X55090Y-35322D01*
X55084Y-35292D01*
X55073Y-35263D01*
X55055Y-35237D01*
X55033Y-35215D01*
X55031Y-35213D01*
X55205Y-35213D01*
X55177Y-35283D01*
X55539Y-35645D01*
X55545Y-35640D01*
X55631Y-35725D01*
X55625Y-35731D01*
X55987Y-36093D01*
X56087Y-36054D01*
X56140Y-35941D01*
X56169Y-35820D01*
X56174Y-35695D01*
X56155Y-35572D01*
X56137Y-35522D01*
X56508Y-35893D01*
X56507Y-35894D01*
X56507Y-35959D01*
X56518Y-36023D01*
X56542Y-36084D01*
X56578Y-36139D01*
X56623Y-36185D01*
X56676Y-36223D01*
X56736Y-36249D01*
X56800Y-36263D01*
X56865Y-36264D01*
X56929Y-36253D01*
X56990Y-36229D01*
X57045Y-36194D01*
X57092Y-36149D01*
X57130Y-36096D01*
X57142Y-36068D01*
X57143Y-36073D01*
X57167Y-36134D01*
X57203Y-36189D01*
X57248Y-36235D01*
X57257Y-36242D01*
X57257Y-36769D01*
G54D10*
G36*
X59571Y-38380D02*
X59516Y-38402D01*
X59462Y-38438D01*
X59415Y-38484D01*
X59378Y-38537D01*
X59353Y-38597D01*
X59339Y-38661D01*
X59338Y-38726D01*
X59340Y-38736D01*
X57718Y-40359D01*
X57706Y-40374D01*
X57693Y-40389D01*
X57693Y-40390D01*
X57692Y-40391D01*
X57683Y-40407D01*
X57674Y-40424D01*
X57673Y-40425D01*
X57673Y-40426D01*
X57667Y-40445D01*
X57662Y-40463D01*
X57661Y-40464D01*
X57661Y-40465D01*
X57659Y-40484D01*
X57657Y-40503D01*
X57657Y-40505D01*
X57657Y-40505D01*
X57657Y-40505D01*
X57657Y-40506D01*
X57657Y-40668D01*
X57592Y-40702D01*
X57516Y-40763D01*
X57454Y-40837D01*
X57407Y-40922D01*
X57378Y-41015D01*
X57367Y-41111D01*
X57367Y-41118D01*
X57367Y-41244D01*
X57376Y-41340D01*
X57405Y-41433D01*
X57450Y-41519D01*
X57511Y-41594D01*
X57569Y-41642D01*
X57160Y-41642D01*
X57213Y-41599D01*
X57275Y-41525D01*
X57322Y-41440D01*
X57351Y-41347D01*
X57362Y-41251D01*
X57362Y-41244D01*
X57362Y-41118D01*
X57352Y-41022D01*
X57324Y-40929D01*
X57279Y-40843D01*
X57217Y-40768D01*
X57143Y-40706D01*
X57057Y-40660D01*
X56964Y-40631D01*
X56868Y-40621D01*
X56771Y-40630D01*
X56678Y-40657D01*
X56592Y-40702D01*
X56516Y-40763D01*
X56454Y-40837D01*
X56407Y-40922D01*
X56378Y-41015D01*
X56367Y-41111D01*
X56367Y-41118D01*
X56367Y-41244D01*
X56376Y-41340D01*
X56405Y-41433D01*
X56450Y-41519D01*
X56511Y-41594D01*
X56569Y-41642D01*
X56160Y-41642D01*
X56213Y-41599D01*
X56275Y-41525D01*
X56322Y-41440D01*
X56351Y-41347D01*
X56362Y-41251D01*
X56362Y-41244D01*
X56362Y-41118D01*
X56352Y-41022D01*
X56324Y-40929D01*
X56279Y-40843D01*
X56217Y-40768D01*
X56143Y-40706D01*
X56057Y-40660D01*
X55964Y-40631D01*
X55868Y-40621D01*
X55771Y-40630D01*
X55678Y-40657D01*
X55592Y-40702D01*
X55516Y-40763D01*
X55454Y-40837D01*
X55407Y-40922D01*
X55378Y-41015D01*
X55367Y-41111D01*
X55367Y-41118D01*
X55367Y-41244D01*
X55376Y-41340D01*
X55405Y-41433D01*
X55450Y-41519D01*
X55511Y-41594D01*
X55569Y-41642D01*
X55160Y-41642D01*
X55213Y-41599D01*
X55275Y-41525D01*
X55322Y-41440D01*
X55351Y-41347D01*
X55362Y-41251D01*
X55362Y-41244D01*
X55362Y-41118D01*
X55352Y-41022D01*
X55324Y-40929D01*
X55279Y-40843D01*
X55217Y-40768D01*
X55143Y-40706D01*
X55057Y-40660D01*
X54964Y-40631D01*
X54868Y-40621D01*
X54771Y-40630D01*
X54678Y-40657D01*
X54592Y-40702D01*
X54516Y-40763D01*
X54454Y-40837D01*
X54408Y-40921D01*
X54408Y-40920D01*
X54358Y-40818D01*
X54289Y-40727D01*
X54204Y-40652D01*
X54106Y-40595D01*
X54014Y-40561D01*
X53925Y-40605D01*
X53925Y-41120D01*
X53933Y-41120D01*
X53933Y-41242D01*
X53925Y-41242D01*
X53925Y-41250D01*
X53804Y-41250D01*
X53804Y-41242D01*
X53796Y-41242D01*
X53796Y-41120D01*
X53804Y-41120D01*
X53804Y-40605D01*
X53714Y-40561D01*
X53622Y-40595D01*
X53524Y-40652D01*
X53439Y-40727D01*
X53371Y-40818D01*
X53321Y-40920D01*
X53321Y-40922D01*
X53279Y-40843D01*
X53217Y-40768D01*
X53143Y-40706D01*
X53057Y-40660D01*
X52964Y-40631D01*
X52868Y-40621D01*
X52771Y-40630D01*
X52678Y-40657D01*
X52592Y-40702D01*
X52516Y-40763D01*
X52454Y-40837D01*
X52407Y-40922D01*
X52378Y-41015D01*
X52367Y-41111D01*
X52367Y-41118D01*
X52367Y-41244D01*
X52376Y-41340D01*
X52405Y-41433D01*
X52450Y-41519D01*
X52511Y-41594D01*
X52569Y-41642D01*
X51026Y-41642D01*
X51026Y-40733D01*
X51026Y-40529D01*
X51016Y-40422D01*
X50985Y-40319D01*
X50934Y-40224D01*
X50866Y-40141D01*
X50784Y-40073D01*
X50689Y-40021D01*
X50586Y-39990D01*
X50479Y-39978D01*
X50372Y-39988D01*
X50269Y-40018D01*
X50174Y-40068D01*
X50090Y-40136D01*
X50021Y-40218D01*
X49969Y-40312D01*
X49937Y-40415D01*
X49925Y-40522D01*
X49924Y-40529D01*
X49924Y-40733D01*
X49935Y-40840D01*
X49966Y-40943D01*
X50017Y-41038D01*
X50085Y-41121D01*
X50167Y-41189D01*
X50262Y-41241D01*
X50365Y-41272D01*
X50472Y-41284D01*
X50579Y-41274D01*
X50682Y-41243D01*
X50777Y-41194D01*
X50861Y-41126D01*
X50930Y-41044D01*
X50982Y-40950D01*
X51014Y-40847D01*
X51026Y-40740D01*
X51026Y-40733D01*
X51026Y-41642D01*
X49191Y-41642D01*
X49191Y-37721D01*
X49191Y-35989D01*
X49178Y-35925D01*
X49153Y-35864D01*
X49117Y-35809D01*
X49071Y-35763D01*
X49016Y-35726D01*
X48956Y-35701D01*
X48892Y-35687D01*
X48826Y-35687D01*
X48762Y-35699D01*
X48701Y-35724D01*
X48646Y-35760D01*
X48599Y-35806D01*
X48562Y-35860D01*
X48536Y-35920D01*
X48523Y-35984D01*
X48522Y-36050D01*
X48533Y-36114D01*
X48558Y-36175D01*
X48593Y-36230D01*
X48639Y-36278D01*
X48693Y-36315D01*
X48753Y-36341D01*
X48817Y-36355D01*
X48882Y-36357D01*
X48947Y-36345D01*
X49008Y-36322D01*
X49063Y-36287D01*
X49111Y-36241D01*
X49149Y-36188D01*
X49175Y-36128D01*
X49190Y-36064D01*
X49191Y-35989D01*
X49191Y-37721D01*
X49178Y-37657D01*
X49153Y-37596D01*
X49117Y-37541D01*
X49071Y-37495D01*
X49016Y-37458D01*
X48956Y-37433D01*
X48892Y-37419D01*
X48826Y-37419D01*
X48762Y-37431D01*
X48701Y-37456D01*
X48646Y-37492D01*
X48599Y-37538D01*
X48562Y-37592D01*
X48536Y-37652D01*
X48523Y-37716D01*
X48522Y-37782D01*
X48533Y-37846D01*
X48558Y-37907D01*
X48593Y-37962D01*
X48639Y-38010D01*
X48693Y-38047D01*
X48753Y-38073D01*
X48817Y-38087D01*
X48882Y-38089D01*
X48947Y-38077D01*
X49008Y-38054D01*
X49063Y-38019D01*
X49111Y-37973D01*
X49149Y-37920D01*
X49175Y-37860D01*
X49190Y-37796D01*
X49191Y-37721D01*
X49191Y-41642D01*
X49104Y-41642D01*
X49104Y-40733D01*
X49104Y-40529D01*
X49094Y-40422D01*
X49063Y-40319D01*
X49012Y-40224D01*
X48944Y-40141D01*
X48862Y-40073D01*
X48767Y-40021D01*
X48664Y-39990D01*
X48557Y-39978D01*
X48450Y-39988D01*
X48347Y-40018D01*
X48252Y-40068D01*
X48168Y-40136D01*
X48099Y-40218D01*
X48047Y-40312D01*
X48015Y-40415D01*
X48003Y-40522D01*
X48002Y-40529D01*
X48002Y-40733D01*
X48013Y-40840D01*
X48044Y-40943D01*
X48095Y-41038D01*
X48163Y-41121D01*
X48245Y-41189D01*
X48340Y-41241D01*
X48443Y-41272D01*
X48550Y-41284D01*
X48657Y-41274D01*
X48760Y-41243D01*
X48855Y-41194D01*
X48939Y-41126D01*
X49008Y-41044D01*
X49060Y-40950D01*
X49092Y-40847D01*
X49104Y-40740D01*
X49104Y-40733D01*
X49104Y-41642D01*
X47063Y-41642D01*
X47063Y-32220D01*
X52367Y-32220D01*
X52367Y-32247D01*
X52367Y-33047D01*
X52373Y-33077D01*
X52385Y-33106D01*
X52402Y-33131D01*
X52424Y-33153D01*
X52450Y-33171D01*
X52479Y-33182D01*
X52509Y-33188D01*
X52540Y-33188D01*
X52657Y-33188D01*
X52657Y-33581D01*
X52659Y-33600D01*
X52661Y-33619D01*
X52661Y-33620D01*
X52661Y-33621D01*
X52666Y-33640D01*
X52672Y-33658D01*
X52672Y-33659D01*
X52673Y-33660D01*
X52682Y-33677D01*
X52690Y-33694D01*
X52691Y-33695D01*
X52692Y-33696D01*
X52704Y-33711D01*
X52716Y-33726D01*
X52717Y-33727D01*
X52717Y-33727D01*
X52717Y-33727D01*
X52718Y-33728D01*
X54143Y-35153D01*
X54158Y-35165D01*
X54172Y-35177D01*
X54173Y-35178D01*
X54174Y-35178D01*
X54177Y-35180D01*
X54130Y-35180D01*
X54100Y-35186D01*
X54071Y-35198D01*
X54046Y-35215D01*
X54024Y-35237D01*
X54006Y-35263D01*
X53995Y-35292D01*
X53988Y-35322D01*
X53988Y-35353D01*
X53988Y-36140D01*
X53995Y-36170D01*
X54006Y-36199D01*
X54024Y-36225D01*
X54046Y-36247D01*
X54071Y-36264D01*
X54100Y-36276D01*
X54130Y-36282D01*
X54161Y-36282D01*
X54257Y-36282D01*
X54257Y-37519D01*
X54255Y-37521D01*
X54209Y-37566D01*
X54172Y-37620D01*
X54146Y-37680D01*
X54132Y-37744D01*
X54132Y-37809D01*
X54143Y-37873D01*
X54167Y-37934D01*
X54203Y-37989D01*
X54248Y-38035D01*
X54301Y-38073D01*
X54361Y-38099D01*
X54425Y-38113D01*
X54490Y-38114D01*
X54511Y-38110D01*
X54518Y-38148D01*
X54542Y-38209D01*
X54578Y-38264D01*
X54623Y-38310D01*
X54676Y-38348D01*
X54736Y-38374D01*
X54800Y-38388D01*
X54865Y-38389D01*
X54929Y-38378D01*
X54990Y-38354D01*
X55045Y-38319D01*
X55092Y-38274D01*
X55130Y-38221D01*
X55156Y-38161D01*
X55171Y-38098D01*
X55172Y-38023D01*
X55171Y-38018D01*
X55575Y-37613D01*
X56064Y-37613D01*
X55603Y-38074D01*
X55599Y-38074D01*
X55534Y-38073D01*
X55470Y-38086D01*
X55410Y-38110D01*
X55355Y-38146D01*
X55309Y-38191D01*
X55272Y-38245D01*
X55246Y-38305D01*
X55232Y-38369D01*
X55232Y-38434D01*
X55243Y-38498D01*
X55263Y-38549D01*
X54450Y-38549D01*
X54136Y-38234D01*
X54121Y-38222D01*
X54107Y-38210D01*
X54106Y-38209D01*
X54105Y-38209D01*
X54088Y-38200D01*
X54071Y-38190D01*
X54070Y-38190D01*
X54069Y-38189D01*
X54051Y-38184D01*
X54033Y-38178D01*
X54032Y-38178D01*
X54030Y-38178D01*
X54011Y-38176D01*
X53992Y-38174D01*
X53990Y-38174D01*
X53990Y-38174D01*
X53990Y-38174D01*
X53989Y-38174D01*
X51351Y-38174D01*
X51348Y-38170D01*
X51302Y-38124D01*
X51248Y-38087D01*
X51188Y-38062D01*
X51124Y-38049D01*
X51059Y-38048D01*
X50995Y-38061D01*
X50935Y-38085D01*
X50880Y-38121D01*
X50834Y-38166D01*
X50797Y-38220D01*
X50771Y-38280D01*
X50757Y-38344D01*
X50757Y-38409D01*
X50768Y-38473D01*
X50792Y-38534D01*
X50828Y-38589D01*
X50873Y-38635D01*
X50926Y-38673D01*
X50986Y-38699D01*
X51050Y-38713D01*
X51115Y-38714D01*
X51179Y-38703D01*
X51240Y-38679D01*
X51295Y-38644D01*
X51342Y-38599D01*
X51350Y-38588D01*
X53904Y-38588D01*
X54114Y-38799D01*
X53489Y-38799D01*
X53470Y-38800D01*
X53451Y-38802D01*
X53450Y-38802D01*
X53449Y-38802D01*
X53436Y-38806D01*
X53399Y-38799D01*
X53334Y-38798D01*
X53270Y-38811D01*
X53210Y-38835D01*
X53155Y-38871D01*
X53109Y-38916D01*
X53072Y-38970D01*
X53046Y-39030D01*
X53032Y-39094D01*
X53032Y-39159D01*
X53043Y-39223D01*
X53067Y-39284D01*
X53103Y-39339D01*
X53148Y-39385D01*
X53201Y-39423D01*
X53261Y-39449D01*
X53325Y-39463D01*
X53390Y-39464D01*
X53454Y-39453D01*
X53515Y-39429D01*
X53570Y-39394D01*
X53617Y-39349D01*
X53655Y-39296D01*
X53681Y-39236D01*
X53687Y-39213D01*
X57389Y-39213D01*
X57409Y-39212D01*
X57428Y-39210D01*
X57429Y-39210D01*
X57430Y-39210D01*
X57448Y-39204D01*
X57467Y-39199D01*
X57467Y-39198D01*
X57469Y-39198D01*
X57485Y-39189D01*
X57502Y-39180D01*
X57503Y-39179D01*
X57504Y-39179D01*
X57519Y-39167D01*
X57534Y-39155D01*
X57536Y-39153D01*
X57536Y-39153D01*
X57536Y-39153D01*
X57536Y-39153D01*
X57551Y-39138D01*
X57615Y-39139D01*
X57679Y-39128D01*
X57740Y-39104D01*
X57795Y-39069D01*
X57842Y-39024D01*
X57880Y-38971D01*
X57906Y-38911D01*
X57921Y-38848D01*
X57922Y-38773D01*
X57909Y-38709D01*
X57884Y-38649D01*
X57848Y-38595D01*
X57802Y-38549D01*
X57748Y-38512D01*
X57688Y-38487D01*
X57661Y-38481D01*
X57681Y-38436D01*
X57696Y-38373D01*
X57697Y-38298D01*
X57684Y-38234D01*
X57659Y-38174D01*
X57623Y-38120D01*
X57577Y-38074D01*
X57523Y-38037D01*
X57463Y-38012D01*
X57399Y-37999D01*
X57334Y-37998D01*
X57270Y-38011D01*
X57210Y-38035D01*
X57155Y-38071D01*
X57109Y-38116D01*
X57072Y-38170D01*
X57046Y-38230D01*
X57032Y-38294D01*
X57032Y-38359D01*
X57033Y-38369D01*
X56854Y-38549D01*
X55865Y-38549D01*
X55881Y-38511D01*
X55896Y-38448D01*
X55897Y-38373D01*
X55896Y-38368D01*
X56425Y-37838D01*
X56457Y-37838D01*
X56457Y-37919D01*
X56455Y-37921D01*
X56409Y-37966D01*
X56372Y-38020D01*
X56346Y-38080D01*
X56332Y-38144D01*
X56332Y-38209D01*
X56343Y-38273D01*
X56367Y-38334D01*
X56403Y-38389D01*
X56448Y-38435D01*
X56501Y-38473D01*
X56561Y-38499D01*
X56625Y-38513D01*
X56690Y-38514D01*
X56754Y-38503D01*
X56815Y-38479D01*
X56870Y-38444D01*
X56917Y-38399D01*
X56955Y-38346D01*
X56981Y-38286D01*
X56996Y-38223D01*
X56997Y-38148D01*
X56984Y-38084D01*
X56959Y-38024D01*
X56923Y-37970D01*
X56877Y-37924D01*
X56872Y-37920D01*
X56872Y-37843D01*
X59022Y-37843D01*
X59041Y-37841D01*
X59060Y-37839D01*
X59061Y-37839D01*
X59062Y-37839D01*
X59080Y-37833D01*
X59099Y-37828D01*
X59100Y-37827D01*
X59101Y-37827D01*
X59118Y-37818D01*
X59135Y-37809D01*
X59135Y-37809D01*
X59136Y-37808D01*
X59151Y-37796D01*
X59166Y-37784D01*
X59168Y-37783D01*
X59168Y-37783D01*
X59168Y-37783D01*
X59168Y-37782D01*
X59397Y-37554D01*
X59461Y-37555D01*
X59525Y-37544D01*
X59562Y-37529D01*
X59562Y-38324D01*
X59564Y-38343D01*
X59566Y-38362D01*
X59566Y-38364D01*
X59566Y-38365D01*
X59571Y-38380D01*
X59571Y-38380D01*
G37*
G54D18*
X59571Y-38380D02*
X59516Y-38402D01*
X59462Y-38438D01*
X59415Y-38484D01*
X59378Y-38537D01*
X59353Y-38597D01*
X59339Y-38661D01*
X59338Y-38726D01*
X59340Y-38736D01*
X57718Y-40359D01*
X57706Y-40374D01*
X57693Y-40389D01*
X57693Y-40390D01*
X57692Y-40391D01*
X57683Y-40407D01*
X57674Y-40424D01*
X57673Y-40425D01*
X57673Y-40426D01*
X57667Y-40445D01*
X57662Y-40463D01*
X57661Y-40464D01*
X57661Y-40465D01*
X57659Y-40484D01*
X57657Y-40503D01*
X57657Y-40505D01*
X57657Y-40505D01*
X57657Y-40505D01*
X57657Y-40506D01*
X57657Y-40668D01*
X57592Y-40702D01*
X57516Y-40763D01*
X57454Y-40837D01*
X57407Y-40922D01*
X57378Y-41015D01*
X57367Y-41111D01*
X57367Y-41118D01*
X57367Y-41244D01*
X57376Y-41340D01*
X57405Y-41433D01*
X57450Y-41519D01*
X57511Y-41594D01*
X57569Y-41642D01*
X57160Y-41642D01*
X57213Y-41599D01*
X57275Y-41525D01*
X57322Y-41440D01*
X57351Y-41347D01*
X57362Y-41251D01*
X57362Y-41244D01*
X57362Y-41118D01*
X57352Y-41022D01*
X57324Y-40929D01*
X57279Y-40843D01*
X57217Y-40768D01*
X57143Y-40706D01*
X57057Y-40660D01*
X56964Y-40631D01*
X56868Y-40621D01*
X56771Y-40630D01*
X56678Y-40657D01*
X56592Y-40702D01*
X56516Y-40763D01*
X56454Y-40837D01*
X56407Y-40922D01*
X56378Y-41015D01*
X56367Y-41111D01*
X56367Y-41118D01*
X56367Y-41244D01*
X56376Y-41340D01*
X56405Y-41433D01*
X56450Y-41519D01*
X56511Y-41594D01*
X56569Y-41642D01*
X56160Y-41642D01*
X56213Y-41599D01*
X56275Y-41525D01*
X56322Y-41440D01*
X56351Y-41347D01*
X56362Y-41251D01*
X56362Y-41244D01*
X56362Y-41118D01*
X56352Y-41022D01*
X56324Y-40929D01*
X56279Y-40843D01*
X56217Y-40768D01*
X56143Y-40706D01*
X56057Y-40660D01*
X55964Y-40631D01*
X55868Y-40621D01*
X55771Y-40630D01*
X55678Y-40657D01*
X55592Y-40702D01*
X55516Y-40763D01*
X55454Y-40837D01*
X55407Y-40922D01*
X55378Y-41015D01*
X55367Y-41111D01*
X55367Y-41118D01*
X55367Y-41244D01*
X55376Y-41340D01*
X55405Y-41433D01*
X55450Y-41519D01*
X55511Y-41594D01*
X55569Y-41642D01*
X55160Y-41642D01*
X55213Y-41599D01*
X55275Y-41525D01*
X55322Y-41440D01*
X55351Y-41347D01*
X55362Y-41251D01*
X55362Y-41244D01*
X55362Y-41118D01*
X55352Y-41022D01*
X55324Y-40929D01*
X55279Y-40843D01*
X55217Y-40768D01*
X55143Y-40706D01*
X55057Y-40660D01*
X54964Y-40631D01*
X54868Y-40621D01*
X54771Y-40630D01*
X54678Y-40657D01*
X54592Y-40702D01*
X54516Y-40763D01*
X54454Y-40837D01*
X54408Y-40921D01*
X54408Y-40920D01*
X54358Y-40818D01*
X54289Y-40727D01*
X54204Y-40652D01*
X54106Y-40595D01*
X54014Y-40561D01*
X53925Y-40605D01*
X53925Y-41120D01*
X53933Y-41120D01*
X53933Y-41242D01*
X53925Y-41242D01*
X53925Y-41250D01*
X53804Y-41250D01*
X53804Y-41242D01*
X53796Y-41242D01*
X53796Y-41120D01*
X53804Y-41120D01*
X53804Y-40605D01*
X53714Y-40561D01*
X53622Y-40595D01*
X53524Y-40652D01*
X53439Y-40727D01*
X53371Y-40818D01*
X53321Y-40920D01*
X53321Y-40922D01*
X53279Y-40843D01*
X53217Y-40768D01*
X53143Y-40706D01*
X53057Y-40660D01*
X52964Y-40631D01*
X52868Y-40621D01*
X52771Y-40630D01*
X52678Y-40657D01*
X52592Y-40702D01*
X52516Y-40763D01*
X52454Y-40837D01*
X52407Y-40922D01*
X52378Y-41015D01*
X52367Y-41111D01*
X52367Y-41118D01*
X52367Y-41244D01*
X52376Y-41340D01*
X52405Y-41433D01*
X52450Y-41519D01*
X52511Y-41594D01*
X52569Y-41642D01*
X51026Y-41642D01*
X51026Y-40733D01*
X51026Y-40529D01*
X51016Y-40422D01*
X50985Y-40319D01*
X50934Y-40224D01*
X50866Y-40141D01*
X50784Y-40073D01*
X50689Y-40021D01*
X50586Y-39990D01*
X50479Y-39978D01*
X50372Y-39988D01*
X50269Y-40018D01*
X50174Y-40068D01*
X50090Y-40136D01*
X50021Y-40218D01*
X49969Y-40312D01*
X49937Y-40415D01*
X49925Y-40522D01*
X49924Y-40529D01*
X49924Y-40733D01*
X49935Y-40840D01*
X49966Y-40943D01*
X50017Y-41038D01*
X50085Y-41121D01*
X50167Y-41189D01*
X50262Y-41241D01*
X50365Y-41272D01*
X50472Y-41284D01*
X50579Y-41274D01*
X50682Y-41243D01*
X50777Y-41194D01*
X50861Y-41126D01*
X50930Y-41044D01*
X50982Y-40950D01*
X51014Y-40847D01*
X51026Y-40740D01*
X51026Y-40733D01*
X51026Y-41642D01*
X49191Y-41642D01*
X49191Y-37721D01*
X49191Y-35989D01*
X49178Y-35925D01*
X49153Y-35864D01*
X49117Y-35809D01*
X49071Y-35763D01*
X49016Y-35726D01*
X48956Y-35701D01*
X48892Y-35687D01*
X48826Y-35687D01*
X48762Y-35699D01*
X48701Y-35724D01*
X48646Y-35760D01*
X48599Y-35806D01*
X48562Y-35860D01*
X48536Y-35920D01*
X48523Y-35984D01*
X48522Y-36050D01*
X48533Y-36114D01*
X48558Y-36175D01*
X48593Y-36230D01*
X48639Y-36278D01*
X48693Y-36315D01*
X48753Y-36341D01*
X48817Y-36355D01*
X48882Y-36357D01*
X48947Y-36345D01*
X49008Y-36322D01*
X49063Y-36287D01*
X49111Y-36241D01*
X49149Y-36188D01*
X49175Y-36128D01*
X49190Y-36064D01*
X49191Y-35989D01*
X49191Y-37721D01*
X49178Y-37657D01*
X49153Y-37596D01*
X49117Y-37541D01*
X49071Y-37495D01*
X49016Y-37458D01*
X48956Y-37433D01*
X48892Y-37419D01*
X48826Y-37419D01*
X48762Y-37431D01*
X48701Y-37456D01*
X48646Y-37492D01*
X48599Y-37538D01*
X48562Y-37592D01*
X48536Y-37652D01*
X48523Y-37716D01*
X48522Y-37782D01*
X48533Y-37846D01*
X48558Y-37907D01*
X48593Y-37962D01*
X48639Y-38010D01*
X48693Y-38047D01*
X48753Y-38073D01*
X48817Y-38087D01*
X48882Y-38089D01*
X48947Y-38077D01*
X49008Y-38054D01*
X49063Y-38019D01*
X49111Y-37973D01*
X49149Y-37920D01*
X49175Y-37860D01*
X49190Y-37796D01*
X49191Y-37721D01*
X49191Y-41642D01*
X49104Y-41642D01*
X49104Y-40733D01*
X49104Y-40529D01*
X49094Y-40422D01*
X49063Y-40319D01*
X49012Y-40224D01*
X48944Y-40141D01*
X48862Y-40073D01*
X48767Y-40021D01*
X48664Y-39990D01*
X48557Y-39978D01*
X48450Y-39988D01*
X48347Y-40018D01*
X48252Y-40068D01*
X48168Y-40136D01*
X48099Y-40218D01*
X48047Y-40312D01*
X48015Y-40415D01*
X48003Y-40522D01*
X48002Y-40529D01*
X48002Y-40733D01*
X48013Y-40840D01*
X48044Y-40943D01*
X48095Y-41038D01*
X48163Y-41121D01*
X48245Y-41189D01*
X48340Y-41241D01*
X48443Y-41272D01*
X48550Y-41284D01*
X48657Y-41274D01*
X48760Y-41243D01*
X48855Y-41194D01*
X48939Y-41126D01*
X49008Y-41044D01*
X49060Y-40950D01*
X49092Y-40847D01*
X49104Y-40740D01*
X49104Y-40733D01*
X49104Y-41642D01*
X47063Y-41642D01*
X47063Y-32220D01*
X52367Y-32220D01*
X52367Y-32247D01*
X52367Y-33047D01*
X52373Y-33077D01*
X52385Y-33106D01*
X52402Y-33131D01*
X52424Y-33153D01*
X52450Y-33171D01*
X52479Y-33182D01*
X52509Y-33188D01*
X52540Y-33188D01*
X52657Y-33188D01*
X52657Y-33581D01*
X52659Y-33600D01*
X52661Y-33619D01*
X52661Y-33620D01*
X52661Y-33621D01*
X52666Y-33640D01*
X52672Y-33658D01*
X52672Y-33659D01*
X52673Y-33660D01*
X52682Y-33677D01*
X52690Y-33694D01*
X52691Y-33695D01*
X52692Y-33696D01*
X52704Y-33711D01*
X52716Y-33726D01*
X52717Y-33727D01*
X52717Y-33727D01*
X52717Y-33727D01*
X52718Y-33728D01*
X54143Y-35153D01*
X54158Y-35165D01*
X54172Y-35177D01*
X54173Y-35178D01*
X54174Y-35178D01*
X54177Y-35180D01*
X54130Y-35180D01*
X54100Y-35186D01*
X54071Y-35198D01*
X54046Y-35215D01*
X54024Y-35237D01*
X54006Y-35263D01*
X53995Y-35292D01*
X53988Y-35322D01*
X53988Y-35353D01*
X53988Y-36140D01*
X53995Y-36170D01*
X54006Y-36199D01*
X54024Y-36225D01*
X54046Y-36247D01*
X54071Y-36264D01*
X54100Y-36276D01*
X54130Y-36282D01*
X54161Y-36282D01*
X54257Y-36282D01*
X54257Y-37519D01*
X54255Y-37521D01*
X54209Y-37566D01*
X54172Y-37620D01*
X54146Y-37680D01*
X54132Y-37744D01*
X54132Y-37809D01*
X54143Y-37873D01*
X54167Y-37934D01*
X54203Y-37989D01*
X54248Y-38035D01*
X54301Y-38073D01*
X54361Y-38099D01*
X54425Y-38113D01*
X54490Y-38114D01*
X54511Y-38110D01*
X54518Y-38148D01*
X54542Y-38209D01*
X54578Y-38264D01*
X54623Y-38310D01*
X54676Y-38348D01*
X54736Y-38374D01*
X54800Y-38388D01*
X54865Y-38389D01*
X54929Y-38378D01*
X54990Y-38354D01*
X55045Y-38319D01*
X55092Y-38274D01*
X55130Y-38221D01*
X55156Y-38161D01*
X55171Y-38098D01*
X55172Y-38023D01*
X55171Y-38018D01*
X55575Y-37613D01*
X56064Y-37613D01*
X55603Y-38074D01*
X55599Y-38074D01*
X55534Y-38073D01*
X55470Y-38086D01*
X55410Y-38110D01*
X55355Y-38146D01*
X55309Y-38191D01*
X55272Y-38245D01*
X55246Y-38305D01*
X55232Y-38369D01*
X55232Y-38434D01*
X55243Y-38498D01*
X55263Y-38549D01*
X54450Y-38549D01*
X54136Y-38234D01*
X54121Y-38222D01*
X54107Y-38210D01*
X54106Y-38209D01*
X54105Y-38209D01*
X54088Y-38200D01*
X54071Y-38190D01*
X54070Y-38190D01*
X54069Y-38189D01*
X54051Y-38184D01*
X54033Y-38178D01*
X54032Y-38178D01*
X54030Y-38178D01*
X54011Y-38176D01*
X53992Y-38174D01*
X53990Y-38174D01*
X53990Y-38174D01*
X53990Y-38174D01*
X53989Y-38174D01*
X51351Y-38174D01*
X51348Y-38170D01*
X51302Y-38124D01*
X51248Y-38087D01*
X51188Y-38062D01*
X51124Y-38049D01*
X51059Y-38048D01*
X50995Y-38061D01*
X50935Y-38085D01*
X50880Y-38121D01*
X50834Y-38166D01*
X50797Y-38220D01*
X50771Y-38280D01*
X50757Y-38344D01*
X50757Y-38409D01*
X50768Y-38473D01*
X50792Y-38534D01*
X50828Y-38589D01*
X50873Y-38635D01*
X50926Y-38673D01*
X50986Y-38699D01*
X51050Y-38713D01*
X51115Y-38714D01*
X51179Y-38703D01*
X51240Y-38679D01*
X51295Y-38644D01*
X51342Y-38599D01*
X51350Y-38588D01*
X53904Y-38588D01*
X54114Y-38799D01*
X53489Y-38799D01*
X53470Y-38800D01*
X53451Y-38802D01*
X53450Y-38802D01*
X53449Y-38802D01*
X53436Y-38806D01*
X53399Y-38799D01*
X53334Y-38798D01*
X53270Y-38811D01*
X53210Y-38835D01*
X53155Y-38871D01*
X53109Y-38916D01*
X53072Y-38970D01*
X53046Y-39030D01*
X53032Y-39094D01*
X53032Y-39159D01*
X53043Y-39223D01*
X53067Y-39284D01*
X53103Y-39339D01*
X53148Y-39385D01*
X53201Y-39423D01*
X53261Y-39449D01*
X53325Y-39463D01*
X53390Y-39464D01*
X53454Y-39453D01*
X53515Y-39429D01*
X53570Y-39394D01*
X53617Y-39349D01*
X53655Y-39296D01*
X53681Y-39236D01*
X53687Y-39213D01*
X57389Y-39213D01*
X57409Y-39212D01*
X57428Y-39210D01*
X57429Y-39210D01*
X57430Y-39210D01*
X57448Y-39204D01*
X57467Y-39199D01*
X57467Y-39198D01*
X57469Y-39198D01*
X57485Y-39189D01*
X57502Y-39180D01*
X57503Y-39179D01*
X57504Y-39179D01*
X57519Y-39167D01*
X57534Y-39155D01*
X57536Y-39153D01*
X57536Y-39153D01*
X57536Y-39153D01*
X57536Y-39153D01*
X57551Y-39138D01*
X57615Y-39139D01*
X57679Y-39128D01*
X57740Y-39104D01*
X57795Y-39069D01*
X57842Y-39024D01*
X57880Y-38971D01*
X57906Y-38911D01*
X57921Y-38848D01*
X57922Y-38773D01*
X57909Y-38709D01*
X57884Y-38649D01*
X57848Y-38595D01*
X57802Y-38549D01*
X57748Y-38512D01*
X57688Y-38487D01*
X57661Y-38481D01*
X57681Y-38436D01*
X57696Y-38373D01*
X57697Y-38298D01*
X57684Y-38234D01*
X57659Y-38174D01*
X57623Y-38120D01*
X57577Y-38074D01*
X57523Y-38037D01*
X57463Y-38012D01*
X57399Y-37999D01*
X57334Y-37998D01*
X57270Y-38011D01*
X57210Y-38035D01*
X57155Y-38071D01*
X57109Y-38116D01*
X57072Y-38170D01*
X57046Y-38230D01*
X57032Y-38294D01*
X57032Y-38359D01*
X57033Y-38369D01*
X56854Y-38549D01*
X55865Y-38549D01*
X55881Y-38511D01*
X55896Y-38448D01*
X55897Y-38373D01*
X55896Y-38368D01*
X56425Y-37838D01*
X56457Y-37838D01*
X56457Y-37919D01*
X56455Y-37921D01*
X56409Y-37966D01*
X56372Y-38020D01*
X56346Y-38080D01*
X56332Y-38144D01*
X56332Y-38209D01*
X56343Y-38273D01*
X56367Y-38334D01*
X56403Y-38389D01*
X56448Y-38435D01*
X56501Y-38473D01*
X56561Y-38499D01*
X56625Y-38513D01*
X56690Y-38514D01*
X56754Y-38503D01*
X56815Y-38479D01*
X56870Y-38444D01*
X56917Y-38399D01*
X56955Y-38346D01*
X56981Y-38286D01*
X56996Y-38223D01*
X56997Y-38148D01*
X56984Y-38084D01*
X56959Y-38024D01*
X56923Y-37970D01*
X56877Y-37924D01*
X56872Y-37920D01*
X56872Y-37843D01*
X59022Y-37843D01*
X59041Y-37841D01*
X59060Y-37839D01*
X59061Y-37839D01*
X59062Y-37839D01*
X59080Y-37833D01*
X59099Y-37828D01*
X59100Y-37827D01*
X59101Y-37827D01*
X59118Y-37818D01*
X59135Y-37809D01*
X59135Y-37809D01*
X59136Y-37808D01*
X59151Y-37796D01*
X59166Y-37784D01*
X59168Y-37783D01*
X59168Y-37783D01*
X59168Y-37783D01*
X59168Y-37782D01*
X59397Y-37554D01*
X59461Y-37555D01*
X59525Y-37544D01*
X59562Y-37529D01*
X59562Y-38324D01*
X59564Y-38343D01*
X59566Y-38362D01*
X59566Y-38364D01*
X59566Y-38365D01*
X59571Y-38380D01*
G54D10*
G36*
X66275Y-40640D02*
X66250Y-40630D01*
X66220Y-40624D01*
X66189Y-40624D01*
X65509Y-40624D01*
X65479Y-40630D01*
X65450Y-40641D01*
X65424Y-40659D01*
X65402Y-40681D01*
X65385Y-40706D01*
X65373Y-40735D01*
X65367Y-40765D01*
X65367Y-40797D01*
X65367Y-41597D01*
X65373Y-41627D01*
X65379Y-41642D01*
X65160Y-41642D01*
X65213Y-41599D01*
X65275Y-41525D01*
X65322Y-41440D01*
X65351Y-41347D01*
X65362Y-41251D01*
X65362Y-41244D01*
X65362Y-41118D01*
X65352Y-41022D01*
X65324Y-40929D01*
X65279Y-40843D01*
X65217Y-40768D01*
X65143Y-40706D01*
X65057Y-40660D01*
X64964Y-40631D01*
X64868Y-40621D01*
X64771Y-40630D01*
X64678Y-40657D01*
X64592Y-40702D01*
X64516Y-40763D01*
X64454Y-40837D01*
X64407Y-40922D01*
X64378Y-41015D01*
X64367Y-41111D01*
X64367Y-41118D01*
X64367Y-41244D01*
X64376Y-41340D01*
X64405Y-41433D01*
X64450Y-41519D01*
X64511Y-41594D01*
X64569Y-41642D01*
X64160Y-41642D01*
X64213Y-41599D01*
X64275Y-41525D01*
X64322Y-41440D01*
X64351Y-41347D01*
X64362Y-41251D01*
X64362Y-41244D01*
X64362Y-41118D01*
X64352Y-41022D01*
X64324Y-40929D01*
X64279Y-40843D01*
X64217Y-40768D01*
X64143Y-40706D01*
X64057Y-40660D01*
X63964Y-40631D01*
X63868Y-40621D01*
X63771Y-40630D01*
X63678Y-40657D01*
X63592Y-40702D01*
X63516Y-40763D01*
X63454Y-40837D01*
X63407Y-40922D01*
X63378Y-41015D01*
X63367Y-41111D01*
X63367Y-41118D01*
X63367Y-41244D01*
X63376Y-41340D01*
X63405Y-41433D01*
X63450Y-41519D01*
X63511Y-41594D01*
X63569Y-41642D01*
X63160Y-41642D01*
X63213Y-41599D01*
X63275Y-41525D01*
X63322Y-41440D01*
X63351Y-41347D01*
X63362Y-41251D01*
X63362Y-41244D01*
X63362Y-41118D01*
X63352Y-41022D01*
X63324Y-40929D01*
X63279Y-40843D01*
X63217Y-40768D01*
X63143Y-40706D01*
X63057Y-40660D01*
X62964Y-40631D01*
X62868Y-40621D01*
X62771Y-40630D01*
X62678Y-40657D01*
X62592Y-40702D01*
X62516Y-40763D01*
X62454Y-40837D01*
X62407Y-40922D01*
X62378Y-41015D01*
X62367Y-41111D01*
X62367Y-41118D01*
X62367Y-41244D01*
X62376Y-41340D01*
X62405Y-41433D01*
X62450Y-41519D01*
X62511Y-41594D01*
X62569Y-41642D01*
X62160Y-41642D01*
X62213Y-41599D01*
X62275Y-41525D01*
X62322Y-41440D01*
X62351Y-41347D01*
X62362Y-41251D01*
X62362Y-41244D01*
X62362Y-41118D01*
X62352Y-41022D01*
X62324Y-40929D01*
X62279Y-40843D01*
X62217Y-40768D01*
X62143Y-40706D01*
X62057Y-40660D01*
X61964Y-40631D01*
X61868Y-40621D01*
X61771Y-40630D01*
X61678Y-40657D01*
X61592Y-40702D01*
X61516Y-40763D01*
X61454Y-40837D01*
X61407Y-40922D01*
X61378Y-41015D01*
X61367Y-41111D01*
X61367Y-41118D01*
X61367Y-41244D01*
X61376Y-41340D01*
X61405Y-41433D01*
X61450Y-41519D01*
X61511Y-41594D01*
X61569Y-41642D01*
X61160Y-41642D01*
X61213Y-41599D01*
X61275Y-41525D01*
X61322Y-41440D01*
X61351Y-41347D01*
X61362Y-41251D01*
X61362Y-41244D01*
X61362Y-41118D01*
X61352Y-41022D01*
X61324Y-40929D01*
X61279Y-40843D01*
X61217Y-40768D01*
X61143Y-40706D01*
X61057Y-40660D01*
X60964Y-40631D01*
X60868Y-40621D01*
X60771Y-40630D01*
X60678Y-40657D01*
X60592Y-40702D01*
X60516Y-40763D01*
X60454Y-40837D01*
X60407Y-40922D01*
X60378Y-41015D01*
X60367Y-41111D01*
X60367Y-41118D01*
X60367Y-41244D01*
X60376Y-41340D01*
X60405Y-41433D01*
X60450Y-41519D01*
X60511Y-41594D01*
X60569Y-41642D01*
X60160Y-41642D01*
X60213Y-41599D01*
X60275Y-41525D01*
X60322Y-41440D01*
X60351Y-41347D01*
X60362Y-41251D01*
X60362Y-41244D01*
X60362Y-41118D01*
X60352Y-41022D01*
X60324Y-40929D01*
X60279Y-40843D01*
X60217Y-40768D01*
X60143Y-40706D01*
X60072Y-40668D01*
X60072Y-40567D01*
X60450Y-40188D01*
X64039Y-40188D01*
X64059Y-40187D01*
X64078Y-40185D01*
X64079Y-40185D01*
X64080Y-40185D01*
X64098Y-40179D01*
X64117Y-40174D01*
X64117Y-40173D01*
X64119Y-40173D01*
X64135Y-40164D01*
X64152Y-40155D01*
X64153Y-40154D01*
X64154Y-40154D01*
X64169Y-40142D01*
X64184Y-40130D01*
X64186Y-40128D01*
X64186Y-40128D01*
X64186Y-40128D01*
X64186Y-40128D01*
X64711Y-39603D01*
X64723Y-39588D01*
X64736Y-39573D01*
X64736Y-39572D01*
X64737Y-39571D01*
X64746Y-39555D01*
X64755Y-39538D01*
X64755Y-39537D01*
X64756Y-39536D01*
X64762Y-39517D01*
X64767Y-39499D01*
X64768Y-39498D01*
X64768Y-39497D01*
X64770Y-39478D01*
X64772Y-39459D01*
X64772Y-39457D01*
X64772Y-39457D01*
X64772Y-39457D01*
X64772Y-39456D01*
X64772Y-36418D01*
X64817Y-36374D01*
X64855Y-36321D01*
X64881Y-36261D01*
X64896Y-36198D01*
X64897Y-36123D01*
X64884Y-36059D01*
X64859Y-35999D01*
X64823Y-35945D01*
X64777Y-35899D01*
X64723Y-35862D01*
X64663Y-35837D01*
X64599Y-35824D01*
X64534Y-35823D01*
X64470Y-35836D01*
X64410Y-35860D01*
X64355Y-35896D01*
X64309Y-35941D01*
X64302Y-35950D01*
X64161Y-35809D01*
X64146Y-35797D01*
X64132Y-35785D01*
X64131Y-35784D01*
X64130Y-35784D01*
X64113Y-35775D01*
X64096Y-35765D01*
X64095Y-35765D01*
X64094Y-35764D01*
X64076Y-35759D01*
X64058Y-35753D01*
X64057Y-35753D01*
X64055Y-35753D01*
X64036Y-35751D01*
X64017Y-35749D01*
X64015Y-35749D01*
X64015Y-35749D01*
X64015Y-35749D01*
X64014Y-35749D01*
X63751Y-35749D01*
X63748Y-35745D01*
X63702Y-35699D01*
X63648Y-35662D01*
X63588Y-35637D01*
X63524Y-35624D01*
X63459Y-35623D01*
X63395Y-35636D01*
X63335Y-35660D01*
X63280Y-35696D01*
X63234Y-35741D01*
X63197Y-35795D01*
X63186Y-35821D01*
X63186Y-35772D01*
X63486Y-35472D01*
X63498Y-35457D01*
X63511Y-35443D01*
X63511Y-35442D01*
X63512Y-35441D01*
X63521Y-35424D01*
X63530Y-35407D01*
X63530Y-35406D01*
X63531Y-35405D01*
X63537Y-35387D01*
X63542Y-35368D01*
X63543Y-35367D01*
X63543Y-35366D01*
X63545Y-35347D01*
X63547Y-35328D01*
X63547Y-35326D01*
X63547Y-35326D01*
X63547Y-35326D01*
X63547Y-35325D01*
X63547Y-34988D01*
X64429Y-34988D01*
X64429Y-34989D01*
X64474Y-35035D01*
X64528Y-35073D01*
X64588Y-35099D01*
X64651Y-35113D01*
X64716Y-35114D01*
X64781Y-35103D01*
X64841Y-35079D01*
X64897Y-35044D01*
X64944Y-34999D01*
X64981Y-34946D01*
X65008Y-34886D01*
X65022Y-34823D01*
X65023Y-34748D01*
X65011Y-34684D01*
X64986Y-34624D01*
X64950Y-34570D01*
X64904Y-34524D01*
X64850Y-34487D01*
X64790Y-34462D01*
X64726Y-34449D01*
X64661Y-34448D01*
X64597Y-34461D01*
X64536Y-34485D01*
X64481Y-34521D01*
X64435Y-34566D01*
X64430Y-34574D01*
X63339Y-34574D01*
X62150Y-34574D01*
X61996Y-34419D01*
X61997Y-34348D01*
X61984Y-34284D01*
X61959Y-34224D01*
X61923Y-34170D01*
X61877Y-34124D01*
X61823Y-34087D01*
X61763Y-34062D01*
X61699Y-34049D01*
X61634Y-34048D01*
X61570Y-34061D01*
X61510Y-34085D01*
X61455Y-34121D01*
X61437Y-34139D01*
X61437Y-33832D01*
X61384Y-33742D01*
X60925Y-33742D01*
X60925Y-34257D01*
X61014Y-34301D01*
X61106Y-34267D01*
X61204Y-34210D01*
X61289Y-34135D01*
X61358Y-34044D01*
X61408Y-33942D01*
X61437Y-33832D01*
X61437Y-34139D01*
X61409Y-34166D01*
X61372Y-34220D01*
X61346Y-34280D01*
X61332Y-34344D01*
X61332Y-34409D01*
X61343Y-34473D01*
X61367Y-34534D01*
X61403Y-34589D01*
X61448Y-34635D01*
X61501Y-34673D01*
X61561Y-34699D01*
X61625Y-34713D01*
X61690Y-34714D01*
X61702Y-34712D01*
X61918Y-34928D01*
X61933Y-34940D01*
X61947Y-34952D01*
X61948Y-34953D01*
X61949Y-34953D01*
X61966Y-34962D01*
X61983Y-34972D01*
X61984Y-34972D01*
X61985Y-34973D01*
X62003Y-34978D01*
X62021Y-34984D01*
X62022Y-34984D01*
X62023Y-34984D01*
X62042Y-34986D01*
X62062Y-34988D01*
X62064Y-34988D01*
X62064Y-34988D01*
X62064Y-34988D01*
X62064Y-34988D01*
X63132Y-34988D01*
X63132Y-35239D01*
X62832Y-35540D01*
X62819Y-35555D01*
X62807Y-35569D01*
X62807Y-35570D01*
X62806Y-35571D01*
X62797Y-35588D01*
X62788Y-35605D01*
X62787Y-35606D01*
X62787Y-35607D01*
X62781Y-35625D01*
X62775Y-35643D01*
X62775Y-35644D01*
X62775Y-35645D01*
X62773Y-35665D01*
X62771Y-35684D01*
X62771Y-35686D01*
X62771Y-35686D01*
X62771Y-35686D01*
X62771Y-35687D01*
X62771Y-37156D01*
X61416Y-38511D01*
X61345Y-38511D01*
X61370Y-38494D01*
X61417Y-38449D01*
X61455Y-38396D01*
X61481Y-38336D01*
X61496Y-38273D01*
X61497Y-38198D01*
X61490Y-38163D01*
X61540Y-38164D01*
X61604Y-38153D01*
X61665Y-38129D01*
X61720Y-38094D01*
X61767Y-38049D01*
X61805Y-37996D01*
X61831Y-37936D01*
X61846Y-37873D01*
X61847Y-37798D01*
X61834Y-37734D01*
X61809Y-37674D01*
X61773Y-37620D01*
X61727Y-37574D01*
X61722Y-37570D01*
X61722Y-35781D01*
X61720Y-35762D01*
X61718Y-35743D01*
X61718Y-35742D01*
X61718Y-35741D01*
X61712Y-35722D01*
X61707Y-35704D01*
X61707Y-35703D01*
X61706Y-35702D01*
X61697Y-35685D01*
X61688Y-35668D01*
X61688Y-35667D01*
X61687Y-35666D01*
X61675Y-35651D01*
X61663Y-35636D01*
X61662Y-35635D01*
X61662Y-35635D01*
X61662Y-35635D01*
X61661Y-35634D01*
X60165Y-34138D01*
X60213Y-34099D01*
X60275Y-34025D01*
X60321Y-33941D01*
X60321Y-33942D01*
X60371Y-34044D01*
X60439Y-34135D01*
X60524Y-34210D01*
X60622Y-34267D01*
X60714Y-34301D01*
X60804Y-34257D01*
X60804Y-33742D01*
X60796Y-33742D01*
X60796Y-33620D01*
X60804Y-33620D01*
X60804Y-33207D01*
X60804Y-33105D01*
X60804Y-32692D01*
X60796Y-32692D01*
X60796Y-32570D01*
X60804Y-32570D01*
X60804Y-32562D01*
X60925Y-32562D01*
X60925Y-32570D01*
X60933Y-32570D01*
X60933Y-32692D01*
X60925Y-32692D01*
X60925Y-33105D01*
X60925Y-33207D01*
X60925Y-33620D01*
X61384Y-33620D01*
X61437Y-33530D01*
X61408Y-33420D01*
X61358Y-33318D01*
X61289Y-33227D01*
X61209Y-33156D01*
X61289Y-33085D01*
X61358Y-32994D01*
X61408Y-32892D01*
X61408Y-32890D01*
X61450Y-32969D01*
X61511Y-33044D01*
X61586Y-33106D01*
X61672Y-33152D01*
X61764Y-33181D01*
X61861Y-33191D01*
X61958Y-33182D01*
X62051Y-33155D01*
X62137Y-33110D01*
X62213Y-33049D01*
X62275Y-32975D01*
X62322Y-32890D01*
X62351Y-32797D01*
X62362Y-32701D01*
X62362Y-32694D01*
X62362Y-32568D01*
X62352Y-32472D01*
X62324Y-32379D01*
X62279Y-32293D01*
X62220Y-32220D01*
X62510Y-32220D01*
X62454Y-32287D01*
X62407Y-32372D01*
X62378Y-32465D01*
X62367Y-32561D01*
X62367Y-32568D01*
X62367Y-32694D01*
X62376Y-32790D01*
X62405Y-32883D01*
X62450Y-32969D01*
X62511Y-33044D01*
X62586Y-33106D01*
X62672Y-33152D01*
X62764Y-33181D01*
X62861Y-33191D01*
X62958Y-33182D01*
X63051Y-33155D01*
X63137Y-33110D01*
X63213Y-33049D01*
X63275Y-32975D01*
X63322Y-32890D01*
X63351Y-32797D01*
X63362Y-32701D01*
X63362Y-32694D01*
X63362Y-32568D01*
X63352Y-32472D01*
X63324Y-32379D01*
X63279Y-32293D01*
X63220Y-32220D01*
X63510Y-32220D01*
X63454Y-32287D01*
X63407Y-32372D01*
X63378Y-32465D01*
X63367Y-32561D01*
X63367Y-32568D01*
X63367Y-32694D01*
X63376Y-32790D01*
X63405Y-32883D01*
X63450Y-32969D01*
X63511Y-33044D01*
X63586Y-33106D01*
X63672Y-33152D01*
X63764Y-33181D01*
X63861Y-33191D01*
X63958Y-33182D01*
X64051Y-33155D01*
X64137Y-33110D01*
X64213Y-33049D01*
X64275Y-32975D01*
X64321Y-32891D01*
X64321Y-32892D01*
X64371Y-32994D01*
X64439Y-33085D01*
X64524Y-33160D01*
X64622Y-33217D01*
X64714Y-33251D01*
X64804Y-33207D01*
X64804Y-32692D01*
X64796Y-32692D01*
X64796Y-32570D01*
X64804Y-32570D01*
X64804Y-32562D01*
X64925Y-32562D01*
X64925Y-32570D01*
X64933Y-32570D01*
X64933Y-32692D01*
X64925Y-32692D01*
X64925Y-33207D01*
X65014Y-33251D01*
X65106Y-33217D01*
X65204Y-33160D01*
X65289Y-33085D01*
X65358Y-32994D01*
X65408Y-32892D01*
X65408Y-32890D01*
X65450Y-32969D01*
X65511Y-33044D01*
X65586Y-33106D01*
X65672Y-33152D01*
X65764Y-33181D01*
X65861Y-33191D01*
X65958Y-33182D01*
X66051Y-33155D01*
X66137Y-33110D01*
X66213Y-33049D01*
X66275Y-32975D01*
X66275Y-32974D01*
X66275Y-40640D01*
X66275Y-40640D01*
G37*
G54D18*
X66275Y-40640D02*
X66250Y-40630D01*
X66220Y-40624D01*
X66189Y-40624D01*
X65509Y-40624D01*
X65479Y-40630D01*
X65450Y-40641D01*
X65424Y-40659D01*
X65402Y-40681D01*
X65385Y-40706D01*
X65373Y-40735D01*
X65367Y-40765D01*
X65367Y-40797D01*
X65367Y-41597D01*
X65373Y-41627D01*
X65379Y-41642D01*
X65160Y-41642D01*
X65213Y-41599D01*
X65275Y-41525D01*
X65322Y-41440D01*
X65351Y-41347D01*
X65362Y-41251D01*
X65362Y-41244D01*
X65362Y-41118D01*
X65352Y-41022D01*
X65324Y-40929D01*
X65279Y-40843D01*
X65217Y-40768D01*
X65143Y-40706D01*
X65057Y-40660D01*
X64964Y-40631D01*
X64868Y-40621D01*
X64771Y-40630D01*
X64678Y-40657D01*
X64592Y-40702D01*
X64516Y-40763D01*
X64454Y-40837D01*
X64407Y-40922D01*
X64378Y-41015D01*
X64367Y-41111D01*
X64367Y-41118D01*
X64367Y-41244D01*
X64376Y-41340D01*
X64405Y-41433D01*
X64450Y-41519D01*
X64511Y-41594D01*
X64569Y-41642D01*
X64160Y-41642D01*
X64213Y-41599D01*
X64275Y-41525D01*
X64322Y-41440D01*
X64351Y-41347D01*
X64362Y-41251D01*
X64362Y-41244D01*
X64362Y-41118D01*
X64352Y-41022D01*
X64324Y-40929D01*
X64279Y-40843D01*
X64217Y-40768D01*
X64143Y-40706D01*
X64057Y-40660D01*
X63964Y-40631D01*
X63868Y-40621D01*
X63771Y-40630D01*
X63678Y-40657D01*
X63592Y-40702D01*
X63516Y-40763D01*
X63454Y-40837D01*
X63407Y-40922D01*
X63378Y-41015D01*
X63367Y-41111D01*
X63367Y-41118D01*
X63367Y-41244D01*
X63376Y-41340D01*
X63405Y-41433D01*
X63450Y-41519D01*
X63511Y-41594D01*
X63569Y-41642D01*
X63160Y-41642D01*
X63213Y-41599D01*
X63275Y-41525D01*
X63322Y-41440D01*
X63351Y-41347D01*
X63362Y-41251D01*
X63362Y-41244D01*
X63362Y-41118D01*
X63352Y-41022D01*
X63324Y-40929D01*
X63279Y-40843D01*
X63217Y-40768D01*
X63143Y-40706D01*
X63057Y-40660D01*
X62964Y-40631D01*
X62868Y-40621D01*
X62771Y-40630D01*
X62678Y-40657D01*
X62592Y-40702D01*
X62516Y-40763D01*
X62454Y-40837D01*
X62407Y-40922D01*
X62378Y-41015D01*
X62367Y-41111D01*
X62367Y-41118D01*
X62367Y-41244D01*
X62376Y-41340D01*
X62405Y-41433D01*
X62450Y-41519D01*
X62511Y-41594D01*
X62569Y-41642D01*
X62160Y-41642D01*
X62213Y-41599D01*
X62275Y-41525D01*
X62322Y-41440D01*
X62351Y-41347D01*
X62362Y-41251D01*
X62362Y-41244D01*
X62362Y-41118D01*
X62352Y-41022D01*
X62324Y-40929D01*
X62279Y-40843D01*
X62217Y-40768D01*
X62143Y-40706D01*
X62057Y-40660D01*
X61964Y-40631D01*
X61868Y-40621D01*
X61771Y-40630D01*
X61678Y-40657D01*
X61592Y-40702D01*
X61516Y-40763D01*
X61454Y-40837D01*
X61407Y-40922D01*
X61378Y-41015D01*
X61367Y-41111D01*
X61367Y-41118D01*
X61367Y-41244D01*
X61376Y-41340D01*
X61405Y-41433D01*
X61450Y-41519D01*
X61511Y-41594D01*
X61569Y-41642D01*
X61160Y-41642D01*
X61213Y-41599D01*
X61275Y-41525D01*
X61322Y-41440D01*
X61351Y-41347D01*
X61362Y-41251D01*
X61362Y-41244D01*
X61362Y-41118D01*
X61352Y-41022D01*
X61324Y-40929D01*
X61279Y-40843D01*
X61217Y-40768D01*
X61143Y-40706D01*
X61057Y-40660D01*
X60964Y-40631D01*
X60868Y-40621D01*
X60771Y-40630D01*
X60678Y-40657D01*
X60592Y-40702D01*
X60516Y-40763D01*
X60454Y-40837D01*
X60407Y-40922D01*
X60378Y-41015D01*
X60367Y-41111D01*
X60367Y-41118D01*
X60367Y-41244D01*
X60376Y-41340D01*
X60405Y-41433D01*
X60450Y-41519D01*
X60511Y-41594D01*
X60569Y-41642D01*
X60160Y-41642D01*
X60213Y-41599D01*
X60275Y-41525D01*
X60322Y-41440D01*
X60351Y-41347D01*
X60362Y-41251D01*
X60362Y-41244D01*
X60362Y-41118D01*
X60352Y-41022D01*
X60324Y-40929D01*
X60279Y-40843D01*
X60217Y-40768D01*
X60143Y-40706D01*
X60072Y-40668D01*
X60072Y-40567D01*
X60450Y-40188D01*
X64039Y-40188D01*
X64059Y-40187D01*
X64078Y-40185D01*
X64079Y-40185D01*
X64080Y-40185D01*
X64098Y-40179D01*
X64117Y-40174D01*
X64117Y-40173D01*
X64119Y-40173D01*
X64135Y-40164D01*
X64152Y-40155D01*
X64153Y-40154D01*
X64154Y-40154D01*
X64169Y-40142D01*
X64184Y-40130D01*
X64186Y-40128D01*
X64186Y-40128D01*
X64186Y-40128D01*
X64186Y-40128D01*
X64711Y-39603D01*
X64723Y-39588D01*
X64736Y-39573D01*
X64736Y-39572D01*
X64737Y-39571D01*
X64746Y-39555D01*
X64755Y-39538D01*
X64755Y-39537D01*
X64756Y-39536D01*
X64762Y-39517D01*
X64767Y-39499D01*
X64768Y-39498D01*
X64768Y-39497D01*
X64770Y-39478D01*
X64772Y-39459D01*
X64772Y-39457D01*
X64772Y-39457D01*
X64772Y-39457D01*
X64772Y-39456D01*
X64772Y-36418D01*
X64817Y-36374D01*
X64855Y-36321D01*
X64881Y-36261D01*
X64896Y-36198D01*
X64897Y-36123D01*
X64884Y-36059D01*
X64859Y-35999D01*
X64823Y-35945D01*
X64777Y-35899D01*
X64723Y-35862D01*
X64663Y-35837D01*
X64599Y-35824D01*
X64534Y-35823D01*
X64470Y-35836D01*
X64410Y-35860D01*
X64355Y-35896D01*
X64309Y-35941D01*
X64302Y-35950D01*
X64161Y-35809D01*
X64146Y-35797D01*
X64132Y-35785D01*
X64131Y-35784D01*
X64130Y-35784D01*
X64113Y-35775D01*
X64096Y-35765D01*
X64095Y-35765D01*
X64094Y-35764D01*
X64076Y-35759D01*
X64058Y-35753D01*
X64057Y-35753D01*
X64055Y-35753D01*
X64036Y-35751D01*
X64017Y-35749D01*
X64015Y-35749D01*
X64015Y-35749D01*
X64015Y-35749D01*
X64014Y-35749D01*
X63751Y-35749D01*
X63748Y-35745D01*
X63702Y-35699D01*
X63648Y-35662D01*
X63588Y-35637D01*
X63524Y-35624D01*
X63459Y-35623D01*
X63395Y-35636D01*
X63335Y-35660D01*
X63280Y-35696D01*
X63234Y-35741D01*
X63197Y-35795D01*
X63186Y-35821D01*
X63186Y-35772D01*
X63486Y-35472D01*
X63498Y-35457D01*
X63511Y-35443D01*
X63511Y-35442D01*
X63512Y-35441D01*
X63521Y-35424D01*
X63530Y-35407D01*
X63530Y-35406D01*
X63531Y-35405D01*
X63537Y-35387D01*
X63542Y-35368D01*
X63543Y-35367D01*
X63543Y-35366D01*
X63545Y-35347D01*
X63547Y-35328D01*
X63547Y-35326D01*
X63547Y-35326D01*
X63547Y-35326D01*
X63547Y-35325D01*
X63547Y-34988D01*
X64429Y-34988D01*
X64429Y-34989D01*
X64474Y-35035D01*
X64528Y-35073D01*
X64588Y-35099D01*
X64651Y-35113D01*
X64716Y-35114D01*
X64781Y-35103D01*
X64841Y-35079D01*
X64897Y-35044D01*
X64944Y-34999D01*
X64981Y-34946D01*
X65008Y-34886D01*
X65022Y-34823D01*
X65023Y-34748D01*
X65011Y-34684D01*
X64986Y-34624D01*
X64950Y-34570D01*
X64904Y-34524D01*
X64850Y-34487D01*
X64790Y-34462D01*
X64726Y-34449D01*
X64661Y-34448D01*
X64597Y-34461D01*
X64536Y-34485D01*
X64481Y-34521D01*
X64435Y-34566D01*
X64430Y-34574D01*
X63339Y-34574D01*
X62150Y-34574D01*
X61996Y-34419D01*
X61997Y-34348D01*
X61984Y-34284D01*
X61959Y-34224D01*
X61923Y-34170D01*
X61877Y-34124D01*
X61823Y-34087D01*
X61763Y-34062D01*
X61699Y-34049D01*
X61634Y-34048D01*
X61570Y-34061D01*
X61510Y-34085D01*
X61455Y-34121D01*
X61437Y-34139D01*
X61437Y-33832D01*
X61384Y-33742D01*
X60925Y-33742D01*
X60925Y-34257D01*
X61014Y-34301D01*
X61106Y-34267D01*
X61204Y-34210D01*
X61289Y-34135D01*
X61358Y-34044D01*
X61408Y-33942D01*
X61437Y-33832D01*
X61437Y-34139D01*
X61409Y-34166D01*
X61372Y-34220D01*
X61346Y-34280D01*
X61332Y-34344D01*
X61332Y-34409D01*
X61343Y-34473D01*
X61367Y-34534D01*
X61403Y-34589D01*
X61448Y-34635D01*
X61501Y-34673D01*
X61561Y-34699D01*
X61625Y-34713D01*
X61690Y-34714D01*
X61702Y-34712D01*
X61918Y-34928D01*
X61933Y-34940D01*
X61947Y-34952D01*
X61948Y-34953D01*
X61949Y-34953D01*
X61966Y-34962D01*
X61983Y-34972D01*
X61984Y-34972D01*
X61985Y-34973D01*
X62003Y-34978D01*
X62021Y-34984D01*
X62022Y-34984D01*
X62023Y-34984D01*
X62042Y-34986D01*
X62062Y-34988D01*
X62064Y-34988D01*
X62064Y-34988D01*
X62064Y-34988D01*
X62064Y-34988D01*
X63132Y-34988D01*
X63132Y-35239D01*
X62832Y-35540D01*
X62819Y-35555D01*
X62807Y-35569D01*
X62807Y-35570D01*
X62806Y-35571D01*
X62797Y-35588D01*
X62788Y-35605D01*
X62787Y-35606D01*
X62787Y-35607D01*
X62781Y-35625D01*
X62775Y-35643D01*
X62775Y-35644D01*
X62775Y-35645D01*
X62773Y-35665D01*
X62771Y-35684D01*
X62771Y-35686D01*
X62771Y-35686D01*
X62771Y-35686D01*
X62771Y-35687D01*
X62771Y-37156D01*
X61416Y-38511D01*
X61345Y-38511D01*
X61370Y-38494D01*
X61417Y-38449D01*
X61455Y-38396D01*
X61481Y-38336D01*
X61496Y-38273D01*
X61497Y-38198D01*
X61490Y-38163D01*
X61540Y-38164D01*
X61604Y-38153D01*
X61665Y-38129D01*
X61720Y-38094D01*
X61767Y-38049D01*
X61805Y-37996D01*
X61831Y-37936D01*
X61846Y-37873D01*
X61847Y-37798D01*
X61834Y-37734D01*
X61809Y-37674D01*
X61773Y-37620D01*
X61727Y-37574D01*
X61722Y-37570D01*
X61722Y-35781D01*
X61720Y-35762D01*
X61718Y-35743D01*
X61718Y-35742D01*
X61718Y-35741D01*
X61712Y-35722D01*
X61707Y-35704D01*
X61707Y-35703D01*
X61706Y-35702D01*
X61697Y-35685D01*
X61688Y-35668D01*
X61688Y-35667D01*
X61687Y-35666D01*
X61675Y-35651D01*
X61663Y-35636D01*
X61662Y-35635D01*
X61662Y-35635D01*
X61662Y-35635D01*
X61661Y-35634D01*
X60165Y-34138D01*
X60213Y-34099D01*
X60275Y-34025D01*
X60321Y-33941D01*
X60321Y-33942D01*
X60371Y-34044D01*
X60439Y-34135D01*
X60524Y-34210D01*
X60622Y-34267D01*
X60714Y-34301D01*
X60804Y-34257D01*
X60804Y-33742D01*
X60796Y-33742D01*
X60796Y-33620D01*
X60804Y-33620D01*
X60804Y-33207D01*
X60804Y-33105D01*
X60804Y-32692D01*
X60796Y-32692D01*
X60796Y-32570D01*
X60804Y-32570D01*
X60804Y-32562D01*
X60925Y-32562D01*
X60925Y-32570D01*
X60933Y-32570D01*
X60933Y-32692D01*
X60925Y-32692D01*
X60925Y-33105D01*
X60925Y-33207D01*
X60925Y-33620D01*
X61384Y-33620D01*
X61437Y-33530D01*
X61408Y-33420D01*
X61358Y-33318D01*
X61289Y-33227D01*
X61209Y-33156D01*
X61289Y-33085D01*
X61358Y-32994D01*
X61408Y-32892D01*
X61408Y-32890D01*
X61450Y-32969D01*
X61511Y-33044D01*
X61586Y-33106D01*
X61672Y-33152D01*
X61764Y-33181D01*
X61861Y-33191D01*
X61958Y-33182D01*
X62051Y-33155D01*
X62137Y-33110D01*
X62213Y-33049D01*
X62275Y-32975D01*
X62322Y-32890D01*
X62351Y-32797D01*
X62362Y-32701D01*
X62362Y-32694D01*
X62362Y-32568D01*
X62352Y-32472D01*
X62324Y-32379D01*
X62279Y-32293D01*
X62220Y-32220D01*
X62510Y-32220D01*
X62454Y-32287D01*
X62407Y-32372D01*
X62378Y-32465D01*
X62367Y-32561D01*
X62367Y-32568D01*
X62367Y-32694D01*
X62376Y-32790D01*
X62405Y-32883D01*
X62450Y-32969D01*
X62511Y-33044D01*
X62586Y-33106D01*
X62672Y-33152D01*
X62764Y-33181D01*
X62861Y-33191D01*
X62958Y-33182D01*
X63051Y-33155D01*
X63137Y-33110D01*
X63213Y-33049D01*
X63275Y-32975D01*
X63322Y-32890D01*
X63351Y-32797D01*
X63362Y-32701D01*
X63362Y-32694D01*
X63362Y-32568D01*
X63352Y-32472D01*
X63324Y-32379D01*
X63279Y-32293D01*
X63220Y-32220D01*
X63510Y-32220D01*
X63454Y-32287D01*
X63407Y-32372D01*
X63378Y-32465D01*
X63367Y-32561D01*
X63367Y-32568D01*
X63367Y-32694D01*
X63376Y-32790D01*
X63405Y-32883D01*
X63450Y-32969D01*
X63511Y-33044D01*
X63586Y-33106D01*
X63672Y-33152D01*
X63764Y-33181D01*
X63861Y-33191D01*
X63958Y-33182D01*
X64051Y-33155D01*
X64137Y-33110D01*
X64213Y-33049D01*
X64275Y-32975D01*
X64321Y-32891D01*
X64321Y-32892D01*
X64371Y-32994D01*
X64439Y-33085D01*
X64524Y-33160D01*
X64622Y-33217D01*
X64714Y-33251D01*
X64804Y-33207D01*
X64804Y-32692D01*
X64796Y-32692D01*
X64796Y-32570D01*
X64804Y-32570D01*
X64804Y-32562D01*
X64925Y-32562D01*
X64925Y-32570D01*
X64933Y-32570D01*
X64933Y-32692D01*
X64925Y-32692D01*
X64925Y-33207D01*
X65014Y-33251D01*
X65106Y-33217D01*
X65204Y-33160D01*
X65289Y-33085D01*
X65358Y-32994D01*
X65408Y-32892D01*
X65408Y-32890D01*
X65450Y-32969D01*
X65511Y-33044D01*
X65586Y-33106D01*
X65672Y-33152D01*
X65764Y-33181D01*
X65861Y-33191D01*
X65958Y-33182D01*
X66051Y-33155D01*
X66137Y-33110D01*
X66213Y-33049D01*
X66275Y-32975D01*
X66275Y-32974D01*
X66275Y-40640D01*
M02*
